solid 4raccordo
facet normal -0.0 1.0 -0.0
  outer loop
    vertex 5.539219876433369e-16 0.0 1.999999999999999
    vertex 4.585889527835965 0.0 5.454518677937489
    vertex 5.0 0.0 5.399999999999998
  endloop
endfacet
facet normal -0.0 1.0 -0.0
  outer loop
    vertex 4.585889527835965 0.0 5.454518677937489
    vertex 5.539219876433369e-16 0.0 1.999999999999999
    vertex 4.199999999999999 0.0 5.614359353944897
  endloop
endfacet
facet normal -0.0 1.0 -0.0
  outer loop
    vertex 4.199999999999999 0.0 5.614359353944897
    vertex 5.539219876433369e-16 0.0 1.999999999999999
    vertex 3.868629150101523 0.0 5.868629150101523
  endloop
endfacet
facet normal -0.0 1.0 -0.0
  outer loop
    vertex 3.868629150101523 0.0 5.868629150101523
    vertex 5.539219876433369e-16 0.0 1.999999999999999
    vertex 3.6143593539448977 0.0 6.199999999999998
  endloop
endfacet
facet normal -0.0 1.0 -0.0
  outer loop
    vertex 3.6143593539448977 0.0 6.199999999999998
    vertex 5.539219876433369e-16 0.0 1.999999999999999
    vertex 1.5421691701433814e-16 0.0 11.999999999999998
  endloop
endfacet
facet normal -0.0 1.0 -0.0
  outer loop
    vertex 4.199999999999999 0.0 5.614359353944897
    vertex 3.868629150101523 0.0 5.868629150101523
    vertex 4.077433978569698 0.0 5.708407569997575
  endloop
endfacet
facet normal -0.0 1.0 -0.0
  outer loop
    vertex 3.6143593539448977 0.0 6.199999999999998
    vertex 1.5421691701433814e-16 0.0 11.999999999999998
    vertex 3.45451867793749 0.0 6.585889527835965
  endloop
endfacet
facet normal -0.0 1.0 -0.0
  outer loop
    vertex 3.45451867793749 0.0 6.585889527835965
    vertex 1.5421691701433814e-16 0.0 11.999999999999998
    vertex 3.3999999999999995 0.0 6.999999999999998
  endloop
endfacet
facet normal -0.0 1.0 -0.0
  outer loop
    vertex 3.3999999999999995 0.0 6.999999999999998
    vertex 1.5421691701433814e-16 0.0 11.999999999999998
    vertex 3.4545186779374903 0.0 7.414110472164031
  endloop
endfacet
facet normal -0.0 1.0 -0.0
  outer loop
    vertex 3.4545186779374903 0.0 7.414110472164031
    vertex 1.5421691701433814e-16 0.0 11.999999999999998
    vertex 3.6143593539448977 0.0 7.8
  endloop
endfacet
facet normal -0.0 1.0 -0.0
  outer loop
    vertex 3.6143593539448977 0.0 7.8
    vertex 1.5421691701433814e-16 0.0 11.999999999999998
    vertex 3.868629150101524 0.0 8.131370849898476
  endloop
endfacet
facet normal -0.0 1.0 -0.0
  outer loop
    vertex 3.868629150101524 0.0 8.131370849898476
    vertex 1.5421691701433814e-16 0.0 11.999999999999998
    vertex 4.2 0.0 8.385640646055101
  endloop
endfacet
facet normal -0.0 1.0 -0.0
  outer loop
    vertex 4.2 0.0 8.385640646055101
    vertex 1.5421691701433814e-16 0.0 11.999999999999998
    vertex 4.585889527835967 0.0 8.545481322062509
  endloop
endfacet
facet normal -0.0 1.0 -0.0
  outer loop
    vertex 4.585889527835967 0.0 8.545481322062509
    vertex 1.5421691701433814e-16 0.0 11.999999999999998
    vertex 5.0 0.0 8.599999999999998
  endloop
endfacet
facet normal -0.0 1.0 -0.0
  outer loop
    vertex 14.999999999999998 0.0 1.9999999999999984
    vertex 5.799999999999999 0.0 5.614359353944896
    vertex 14.999999999999998 0.0 11.999999999999998
  endloop
endfacet
facet normal -0.0 1.0 -0.0
  outer loop
    vertex 5.799999999999999 0.0 5.614359353944896
    vertex 14.999999999999998 0.0 1.9999999999999984
    vertex 5.539219876433369e-16 0.0 1.999999999999999
  endloop
endfacet
facet normal -0.0 1.0 -0.0
  outer loop
    vertex 5.799999999999999 0.0 5.614359353944896
    vertex 5.539219876433369e-16 0.0 1.999999999999999
    vertex 5.414110472164032 0.0 5.454518677937489
  endloop
endfacet
facet normal -0.0 1.0 -0.0
  outer loop
    vertex 5.414110472164032 0.0 5.454518677937489
    vertex 5.539219876433369e-16 0.0 1.999999999999999
    vertex 5.0 0.0 5.399999999999998
  endloop
endfacet
facet normal -0.0 1.0 -0.0
  outer loop
    vertex 14.999999999999998 0.0 11.999999999999998
    vertex 5.799999999999999 0.0 5.614359353944896
    vertex 6.1313708498984765 0.0 5.868629150101522
  endloop
endfacet
facet normal -0.0 1.0 -0.0
  outer loop
    vertex 14.999999999999998 0.0 11.999999999999998
    vertex 6.1313708498984765 0.0 5.868629150101522
    vertex 6.385640646055102 0.0 6.1999999999999975
  endloop
endfacet
facet normal -0.0 1.0 -0.0
  outer loop
    vertex 14.999999999999998 0.0 11.999999999999998
    vertex 6.385640646055102 0.0 6.1999999999999975
    vertex 6.54548132206251 0.0 6.585889527835964
  endloop
endfacet
facet normal -0.0 1.0 -0.0
  outer loop
    vertex 14.999999999999998 0.0 11.999999999999998
    vertex 6.54548132206251 0.0 6.585889527835964
    vertex 6.6000000000000005 0.0 6.999999999999998
  endloop
endfacet
facet normal -0.0 1.0 -0.0
  outer loop
    vertex 14.999999999999998 0.0 11.999999999999998
    vertex 6.6000000000000005 0.0 6.999999999999998
    vertex 6.54548132206251 0.0 7.414110472164031
  endloop
endfacet
facet normal -0.0 1.0 -0.0
  outer loop
    vertex 14.999999999999998 0.0 11.999999999999998
    vertex 6.54548132206251 0.0 7.414110472164031
    vertex 6.385640646055102 0.0 7.799999999999998
  endloop
endfacet
facet normal -0.0 1.0 -0.0
  outer loop
    vertex 14.999999999999998 0.0 11.999999999999998
    vertex 6.385640646055102 0.0 7.799999999999998
    vertex 6.1313708498984765 0.0 8.131370849898476
  endloop
endfacet
facet normal -0.0 1.0 -0.0
  outer loop
    vertex 14.999999999999998 0.0 11.999999999999998
    vertex 6.1313708498984765 0.0 8.131370849898476
    vertex 5.922566021430302 0.0 8.291592430002423
  endloop
endfacet
facet normal -0.0 1.0 -0.0
  outer loop
    vertex 14.999999999999998 0.0 11.999999999999998
    vertex 5.922566021430302 0.0 8.291592430002423
    vertex 5.800000000000001 0.0 8.3856406460551
  endloop
endfacet
facet normal -0.0 1.0 -0.0
  outer loop
    vertex 14.999999999999998 0.0 11.999999999999998
    vertex 5.800000000000001 0.0 8.3856406460551
    vertex 5.414110472164034 0.0 8.545481322062509
  endloop
endfacet
facet normal -0.0 1.0 -0.0
  outer loop
    vertex 14.999999999999998 0.0 11.999999999999998
    vertex 5.414110472164034 0.0 8.545481322062509
    vertex 5.0 0.0 8.599999999999998
  endloop
endfacet
facet normal -0.0 1.0 -0.0
  outer loop
    vertex 14.999999999999998 0.0 11.999999999999998
    vertex 5.0 0.0 8.599999999999998
    vertex 1.5421691701433814e-16 0.0 11.999999999999998
  endloop
endfacet
facet normal 0.0 -1.0 0.0
  outer loop
    vertex 14.999999999999998 -2.5 1.9999999999999984
    vertex 5.799999999999999 -2.5 5.614359353944896
    vertex 5.539219876433369e-16 -2.5 1.999999999999999
  endloop
endfacet
facet normal 0.0 -1.0 0.0
  outer loop
    vertex 5.799999999999999 -2.5 5.614359353944896
    vertex 14.999999999999998 -2.5 1.9999999999999984
    vertex 14.999999999999998 -2.5 11.999999999999998
  endloop
endfacet
facet normal 0.0 -1.0 0.0
  outer loop
    vertex 5.539219876433369e-16 -2.5 1.999999999999999
    vertex 5.799999999999999 -2.5 5.614359353944896
    vertex 5.414110472164032 -2.5 5.454518677937489
  endloop
endfacet
facet normal 0.0 -1.0 0.0
  outer loop
    vertex 5.539219876433369e-16 -2.5 1.999999999999999
    vertex 5.414110472164032 -2.5 5.454518677937489
    vertex 5.0 -2.5 5.399999999999998
  endloop
endfacet
facet normal 0.0 -1.0 0.0
  outer loop
    vertex 5.799999999999999 -2.5 5.614359353944896
    vertex 14.999999999999998 -2.5 11.999999999999998
    vertex 6.1313708498984765 -2.5 5.868629150101522
  endloop
endfacet
facet normal 0.0 -1.0 0.0
  outer loop
    vertex 6.1313708498984765 -2.5 5.868629150101522
    vertex 14.999999999999998 -2.5 11.999999999999998
    vertex 6.385640646055102 -2.5 6.1999999999999975
  endloop
endfacet
facet normal 0.0 -1.0 0.0
  outer loop
    vertex 6.385640646055102 -2.5 6.1999999999999975
    vertex 14.999999999999998 -2.5 11.999999999999998
    vertex 6.54548132206251 -2.5 6.585889527835964
  endloop
endfacet
facet normal 0.0 -1.0 0.0
  outer loop
    vertex 6.54548132206251 -2.5 6.585889527835964
    vertex 14.999999999999998 -2.5 11.999999999999998
    vertex 6.6000000000000005 -2.5 6.999999999999998
  endloop
endfacet
facet normal 0.0 -1.0 0.0
  outer loop
    vertex 6.6000000000000005 -2.5 6.999999999999998
    vertex 14.999999999999998 -2.5 11.999999999999998
    vertex 6.54548132206251 -2.5 7.414110472164031
  endloop
endfacet
facet normal 0.0 -1.0 0.0
  outer loop
    vertex 6.54548132206251 -2.5 7.414110472164031
    vertex 14.999999999999998 -2.5 11.999999999999998
    vertex 6.385640646055102 -2.5 7.799999999999998
  endloop
endfacet
facet normal 0.0 -1.0 0.0
  outer loop
    vertex 6.385640646055102 -2.5 7.799999999999998
    vertex 14.999999999999998 -2.5 11.999999999999998
    vertex 6.1313708498984765 -2.5 8.131370849898476
  endloop
endfacet
facet normal 0.0 -1.0 0.0
  outer loop
    vertex 6.1313708498984765 -2.5 8.131370849898476
    vertex 14.999999999999998 -2.5 11.999999999999998
    vertex 5.922566021430302 -2.5 8.291592430002423
  endloop
endfacet
facet normal 0.0 -1.0 0.0
  outer loop
    vertex 5.922566021430302 -2.5 8.291592430002423
    vertex 14.999999999999998 -2.5 11.999999999999998
    vertex 5.800000000000001 -2.5 8.3856406460551
  endloop
endfacet
facet normal 0.0 -1.0 0.0
  outer loop
    vertex 5.800000000000001 -2.5 8.3856406460551
    vertex 14.999999999999998 -2.5 11.999999999999998
    vertex 5.414110472164034 -2.5 8.545481322062509
  endloop
endfacet
facet normal 0.0 -1.0 0.0
  outer loop
    vertex 5.414110472164034 -2.5 8.545481322062509
    vertex 14.999999999999998 -2.5 11.999999999999998
    vertex 5.0 -2.5 8.599999999999998
  endloop
endfacet
facet normal 0.0 -1.0 0.0
  outer loop
    vertex 5.539219876433369e-16 -2.5 1.999999999999999
    vertex 3.6143593539448977 -2.5 6.199999999999998
    vertex 1.5421691701433814e-16 -2.5 11.999999999999998
  endloop
endfacet
facet normal 0.0 -1.0 0.0
  outer loop
    vertex 3.6143593539448977 -2.5 6.199999999999998
    vertex 5.539219876433369e-16 -2.5 1.999999999999999
    vertex 3.868629150101523 -2.5 5.868629150101523
  endloop
endfacet
facet normal 0.0 -1.0 0.0
  outer loop
    vertex 3.868629150101523 -2.5 5.868629150101523
    vertex 5.539219876433369e-16 -2.5 1.999999999999999
    vertex 4.199999999999999 -2.5 5.614359353944897
  endloop
endfacet
facet normal 0.0 -1.0 0.0
  outer loop
    vertex 4.199999999999999 -2.5 5.614359353944897
    vertex 5.539219876433369e-16 -2.5 1.999999999999999
    vertex 4.585889527835965 -2.5 5.454518677937489
  endloop
endfacet
facet normal 0.0 -1.0 0.0
  outer loop
    vertex 4.585889527835965 -2.5 5.454518677937489
    vertex 5.539219876433369e-16 -2.5 1.999999999999999
    vertex 5.0 -2.5 5.399999999999998
  endloop
endfacet
facet normal 0.0 -1.0 0.0
  outer loop
    vertex 3.868629150101523 -2.5 5.868629150101523
    vertex 4.199999999999999 -2.5 5.614359353944897
    vertex 4.077433978569698 -2.5 5.708407569997575
  endloop
endfacet
facet normal 0.0 -1.0 0.0
  outer loop
    vertex 1.5421691701433814e-16 -2.5 11.999999999999998
    vertex 3.6143593539448977 -2.5 6.199999999999998
    vertex 3.45451867793749 -2.5 6.585889527835965
  endloop
endfacet
facet normal 0.0 -1.0 0.0
  outer loop
    vertex 1.5421691701433814e-16 -2.5 11.999999999999998
    vertex 3.45451867793749 -2.5 6.585889527835965
    vertex 3.3999999999999995 -2.5 6.999999999999998
  endloop
endfacet
facet normal 0.0 -1.0 0.0
  outer loop
    vertex 1.5421691701433814e-16 -2.5 11.999999999999998
    vertex 3.3999999999999995 -2.5 6.999999999999998
    vertex 3.4545186779374903 -2.5 7.414110472164031
  endloop
endfacet
facet normal 0.0 -1.0 0.0
  outer loop
    vertex 1.5421691701433814e-16 -2.5 11.999999999999998
    vertex 3.4545186779374903 -2.5 7.414110472164031
    vertex 3.6143593539448977 -2.5 7.8
  endloop
endfacet
facet normal 0.0 -1.0 0.0
  outer loop
    vertex 1.5421691701433814e-16 -2.5 11.999999999999998
    vertex 3.6143593539448977 -2.5 7.8
    vertex 3.868629150101524 -2.5 8.131370849898476
  endloop
endfacet
facet normal 0.0 -1.0 0.0
  outer loop
    vertex 1.5421691701433814e-16 -2.5 11.999999999999998
    vertex 3.868629150101524 -2.5 8.131370849898476
    vertex 4.2 -2.5 8.385640646055101
  endloop
endfacet
facet normal 0.0 -1.0 0.0
  outer loop
    vertex 1.5421691701433814e-16 -2.5 11.999999999999998
    vertex 4.2 -2.5 8.385640646055101
    vertex 4.585889527835967 -2.5 8.545481322062509
  endloop
endfacet
facet normal 0.0 -1.0 0.0
  outer loop
    vertex 1.5421691701433814e-16 -2.5 11.999999999999998
    vertex 4.585889527835967 -2.5 8.545481322062509
    vertex 5.0 -2.5 8.599999999999998
  endloop
endfacet
facet normal 0.0 -1.0 0.0
  outer loop
    vertex 1.5421691701433814e-16 -2.5 11.999999999999998
    vertex 5.0 -2.5 8.599999999999998
    vertex 14.999999999999998 -2.5 11.999999999999998
  endloop
endfacet
facet normal -2.349972068789915e-17 0.0 -1.0
  outer loop
    vertex 14.999999999999998 0.0 1.9999999999999984
    vertex 5.539219876433369e-16 -2.5 1.999999999999999
    vertex 5.539219876433369e-16 0.0 1.999999999999999
  endloop
endfacet
facet normal -2.349972068789915e-17 0.0 -1.0
  outer loop
    vertex 5.539219876433369e-16 -2.5 1.999999999999999
    vertex 14.999999999999998 0.0 1.9999999999999984
    vertex 14.999999999999998 -2.5 1.9999999999999984
  endloop
endfacet
facet normal -1.0 -0.0 -3.997050706289989e-17
  outer loop
    vertex 1.5421691701433814e-16 0.0 11.999999999999998
    vertex 5.539219876433369e-16 -2.5 1.999999999999999
    vertex 1.5421691701433814e-16 -2.5 11.999999999999998
  endloop
endfacet
facet normal -1.0 -0.0 -3.997050706289989e-17
  outer loop
    vertex 5.539219876433369e-16 -2.5 1.999999999999999
    vertex 1.5421691701433814e-16 0.0 11.999999999999998
    vertex 5.539219876433369e-16 0.0 1.999999999999999
  endloop
endfacet
facet normal -0.0 -0.0 1.0
  outer loop
    vertex 14.999999999999998 -2.5 11.999999999999998
    vertex 1.5421691701433814e-16 0.0 11.999999999999998
    vertex 1.5421691701433814e-16 -2.5 11.999999999999998
  endloop
endfacet
facet normal -0.0 -0.0 1.0
  outer loop
    vertex 1.5421691701433814e-16 0.0 11.999999999999998
    vertex 14.999999999999998 -2.5 11.999999999999998
    vertex 14.999999999999998 0.0 11.999999999999998
  endloop
endfacet
facet normal 0.6087614290087202 0.0 0.7933533402912356
  outer loop
    vertex 4.077433978569698 -2.5 5.708407569997575
    vertex 3.868629150101523 0.0 5.868629150101523
    vertex 3.868629150101523 -2.5 5.868629150101523
  endloop
endfacet
facet normal 0.6087614290087202 0.0 0.7933533402912356
  outer loop
    vertex 3.868629150101523 0.0 5.868629150101523
    vertex 4.077433978569698 -2.5 5.708407569997575
    vertex 4.077433978569698 0.0 5.708407569997575
  endloop
endfacet
facet normal 0.6087614290087219 0.0 0.7933533402912342
  outer loop
    vertex 4.199999999999999 -2.5 5.614359353944897
    vertex 4.077433978569698 0.0 5.708407569997575
    vertex 4.077433978569698 -2.5 5.708407569997575
  endloop
endfacet
facet normal 0.6087614290087219 0.0 0.7933533402912342
  outer loop
    vertex 4.077433978569698 0.0 5.708407569997575
    vertex 4.199999999999999 -2.5 5.614359353944897
    vertex 4.199999999999999 0.0 5.614359353944897
  endloop
endfacet
facet normal 0.3826834323650916 0.0 0.9238795325112861
  outer loop
    vertex 4.585889527835965 -2.5 5.454518677937489
    vertex 4.199999999999999 0.0 5.614359353944897
    vertex 4.199999999999999 -2.5 5.614359353944897
  endloop
endfacet
facet normal 0.3826834323650916 0.0 0.9238795325112861
  outer loop
    vertex 4.199999999999999 0.0 5.614359353944897
    vertex 4.585889527835965 -2.5 5.454518677937489
    vertex 4.585889527835965 0.0 5.454518677937489
  endloop
endfacet
facet normal 0.13052619222005193 0.0 0.9914448613738104
  outer loop
    vertex 5.0 -2.5 5.399999999999998
    vertex 4.585889527835965 0.0 5.454518677937489
    vertex 4.585889527835965 -2.5 5.454518677937489
  endloop
endfacet
facet normal 0.13052619222005193 0.0 0.9914448613738104
  outer loop
    vertex 4.585889527835965 0.0 5.454518677937489
    vertex 5.0 -2.5 5.399999999999998
    vertex 5.0 0.0 5.399999999999998
  endloop
endfacet
facet normal -0.13052619222005094 0.0 0.9914448613738106
  outer loop
    vertex 5.414110472164032 -2.5 5.454518677937489
    vertex 5.0 0.0 5.399999999999998
    vertex 5.0 -2.5 5.399999999999998
  endloop
endfacet
facet normal -0.13052619222005094 0.0 0.9914448613738106
  outer loop
    vertex 5.0 0.0 5.399999999999998
    vertex 5.414110472164032 -2.5 5.454518677937489
    vertex 5.414110472164032 0.0 5.454518677937489
  endloop
endfacet
facet normal -0.38268343236508967 0.0 0.923879532511287
  outer loop
    vertex 5.799999999999999 -2.5 5.614359353944896
    vertex 5.414110472164032 0.0 5.454518677937489
    vertex 5.414110472164032 -2.5 5.454518677937489
  endloop
endfacet
facet normal -0.38268343236508967 0.0 0.923879532511287
  outer loop
    vertex 5.414110472164032 0.0 5.454518677937489
    vertex 5.799999999999999 -2.5 5.614359353944896
    vertex 5.799999999999999 0.0 5.614359353944896
  endloop
endfacet
facet normal -0.6087614290087201 0.0 0.7933533402912358
  outer loop
    vertex 6.1313708498984765 -2.5 5.868629150101522
    vertex 5.799999999999999 0.0 5.614359353944896
    vertex 5.799999999999999 -2.5 5.614359353944896
  endloop
endfacet
facet normal -0.6087614290087201 0.0 0.7933533402912358
  outer loop
    vertex 5.799999999999999 0.0 5.614359353944896
    vertex 6.1313708498984765 -2.5 5.868629150101522
    vertex 6.1313708498984765 0.0 5.868629150101522
  endloop
endfacet
facet normal -0.7933533402912344 0.0 0.6087614290087217
  outer loop
    vertex 6.385640646055102 0.0 6.1999999999999975
    vertex 6.1313708498984765 -2.5 5.868629150101522
    vertex 6.385640646055102 -2.5 6.1999999999999975
  endloop
endfacet
facet normal -0.7933533402912344 0.0 0.6087614290087217
  outer loop
    vertex 6.1313708498984765 -2.5 5.868629150101522
    vertex 6.385640646055102 0.0 6.1999999999999975
    vertex 6.1313708498984765 0.0 5.868629150101522
  endloop
endfacet
facet normal -0.923879532511287 0.0 0.38268343236508967
  outer loop
    vertex 6.54548132206251 0.0 6.585889527835964
    vertex 6.385640646055102 -2.5 6.1999999999999975
    vertex 6.54548132206251 -2.5 6.585889527835964
  endloop
endfacet
facet normal -0.923879532511287 0.0 0.38268343236508967
  outer loop
    vertex 6.385640646055102 -2.5 6.1999999999999975
    vertex 6.54548132206251 0.0 6.585889527835964
    vertex 6.385640646055102 0.0 6.1999999999999975
  endloop
endfacet
facet normal -0.9914448613738104 0.0 0.13052619222005193
  outer loop
    vertex 6.6000000000000005 0.0 6.999999999999998
    vertex 6.54548132206251 -2.5 6.585889527835964
    vertex 6.6000000000000005 -2.5 6.999999999999998
  endloop
endfacet
facet normal -0.9914448613738104 0.0 0.13052619222005193
  outer loop
    vertex 6.54548132206251 -2.5 6.585889527835964
    vertex 6.6000000000000005 0.0 6.999999999999998
    vertex 6.54548132206251 0.0 6.585889527835964
  endloop
endfacet
facet normal -0.9914448613738104 -0.0 -0.13052619222005238
  outer loop
    vertex 6.54548132206251 0.0 7.414110472164031
    vertex 6.6000000000000005 -2.5 6.999999999999998
    vertex 6.54548132206251 -2.5 7.414110472164031
  endloop
endfacet
facet normal -0.9914448613738104 -0.0 -0.13052619222005238
  outer loop
    vertex 6.6000000000000005 -2.5 6.999999999999998
    vertex 6.54548132206251 0.0 7.414110472164031
    vertex 6.6000000000000005 0.0 6.999999999999998
  endloop
endfacet
facet normal -0.923879532511287 -0.0 -0.38268343236508967
  outer loop
    vertex 6.385640646055102 0.0 7.799999999999998
    vertex 6.54548132206251 -2.5 7.414110472164031
    vertex 6.385640646055102 -2.5 7.799999999999998
  endloop
endfacet
facet normal -0.923879532511287 -0.0 -0.38268343236508967
  outer loop
    vertex 6.54548132206251 -2.5 7.414110472164031
    vertex 6.385640646055102 0.0 7.799999999999998
    vertex 6.54548132206251 0.0 7.414110472164031
  endloop
endfacet
facet normal -0.7933533402912358 -0.0 -0.6087614290087201
  outer loop
    vertex 6.1313708498984765 0.0 8.131370849898476
    vertex 6.385640646055102 -2.5 7.799999999999998
    vertex 6.1313708498984765 -2.5 8.131370849898476
  endloop
endfacet
facet normal -0.7933533402912358 -0.0 -0.6087614290087201
  outer loop
    vertex 6.385640646055102 -2.5 7.799999999999998
    vertex 6.1313708498984765 0.0 8.131370849898476
    vertex 6.385640646055102 0.0 7.799999999999998
  endloop
endfacet
facet normal -0.6087614290087182 -0.0 -0.7933533402912372
  outer loop
    vertex 6.1313708498984765 0.0 8.131370849898476
    vertex 5.922566021430302 -2.5 8.291592430002423
    vertex 5.922566021430302 0.0 8.291592430002423
  endloop
endfacet
facet normal -0.6087614290087182 -0.0 -0.7933533402912372
  outer loop
    vertex 5.922566021430302 -2.5 8.291592430002423
    vertex 6.1313708498984765 0.0 8.131370849898476
    vertex 6.1313708498984765 -2.5 8.131370849898476
  endloop
endfacet
facet normal -0.6087614290087219 -0.0 -0.7933533402912342
  outer loop
    vertex 5.922566021430302 0.0 8.291592430002423
    vertex 5.800000000000001 -2.5 8.3856406460551
    vertex 5.800000000000001 0.0 8.3856406460551
  endloop
endfacet
facet normal -0.6087614290087219 -0.0 -0.7933533402912342
  outer loop
    vertex 5.800000000000001 -2.5 8.3856406460551
    vertex 5.922566021430302 0.0 8.291592430002423
    vertex 5.922566021430302 -2.5 8.291592430002423
  endloop
endfacet
facet normal -0.38268343236509245 -0.0 -0.9238795325112856
  outer loop
    vertex 5.800000000000001 0.0 8.3856406460551
    vertex 5.414110472164034 -2.5 8.545481322062509
    vertex 5.414110472164034 0.0 8.545481322062509
  endloop
endfacet
facet normal -0.38268343236509245 -0.0 -0.9238795325112856
  outer loop
    vertex 5.414110472164034 -2.5 8.545481322062509
    vertex 5.800000000000001 0.0 8.3856406460551
    vertex 5.800000000000001 -2.5 8.3856406460551
  endloop
endfacet
facet normal -0.13052619222004883 -0.0 -0.9914448613738108
  outer loop
    vertex 5.414110472164034 0.0 8.545481322062509
    vertex 5.0 -2.5 8.599999999999998
    vertex 5.0 0.0 8.599999999999998
  endloop
endfacet
facet normal -0.13052619222004883 -0.0 -0.9914448613738108
  outer loop
    vertex 5.0 -2.5 8.599999999999998
    vertex 5.414110472164034 0.0 8.545481322062509
    vertex 5.414110472164034 -2.5 8.545481322062509
  endloop
endfacet
facet normal 0.13052619222004908 0.0 -0.9914448613738108
  outer loop
    vertex 5.0 0.0 8.599999999999998
    vertex 4.585889527835967 -2.5 8.545481322062509
    vertex 4.585889527835967 0.0 8.545481322062509
  endloop
endfacet
facet normal 0.13052619222004908 0.0 -0.9914448613738108
  outer loop
    vertex 4.585889527835967 -2.5 8.545481322062509
    vertex 5.0 0.0 8.599999999999998
    vertex 5.0 -2.5 8.599999999999998
  endloop
endfacet
facet normal 0.38268343236508967 0.0 -0.923879532511287
  outer loop
    vertex 4.585889527835967 0.0 8.545481322062509
    vertex 4.2 -2.5 8.385640646055101
    vertex 4.2 0.0 8.385640646055101
  endloop
endfacet
facet normal 0.38268343236508967 0.0 -0.923879532511287
  outer loop
    vertex 4.2 -2.5 8.385640646055101
    vertex 4.585889527835967 0.0 8.545481322062509
    vertex 4.585889527835967 -2.5 8.545481322062509
  endloop
endfacet
facet normal 0.6087614290087209 0.0 -0.7933533402912352
  outer loop
    vertex 4.2 0.0 8.385640646055101
    vertex 3.868629150101524 -2.5 8.131370849898476
    vertex 3.868629150101524 0.0 8.131370849898476
  endloop
endfacet
facet normal 0.6087614290087209 0.0 -0.7933533402912352
  outer loop
    vertex 3.868629150101524 -2.5 8.131370849898476
    vertex 4.2 0.0 8.385640646055101
    vertex 4.2 -2.5 8.385640646055101
  endloop
endfacet
facet normal 0.7933533402912344 0.0 -0.6087614290087217
  outer loop
    vertex 3.6143593539448977 0.0 7.8
    vertex 3.868629150101524 -2.5 8.131370849898476
    vertex 3.6143593539448977 -2.5 7.8
  endloop
endfacet
facet normal 0.7933533402912344 0.0 -0.6087614290087217
  outer loop
    vertex 3.868629150101524 -2.5 8.131370849898476
    vertex 3.6143593539448977 0.0 7.8
    vertex 3.868629150101524 0.0 8.131370849898476
  endloop
endfacet
facet normal 0.9238795325112875 0.0 -0.3826834323650885
  outer loop
    vertex 3.4545186779374903 0.0 7.414110472164031
    vertex 3.6143593539448977 -2.5 7.8
    vertex 3.4545186779374903 -2.5 7.414110472164031
  endloop
endfacet
facet normal 0.9238795325112875 0.0 -0.3826834323650885
  outer loop
    vertex 3.6143593539448977 -2.5 7.8
    vertex 3.4545186779374903 0.0 7.414110472164031
    vertex 3.6143593539448977 0.0 7.8
  endloop
endfacet
facet normal 0.9914448613738104 0.0 -0.13052619222005238
  outer loop
    vertex 3.3999999999999995 0.0 6.999999999999998
    vertex 3.4545186779374903 -2.5 7.414110472164031
    vertex 3.3999999999999995 -2.5 6.999999999999998
  endloop
endfacet
facet normal 0.9914448613738104 0.0 -0.13052619222005238
  outer loop
    vertex 3.4545186779374903 -2.5 7.414110472164031
    vertex 3.3999999999999995 0.0 6.999999999999998
    vertex 3.4545186779374903 0.0 7.414110472164031
  endloop
endfacet
facet normal 0.9914448613738106 0.0 0.1305261922200507
  outer loop
    vertex 3.45451867793749 0.0 6.585889527835965
    vertex 3.3999999999999995 -2.5 6.999999999999998
    vertex 3.45451867793749 -2.5 6.585889527835965
  endloop
endfacet
facet normal 0.9914448613738106 0.0 0.1305261922200507
  outer loop
    vertex 3.3999999999999995 -2.5 6.999999999999998
    vertex 3.45451867793749 0.0 6.585889527835965
    vertex 3.3999999999999995 0.0 6.999999999999998
  endloop
endfacet
facet normal 0.9238795325112863 0.0 0.38268343236509106
  outer loop
    vertex 3.6143593539448977 0.0 6.199999999999998
    vertex 3.45451867793749 -2.5 6.585889527835965
    vertex 3.6143593539448977 -2.5 6.199999999999998
  endloop
endfacet
facet normal 0.9238795325112863 0.0 0.38268343236509106
  outer loop
    vertex 3.45451867793749 -2.5 6.585889527835965
    vertex 3.6143593539448977 0.0 6.199999999999998
    vertex 3.45451867793749 0.0 6.585889527835965
  endloop
endfacet
facet normal 0.7933533402912354 0.0 0.6087614290087207
  outer loop
    vertex 3.868629150101523 0.0 5.868629150101523
    vertex 3.6143593539448977 -2.5 6.199999999999998
    vertex 3.868629150101523 -2.5 5.868629150101523
  endloop
endfacet
facet normal 0.7933533402912354 0.0 0.6087614290087207
  outer loop
    vertex 3.6143593539448977 -2.5 6.199999999999998
    vertex 3.868629150101523 0.0 5.868629150101523
    vertex 3.6143593539448977 0.0 6.199999999999998
  endloop
endfacet
facet normal -0.7071067811865476 -0.7071067811865476 7.028827871433279e-33
  outer loop
    vertex 14.999999999999998 0.0 11.999999999999998
    vertex 8.494617613083763 6.5053823869162395 8.3856406460551
    vertex 14.999999999999998 0.0 1.9999999999999984
  endloop
endfacet
facet normal -0.7071067811865476 -0.7071067811865476 7.028827871433279e-33
  outer loop
    vertex 8.494617613083763 6.5053823869162395 8.3856406460551
    vertex 14.999999999999998 0.0 11.999999999999998
    vertex 4.393398282201785 10.606601717798213 11.999999999999998
  endloop
endfacet
facet normal -0.7071067811865476 -0.7071067811865476 7.028827871433279e-33
  outer loop
    vertex 14.999999999999998 0.0 1.9999999999999984
    vertex 8.494617613083763 6.5053823869162395 8.3856406460551
    vertex 8.728932188134525 6.2710678118654775 8.131370849898474
  endloop
endfacet
facet normal -0.7071067811865476 -0.7071067811865476 7.028827871433279e-33
  outer loop
    vertex 14.999999999999998 0.0 1.9999999999999984
    vertex 8.728932188134525 6.2710678118654775 8.131370849898474
    vertex 8.908728085247796 6.091271914752206 7.799999999999998
  endloop
endfacet
facet normal -0.7071067811865476 -0.7071067811865476 7.028827871433279e-33
  outer loop
    vertex 14.999999999999998 0.0 1.9999999999999984
    vertex 8.908728085247796 6.091271914752206 7.799999999999998
    vertex 9.021752511162076 5.978247488837926 7.414110472164031
  endloop
endfacet
facet normal -0.7071067811865476 -0.7071067811865476 7.028827871433279e-33
  outer loop
    vertex 14.999999999999998 0.0 1.9999999999999984
    vertex 9.021752511162076 5.978247488837926 7.414110472164031
    vertex 9.060303038033 5.939696961967001 6.999999999999998
  endloop
endfacet
facet normal -0.7071067811865476 -0.7071067811865476 7.028827871433279e-33
  outer loop
    vertex 8.494617613083763 6.5053823869162395 8.3856406460551
    vertex 4.393398282201785 10.606601717798213 11.999999999999998
    vertex 8.221752511162077 6.778247488837926 8.545481322062507
  endloop
endfacet
facet normal -0.7071067811865476 -0.7071067811865476 7.028827871433279e-33
  outer loop
    vertex 8.221752511162077 6.778247488837926 8.545481322062507
    vertex 4.393398282201785 10.606601717798213 11.999999999999998
    vertex 7.9289321881345245 7.071067811865476 8.599999999999998
  endloop
endfacet
facet normal -0.7071067811865476 -0.7071067811865476 7.028827871433279e-33
  outer loop
    vertex 7.9289321881345245 7.071067811865476 8.599999999999998
    vertex 4.393398282201785 10.606601717798213 11.999999999999998
    vertex 7.636111865106973 7.363888134893028 8.545481322062509
  endloop
endfacet
facet normal -0.7071067811865476 -0.7071067811865476 7.028827871433279e-33
  outer loop
    vertex 7.636111865106973 7.363888134893028 8.545481322062509
    vertex 4.393398282201785 10.606601717798213 11.999999999999998
    vertex 7.363246763185287 7.636753236814713 8.3856406460551
  endloop
endfacet
facet normal -0.7071067811865476 -0.7071067811865476 7.028827871433279e-33
  outer loop
    vertex 7.363246763185287 7.636753236814713 8.3856406460551
    vertex 4.393398282201785 10.606601717798213 11.999999999999998
    vertex 7.128932188134524 7.871067811865476 8.131370849898474
  endloop
endfacet
facet normal -0.7071067811865476 -0.7071067811865476 7.028827871433279e-33
  outer loop
    vertex 7.128932188134524 7.871067811865476 8.131370849898474
    vertex 4.393398282201785 10.606601717798213 11.999999999999998
    vertex 6.949136291021253 8.050863708978747 7.799999999999998
  endloop
endfacet
facet normal -0.7071067811865476 -0.7071067811865476 7.028827871433279e-33
  outer loop
    vertex 6.949136291021253 8.050863708978747 7.799999999999998
    vertex 4.393398282201785 10.606601717798213 11.999999999999998
    vertex 6.836111865106972 8.163888134893027 7.414110472164033
  endloop
endfacet
facet normal -0.7071067811865476 -0.7071067811865476 7.028827871433279e-33
  outer loop
    vertex 6.836111865106972 8.163888134893027 7.414110472164033
    vertex 4.393398282201785 10.606601717798213 11.999999999999998
    vertex 6.797561338236046 8.202438661763951 6.999999999999998
  endloop
endfacet
facet normal -0.7071067811865476 -0.7071067811865476 7.028827871433279e-33
  outer loop
    vertex 14.999999999999998 0.0 1.9999999999999984
    vertex 8.494617613083761 6.505382386916239 5.614359353944897
    vertex 4.393398282201785 10.606601717798213 1.9999999999999984
  endloop
endfacet
facet normal -0.7071067811865476 -0.7071067811865476 7.028827871433279e-33
  outer loop
    vertex 8.494617613083761 6.505382386916239 5.614359353944897
    vertex 14.999999999999998 0.0 1.9999999999999984
    vertex 8.728932188134523 6.271067811865476 5.868629150101523
  endloop
endfacet
facet normal -0.7071067811865476 -0.7071067811865476 7.028827871433279e-33
  outer loop
    vertex 8.728932188134523 6.271067811865476 5.868629150101523
    vertex 14.999999999999998 0.0 1.9999999999999984
    vertex 8.908728085247795 6.0912719147522045 6.199999999999998
  endloop
endfacet
facet normal -0.7071067811865476 -0.7071067811865476 7.028827871433279e-33
  outer loop
    vertex 8.908728085247795 6.0912719147522045 6.199999999999998
    vertex 14.999999999999998 0.0 1.9999999999999984
    vertex 9.021752511162076 5.978247488837926 6.585889527835965
  endloop
endfacet
facet normal -0.7071067811865476 -0.7071067811865476 7.028827871433279e-33
  outer loop
    vertex 9.021752511162076 5.978247488837926 6.585889527835965
    vertex 14.999999999999998 0.0 1.9999999999999984
    vertex 9.060303038033 5.939696961967001 6.999999999999998
  endloop
endfacet
facet normal -0.7071067811865476 -0.7071067811865476 7.028827871433279e-33
  outer loop
    vertex 4.393398282201785 10.606601717798213 1.9999999999999984
    vertex 8.494617613083761 6.505382386916239 5.614359353944897
    vertex 8.221752511162073 6.778247488837924 5.454518677937489
  endloop
endfacet
facet normal -0.7071067811865476 -0.7071067811865476 7.028827871433279e-33
  outer loop
    vertex 4.393398282201785 10.606601717798213 1.9999999999999984
    vertex 8.221752511162073 6.778247488837924 5.454518677937489
    vertex 7.928932188134522 7.071067811865475 5.399999999999999
  endloop
endfacet
facet normal -0.7071067811865476 -0.7071067811865476 7.028827871433279e-33
  outer loop
    vertex 4.393398282201785 10.606601717798213 1.9999999999999984
    vertex 7.928932188134522 7.071067811865475 5.399999999999999
    vertex 7.636111865106971 7.363888134893026 5.4545186779374895
  endloop
endfacet
facet normal -0.7071067811865476 -0.7071067811865476 7.028827871433279e-33
  outer loop
    vertex 4.393398282201785 10.606601717798213 1.9999999999999984
    vertex 7.636111865106971 7.363888134893026 5.4545186779374895
    vertex 7.363246763185284 7.636753236814712 5.614359353944897
  endloop
endfacet
facet normal -0.7071067811865476 -0.7071067811865476 7.028827871433279e-33
  outer loop
    vertex 4.393398282201785 10.606601717798213 1.9999999999999984
    vertex 7.363246763185284 7.636753236814712 5.614359353944897
    vertex 7.128932188134522 7.871067811865474 5.868629150101523
  endloop
endfacet
facet normal -0.7071067811865476 -0.7071067811865476 7.028827871433279e-33
  outer loop
    vertex 4.393398282201785 10.606601717798213 1.9999999999999984
    vertex 7.128932188134522 7.871067811865474 5.868629150101523
    vertex 6.949136291021251 8.050863708978746 6.199999999999999
  endloop
endfacet
facet normal -0.7071067811865476 -0.7071067811865476 7.028827871433279e-33
  outer loop
    vertex 4.393398282201785 10.606601717798213 1.9999999999999984
    vertex 6.949136291021251 8.050863708978746 6.199999999999999
    vertex 6.836111865106971 8.163888134893027 6.585889527835967
  endloop
endfacet
facet normal -0.7071067811865476 -0.7071067811865476 7.028827871433279e-33
  outer loop
    vertex 4.393398282201785 10.606601717798213 1.9999999999999984
    vertex 6.836111865106971 8.163888134893027 6.585889527835967
    vertex 6.797561338236046 8.202438661763951 6.999999999999998
  endloop
endfacet
facet normal -0.7071067811865476 -0.7071067811865476 7.028827871433279e-33
  outer loop
    vertex 4.393398282201785 10.606601717798213 1.9999999999999984
    vertex 6.797561338236046 8.202438661763951 6.999999999999998
    vertex 4.393398282201785 10.606601717798213 11.999999999999998
  endloop
endfacet
facet normal 0.7071067811865476 0.7071067811865476 -3.1655026582638264e-17
  outer loop
    vertex 16.76776695296637 1.7677669529663682 1.9999999999999978
    vertex 10.26238456605013 8.273149339882606 5.614359353944896
    vertex 16.76776695296637 1.7677669529663682 11.999999999999998
  endloop
endfacet
facet normal 0.7071067811865476 0.7071067811865476 -3.1655026582638264e-17
  outer loop
    vertex 10.26238456605013 8.273149339882606 5.614359353944896
    vertex 16.76776695296637 1.7677669529663682 1.9999999999999978
    vertex 6.161165235168155 12.374368670764582 1.9999999999999978
  endloop
endfacet
facet normal 0.7071067811865476 0.7071067811865476 -3.1655026582638264e-17
  outer loop
    vertex 16.76776695296637 1.7677669529663682 11.999999999999998
    vertex 10.26238456605013 8.273149339882606 5.614359353944896
    vertex 10.496699141100892 8.038834764831845 5.868629150101523
  endloop
endfacet
facet normal 0.7071067811865476 0.7071067811865476 -3.1655026582638264e-17
  outer loop
    vertex 16.76776695296637 1.7677669529663682 11.999999999999998
    vertex 10.496699141100892 8.038834764831845 5.868629150101523
    vertex 10.676495038214163 7.859038867718574 6.1999999999999975
  endloop
endfacet
facet normal 0.7071067811865476 0.7071067811865476 -3.1655026582638264e-17
  outer loop
    vertex 16.76776695296637 1.7677669529663682 11.999999999999998
    vertex 10.676495038214163 7.859038867718574 6.1999999999999975
    vertex 10.789519464128444 7.746014441804293 6.585889527835965
  endloop
endfacet
facet normal 0.7071067811865476 0.7071067811865476 -3.1655026582638264e-17
  outer loop
    vertex 16.76776695296637 1.7677669529663682 11.999999999999998
    vertex 10.789519464128444 7.746014441804293 6.585889527835965
    vertex 10.828069990999369 7.707463914933368 6.999999999999998
  endloop
endfacet
facet normal 0.7071067811865476 0.7071067811865476 -3.1655026582638264e-17
  outer loop
    vertex 10.26238456605013 8.273149339882606 5.614359353944896
    vertex 6.161165235168155 12.374368670764582 1.9999999999999978
    vertex 9.989519464128442 8.546014441804292 5.454518677937489
  endloop
endfacet
facet normal 0.7071067811865476 0.7071067811865476 -3.1655026582638264e-17
  outer loop
    vertex 9.989519464128442 8.546014441804292 5.454518677937489
    vertex 6.161165235168155 12.374368670764582 1.9999999999999978
    vertex 9.696699141100892 8.838834764831844 5.399999999999998
  endloop
endfacet
facet normal 0.7071067811865476 0.7071067811865476 -3.1655026582638264e-17
  outer loop
    vertex 9.696699141100892 8.838834764831844 5.399999999999998
    vertex 6.161165235168155 12.374368670764582 1.9999999999999978
    vertex 9.40387881807334 9.131655087859395 5.454518677937489
  endloop
endfacet
facet normal 0.7071067811865476 0.7071067811865476 -3.1655026582638264e-17
  outer loop
    vertex 9.40387881807334 9.131655087859395 5.454518677937489
    vertex 6.161165235168155 12.374368670764582 1.9999999999999978
    vertex 9.131013716151653 9.404520189781081 5.614359353944896
  endloop
endfacet
facet normal 0.7071067811865476 0.7071067811865476 -3.1655026582638264e-17
  outer loop
    vertex 9.131013716151653 9.404520189781081 5.614359353944896
    vertex 6.161165235168155 12.374368670764582 1.9999999999999978
    vertex 8.89669914110089 9.638834764831842 5.868629150101522
  endloop
endfacet
facet normal 0.7071067811865476 0.7071067811865476 -3.1655026582638264e-17
  outer loop
    vertex 8.89669914110089 9.638834764831842 5.868629150101522
    vertex 6.161165235168155 12.374368670764582 1.9999999999999978
    vertex 8.71690324398762 9.818630661945113 6.199999999999998
  endloop
endfacet
facet normal 0.7071067811865476 0.7071067811865476 -3.1655026582638264e-17
  outer loop
    vertex 8.71690324398762 9.818630661945113 6.199999999999998
    vertex 6.161165235168155 12.374368670764582 1.9999999999999978
    vertex 8.603878818073339 9.931655087859394 6.585889527835967
  endloop
endfacet
facet normal 0.7071067811865476 0.7071067811865476 -3.1655026582638264e-17
  outer loop
    vertex 8.603878818073339 9.931655087859394 6.585889527835967
    vertex 6.161165235168155 12.374368670764582 1.9999999999999978
    vertex 8.565328291202416 9.970205614730318 6.999999999999998
  endloop
endfacet
facet normal 0.7071067811865476 0.7071067811865476 -3.1655026582638264e-17
  outer loop
    vertex 16.76776695296637 1.7677669529663682 11.999999999999998
    vertex 10.262384566050132 8.27314933988261 8.3856406460551
    vertex 6.161165235168155 12.374368670764582 11.999999999999998
  endloop
endfacet
facet normal 0.7071067811865476 0.7071067811865476 -3.1655026582638264e-17
  outer loop
    vertex 10.262384566050132 8.27314933988261 8.3856406460551
    vertex 16.76776695296637 1.7677669529663682 11.999999999999998
    vertex 10.496699141100894 8.038834764831845 8.131370849898474
  endloop
endfacet
facet normal 0.7071067811865476 0.7071067811865476 -3.1655026582638264e-17
  outer loop
    vertex 10.496699141100894 8.038834764831845 8.131370849898474
    vertex 16.76776695296637 1.7677669529663682 11.999999999999998
    vertex 10.676495038214165 7.859038867718574 7.799999999999998
  endloop
endfacet
facet normal 0.7071067811865476 0.7071067811865476 -3.1655026582638264e-17
  outer loop
    vertex 10.676495038214165 7.859038867718574 7.799999999999998
    vertex 16.76776695296637 1.7677669529663682 11.999999999999998
    vertex 10.789519464128444 7.746014441804293 7.414110472164031
  endloop
endfacet
facet normal 0.7071067811865476 0.7071067811865476 -3.1655026582638264e-17
  outer loop
    vertex 10.789519464128444 7.746014441804293 7.414110472164031
    vertex 16.76776695296637 1.7677669529663682 11.999999999999998
    vertex 10.828069990999369 7.707463914933368 6.999999999999998
  endloop
endfacet
facet normal 0.7071067811865476 0.7071067811865476 -3.1655026582638264e-17
  outer loop
    vertex 6.161165235168155 12.374368670764582 11.999999999999998
    vertex 10.262384566050132 8.27314933988261 8.3856406460551
    vertex 9.989519464128445 8.546014441804294 8.545481322062507
  endloop
endfacet
facet normal 0.7071067811865476 0.7071067811865476 -3.1655026582638264e-17
  outer loop
    vertex 6.161165235168155 12.374368670764582 11.999999999999998
    vertex 9.989519464128445 8.546014441804294 8.545481322062507
    vertex 9.696699141100893 8.838834764831844 8.599999999999998
  endloop
endfacet
facet normal 0.7071067811865476 0.7071067811865476 -3.1655026582638264e-17
  outer loop
    vertex 6.161165235168155 12.374368670764582 11.999999999999998
    vertex 9.696699141100893 8.838834764831844 8.599999999999998
    vertex 9.403878818073343 9.131655087859395 8.545481322062509
  endloop
endfacet
facet normal 0.7071067811865476 0.7071067811865476 -3.1655026582638264e-17
  outer loop
    vertex 6.161165235168155 12.374368670764582 11.999999999999998
    vertex 9.403878818073343 9.131655087859395 8.545481322062509
    vertex 9.131013716151656 9.404520189781081 8.3856406460551
  endloop
endfacet
facet normal 0.7071067811865476 0.7071067811865476 -3.1655026582638264e-17
  outer loop
    vertex 6.161165235168155 12.374368670764582 11.999999999999998
    vertex 9.131013716151656 9.404520189781081 8.3856406460551
    vertex 8.896699141100893 9.638834764831845 8.131370849898474
  endloop
endfacet
facet normal 0.7071067811865476 0.7071067811865476 -3.1655026582638264e-17
  outer loop
    vertex 6.161165235168155 12.374368670764582 11.999999999999998
    vertex 8.896699141100893 9.638834764831845 8.131370849898474
    vertex 8.716903243987622 9.818630661945116 7.799999999999998
  endloop
endfacet
facet normal 0.7071067811865476 0.7071067811865476 -3.1655026582638264e-17
  outer loop
    vertex 6.161165235168155 12.374368670764582 11.999999999999998
    vertex 8.716903243987622 9.818630661945116 7.799999999999998
    vertex 8.60387881807334 9.931655087859394 7.414110472164033
  endloop
endfacet
facet normal 0.7071067811865476 0.7071067811865476 -3.1655026582638264e-17
  outer loop
    vertex 6.161165235168155 12.374368670764582 11.999999999999998
    vertex 8.60387881807334 9.931655087859394 7.414110472164033
    vertex 8.565328291202416 9.970205614730318 6.999999999999998
  endloop
endfacet
facet normal 0.7071067811865476 0.7071067811865476 -3.1655026582638264e-17
  outer loop
    vertex 6.161165235168155 12.374368670764582 11.999999999999998
    vertex 8.565328291202416 9.970205614730318 6.999999999999998
    vertex 6.161165235168155 12.374368670764582 1.9999999999999978
  endloop
endfacet
facet normal -1.9940174225283968e-16 -1.9940174225283968e-16 -1.0
  outer loop
    vertex 6.161165235168155 12.374368670764582 1.9999999999999978
    vertex 14.999999999999998 0.0 1.9999999999999984
    vertex 4.393398282201785 10.606601717798213 1.9999999999999984
  endloop
endfacet
facet normal -1.9940174225283968e-16 -1.9940174225283968e-16 -1.0
  outer loop
    vertex 14.999999999999998 0.0 1.9999999999999984
    vertex 6.161165235168155 12.374368670764582 1.9999999999999978
    vertex 16.76776695296637 1.7677669529663682 1.9999999999999978
  endloop
endfacet
facet normal -0.7071067811865474 0.7071067811865477 0.0
  outer loop
    vertex 4.393398282201785 10.606601717798213 1.9999999999999984
    vertex 6.161165235168155 12.374368670764582 11.999999999999998
    vertex 6.161165235168155 12.374368670764582 1.9999999999999978
  endloop
endfacet
facet normal -0.7071067811865474 0.7071067811865477 0.0
  outer loop
    vertex 6.161165235168155 12.374368670764582 11.999999999999998
    vertex 4.393398282201785 10.606601717798213 1.9999999999999984
    vertex 4.393398282201785 10.606601717798213 11.999999999999998
  endloop
endfacet
facet normal -0.0 -0.0 1.0
  outer loop
    vertex 14.999999999999998 0.0 11.999999999999998
    vertex 6.161165235168155 12.374368670764582 11.999999999999998
    vertex 4.393398282201785 10.606601717798213 11.999999999999998
  endloop
endfacet
facet normal -0.0 -0.0 1.0
  outer loop
    vertex 6.161165235168155 12.374368670764582 11.999999999999998
    vertex 14.999999999999998 0.0 11.999999999999998
    vertex 16.76776695296637 1.7677669529663682 11.999999999999998
  endloop
endfacet
facet normal 0.5609855267969317 -0.5609855267969318 0.6087614290087194
  outer loop
    vertex 7.128932188134522 7.871067811865474 5.868629150101523
    vertex 8.71690324398762 9.818630661945113 6.199999999999998
    vertex 6.949136291021251 8.050863708978746 6.199999999999999
  endloop
endfacet
facet normal 0.5609855267969317 -0.5609855267969318 0.6087614290087194
  outer loop
    vertex 8.71690324398762 9.818630661945113 6.199999999999998
    vertex 7.128932188134522 7.871067811865474 5.868629150101523
    vertex 8.89669914110089 9.638834764831842 5.868629150101522
  endloop
endfacet
facet normal 0.4304593345768787 -0.4304593345768786 0.7933533402912358
  outer loop
    vertex 7.363246763185284 7.636753236814712 5.614359353944897
    vertex 8.89669914110089 9.638834764831842 5.868629150101522
    vertex 7.128932188134522 7.871067811865474 5.868629150101523
  endloop
endfacet
facet normal 0.4304593345768787 -0.4304593345768786 0.7933533402912358
  outer loop
    vertex 8.89669914110089 9.638834764831842 5.868629150101522
    vertex 7.363246763185284 7.636753236814712 5.614359353944897
    vertex 9.131013716151653 9.404520189781081 5.614359353944896
  endloop
endfacet
facet normal 0.27059805007309906 -0.2705980500730989 0.9238795325112865
  outer loop
    vertex 7.636111865106971 7.363888134893026 5.4545186779374895
    vertex 9.131013716151653 9.404520189781081 5.614359353944896
    vertex 7.363246763185284 7.636753236814712 5.614359353944897
  endloop
endfacet
facet normal 0.27059805007309906 -0.2705980500730989 0.9238795325112865
  outer loop
    vertex 9.131013716151653 9.404520189781081 5.614359353944896
    vertex 7.636111865106971 7.363888134893026 5.4545186779374895
    vertex 9.40387881807334 9.131655087859395 5.454518677937489
  endloop
endfacet
facet normal 0.0922959556412578 -0.09229595564125753 0.9914448613738105
  outer loop
    vertex 7.928932188134522 7.071067811865475 5.399999999999999
    vertex 9.40387881807334 9.131655087859395 5.454518677937489
    vertex 7.636111865106971 7.363888134893026 5.4545186779374895
  endloop
endfacet
facet normal 0.0922959556412578 -0.09229595564125753 0.9914448613738105
  outer loop
    vertex 9.40387881807334 9.131655087859395 5.454518677937489
    vertex 7.928932188134522 7.071067811865475 5.399999999999999
    vertex 9.696699141100892 8.838834764831844 5.399999999999998
  endloop
endfacet
facet normal -0.09229595564125652 0.09229595564125687 0.9914448613738105
  outer loop
    vertex 8.221752511162073 6.778247488837924 5.454518677937489
    vertex 9.696699141100892 8.838834764831844 5.399999999999998
    vertex 7.928932188134522 7.071067811865475 5.399999999999999
  endloop
endfacet
facet normal -0.09229595564125652 0.09229595564125687 0.9914448613738105
  outer loop
    vertex 9.696699141100892 8.838834764831844 5.399999999999998
    vertex 8.221752511162073 6.778247488837924 5.454518677937489
    vertex 9.989519464128442 8.546014441804292 5.454518677937489
  endloop
endfacet
facet normal -0.2705980500730992 0.27059805007309967 0.9238795325112863
  outer loop
    vertex 8.494617613083761 6.505382386916239 5.614359353944897
    vertex 9.989519464128442 8.546014441804292 5.454518677937489
    vertex 8.221752511162073 6.778247488837924 5.454518677937489
  endloop
endfacet
facet normal -0.2705980500730992 0.27059805007309967 0.9238795325112863
  outer loop
    vertex 9.989519464128442 8.546014441804292 5.454518677937489
    vertex 8.494617613083761 6.505382386916239 5.614359353944897
    vertex 10.26238456605013 8.273149339882606 5.614359353944896
  endloop
endfacet
facet normal -0.4304593345768793 0.4304593345768797 0.7933533402912352
  outer loop
    vertex 8.728932188134523 6.271067811865476 5.868629150101523
    vertex 10.26238456605013 8.273149339882606 5.614359353944896
    vertex 8.494617613083761 6.505382386916239 5.614359353944897
  endloop
endfacet
facet normal -0.4304593345768793 0.4304593345768797 0.7933533402912352
  outer loop
    vertex 10.26238456605013 8.273149339882606 5.614359353944896
    vertex 8.728932188134523 6.271067811865476 5.868629150101523
    vertex 10.496699141100892 8.038834764831845 5.868629150101523
  endloop
endfacet
facet normal -0.5609855267969306 0.560985526796931 0.608761429008721
  outer loop
    vertex 8.908728085247795 6.0912719147522045 6.199999999999998
    vertex 10.496699141100892 8.038834764831845 5.868629150101523
    vertex 8.728932188134523 6.271067811865476 5.868629150101523
  endloop
endfacet
facet normal -0.5609855267969306 0.560985526796931 0.608761429008721
  outer loop
    vertex 10.496699141100892 8.038834764831845 5.868629150101523
    vertex 8.908728085247795 6.0912719147522045 6.199999999999998
    vertex 10.676495038214163 7.859038867718574 6.1999999999999975
  endloop
endfacet
facet normal -0.653281482438188 0.6532814824381885 0.38268343236509
  outer loop
    vertex 8.908728085247795 6.0912719147522045 6.199999999999998
    vertex 10.789519464128444 7.746014441804293 6.585889527835965
    vertex 10.676495038214163 7.859038867718574 6.1999999999999975
  endloop
endfacet
facet normal -0.653281482438188 0.6532814824381885 0.38268343236509
  outer loop
    vertex 10.789519464128444 7.746014441804293 6.585889527835965
    vertex 8.908728085247795 6.0912719147522045 6.199999999999998
    vertex 9.021752511162076 5.978247488837926 6.585889527835965
  endloop
endfacet
facet normal -0.7010573846499777 0.701057384649978 0.13052619222005263
  outer loop
    vertex 9.060303038033 5.939696961967001 6.999999999999998
    vertex 10.789519464128444 7.746014441804293 6.585889527835965
    vertex 9.021752511162076 5.978247488837926 6.585889527835965
  endloop
endfacet
facet normal -0.7010573846499777 0.701057384649978 0.13052619222005263
  outer loop
    vertex 10.789519464128444 7.746014441804293 6.585889527835965
    vertex 9.060303038033 5.939696961967001 6.999999999999998
    vertex 10.828069990999369 7.707463914933368 6.999999999999998
  endloop
endfacet
facet normal -0.7010573846499779 0.7010573846499782 -0.13052619222005024
  outer loop
    vertex 9.021752511162076 5.978247488837926 7.414110472164031
    vertex 10.828069990999369 7.707463914933368 6.999999999999998
    vertex 9.060303038033 5.939696961967001 6.999999999999998
  endloop
endfacet
facet normal -0.7010573846499779 0.7010573846499782 -0.13052619222005024
  outer loop
    vertex 10.828069990999369 7.707463914933368 6.999999999999998
    vertex 9.021752511162076 5.978247488837926 7.414110472164031
    vertex 10.789519464128444 7.746014441804293 7.414110472164031
  endloop
endfacet
facet normal -0.6532814824381877 0.6532814824381877 -0.382683432365092
  outer loop
    vertex 8.908728085247796 6.091271914752206 7.799999999999998
    vertex 10.789519464128444 7.746014441804293 7.414110472164031
    vertex 9.021752511162076 5.978247488837926 7.414110472164031
  endloop
endfacet
facet normal -0.6532814824381877 0.6532814824381877 -0.382683432365092
  outer loop
    vertex 10.789519464128444 7.746014441804293 7.414110472164031
    vertex 8.908728085247796 6.091271914752206 7.799999999999998
    vertex 10.676495038214165 7.859038867718574 7.799999999999998
  endloop
endfacet
facet normal -0.5609855267969308 0.5609855267969309 -0.608761429008721
  outer loop
    vertex 10.496699141100894 8.038834764831845 8.131370849898474
    vertex 8.908728085247796 6.091271914752206 7.799999999999998
    vertex 8.728932188134525 6.2710678118654775 8.131370849898474
  endloop
endfacet
facet normal -0.5609855267969308 0.5609855267969309 -0.608761429008721
  outer loop
    vertex 8.908728085247796 6.091271914752206 7.799999999999998
    vertex 10.496699141100894 8.038834764831845 8.131370849898474
    vertex 10.676495038214165 7.859038867718574 7.799999999999998
  endloop
endfacet
facet normal -0.4304593345768795 0.4304593345768795 -0.7933533402912352
  outer loop
    vertex 10.262384566050132 8.27314933988261 8.3856406460551
    vertex 8.728932188134525 6.2710678118654775 8.131370849898474
    vertex 8.494617613083763 6.5053823869162395 8.3856406460551
  endloop
endfacet
facet normal -0.4304593345768795 0.4304593345768795 -0.7933533402912352
  outer loop
    vertex 8.728932188134525 6.2710678118654775 8.131370849898474
    vertex 10.262384566050132 8.27314933988261 8.3856406460551
    vertex 10.496699141100894 8.038834764831845 8.131370849898474
  endloop
endfacet
facet normal -0.27059805007309906 0.2705980500730989 -0.9238795325112865
  outer loop
    vertex 9.989519464128445 8.546014441804294 8.545481322062507
    vertex 8.494617613083763 6.5053823869162395 8.3856406460551
    vertex 8.221752511162077 6.778247488837926 8.545481322062507
  endloop
endfacet
facet normal -0.27059805007309906 0.2705980500730989 -0.9238795325112865
  outer loop
    vertex 8.494617613083763 6.5053823869162395 8.3856406460551
    vertex 9.989519464128445 8.546014441804294 8.545481322062507
    vertex 10.262384566050132 8.27314933988261 8.3856406460551
  endloop
endfacet
facet normal -0.09229595564125799 0.09229595564125773 -0.9914448613738103
  outer loop
    vertex 9.696699141100893 8.838834764831844 8.599999999999998
    vertex 8.221752511162077 6.778247488837926 8.545481322062507
    vertex 7.9289321881345245 7.071067811865476 8.599999999999998
  endloop
endfacet
facet normal -0.09229595564125799 0.09229595564125773 -0.9914448613738103
  outer loop
    vertex 8.221752511162077 6.778247488837926 8.545481322062507
    vertex 9.696699141100893 8.838834764831844 8.599999999999998
    vertex 9.989519464128445 8.546014441804294 8.545481322062507
  endloop
endfacet
facet normal 0.09229595564125513 -0.0922959556412555 -0.9914448613738108
  outer loop
    vertex 9.403878818073343 9.131655087859395 8.545481322062509
    vertex 7.9289321881345245 7.071067811865476 8.599999999999998
    vertex 7.636111865106973 7.363888134893028 8.545481322062509
  endloop
endfacet
facet normal 0.09229595564125513 -0.0922959556412555 -0.9914448613738108
  outer loop
    vertex 7.9289321881345245 7.071067811865476 8.599999999999998
    vertex 9.403878818073343 9.131655087859395 8.545481322062509
    vertex 9.696699141100893 8.838834764831844 8.599999999999998
  endloop
endfacet
facet normal 0.27059805007310084 -0.2705980500731012 -0.9238795325112853
  outer loop
    vertex 9.131013716151656 9.404520189781081 8.3856406460551
    vertex 7.636111865106973 7.363888134893028 8.545481322062509
    vertex 7.363246763185287 7.636753236814713 8.3856406460551
  endloop
endfacet
facet normal 0.27059805007310084 -0.2705980500731012 -0.9238795325112853
  outer loop
    vertex 7.636111865106973 7.363888134893028 8.545481322062509
    vertex 9.131013716151656 9.404520189781081 8.3856406460551
    vertex 9.403878818073343 9.131655087859395 8.545481322062509
  endloop
endfacet
facet normal 0.43045933457687846 -0.4304593345768789 -0.7933533402912362
  outer loop
    vertex 8.896699141100893 9.638834764831845 8.131370849898474
    vertex 7.363246763185287 7.636753236814713 8.3856406460551
    vertex 7.128932188134524 7.871067811865476 8.131370849898474
  endloop
endfacet
facet normal 0.43045933457687846 -0.4304593345768789 -0.7933533402912362
  outer loop
    vertex 7.363246763185287 7.636753236814713 8.3856406460551
    vertex 8.896699141100893 9.638834764831845 8.131370849898474
    vertex 9.131013716151656 9.404520189781081 8.3856406460551
  endloop
endfacet
facet normal 0.5609855267969306 -0.560985526796931 -0.608761429008721
  outer loop
    vertex 8.716903243987622 9.818630661945116 7.799999999999998
    vertex 7.128932188134524 7.871067811865476 8.131370849898474
    vertex 6.949136291021253 8.050863708978747 7.799999999999998
  endloop
endfacet
facet normal 0.5609855267969306 -0.560985526796931 -0.608761429008721
  outer loop
    vertex 7.128932188134524 7.871067811865476 8.131370849898474
    vertex 8.716903243987622 9.818630661945116 7.799999999999998
    vertex 8.896699141100893 9.638834764831845 8.131370849898474
  endloop
endfacet
facet normal 0.6532814824381877 -0.6532814824381882 -0.38268343236509117
  outer loop
    vertex 8.716903243987622 9.818630661945116 7.799999999999998
    vertex 6.836111865106972 8.163888134893027 7.414110472164033
    vertex 8.60387881807334 9.931655087859394 7.414110472164033
  endloop
endfacet
facet normal 0.6532814824381877 -0.6532814824381882 -0.38268343236509117
  outer loop
    vertex 6.836111865106972 8.163888134893027 7.414110472164033
    vertex 8.716903243987622 9.818630661945116 7.799999999999998
    vertex 6.949136291021253 8.050863708978747 7.799999999999998
  endloop
endfacet
facet normal 0.7010573846499777 -0.701057384649978 -0.13052619222005218
  outer loop
    vertex 8.60387881807334 9.931655087859394 7.414110472164033
    vertex 6.797561338236046 8.202438661763951 6.999999999999998
    vertex 8.565328291202416 9.970205614730318 6.999999999999998
  endloop
endfacet
facet normal 0.7010573846499777 -0.701057384649978 -0.13052619222005218
  outer loop
    vertex 6.797561338236046 8.202438661763951 6.999999999999998
    vertex 8.60387881807334 9.931655087859394 7.414110472164033
    vertex 6.836111865106972 8.163888134893027 7.414110472164033
  endloop
endfacet
facet normal 0.7010573846499779 -0.7010573846499781 0.13052619222005069
  outer loop
    vertex 8.565328291202416 9.970205614730318 6.999999999999998
    vertex 6.836111865106971 8.163888134893027 6.585889527835967
    vertex 8.603878818073339 9.931655087859394 6.585889527835967
  endloop
endfacet
facet normal 0.7010573846499779 -0.7010573846499781 0.13052619222005069
  outer loop
    vertex 6.836111865106971 8.163888134893027 6.585889527835967
    vertex 8.565328291202416 9.970205614730318 6.999999999999998
    vertex 6.797561338236046 8.202438661763951 6.999999999999998
  endloop
endfacet
facet normal 0.6532814824381878 -0.653281482438188 0.3826834323650914
  outer loop
    vertex 8.603878818073339 9.931655087859394 6.585889527835967
    vertex 6.949136291021251 8.050863708978746 6.199999999999999
    vertex 8.71690324398762 9.818630661945113 6.199999999999998
  endloop
endfacet
facet normal 0.6532814824381878 -0.653281482438188 0.3826834323650914
  outer loop
    vertex 6.949136291021251 8.050863708978746 6.199999999999999
    vertex 8.603878818073339 9.931655087859394 6.585889527835967
    vertex 6.836111865106971 8.163888134893027 6.585889527835967
  endloop
endfacet
facet normal -1.3053253133971568e-16 -8.230512122882751e-17 -1.0
  outer loop
    vertex 16.76776695296637 1.7677669529663682 1.9999999999999978
    vertex 14.999999999999998 -2.5 1.9999999999999984
    vertex 14.999999999999998 0.0 1.9999999999999984
  endloop
endfacet
facet normal -1.3053253133971568e-16 -8.230512122882751e-17 -1.0
  outer loop
    vertex 14.999999999999998 -2.5 1.9999999999999984
    vertex 16.76776695296637 1.7677669529663682 1.9999999999999978
    vertex 15.391987265954093 -2.320693968016534 1.9999999999999984
  endloop
endfacet
facet normal -1.3053253133971568e-16 -8.230512122882751e-17 -1.0
  outer loop
    vertex 15.391987265954093 -2.320693968016534 1.9999999999999984
    vertex 16.76776695296637 1.7677669529663682 1.9999999999999978
    vertex 15.755999038475602 -2.089825825472853 1.9999999999999984
  endloop
endfacet
facet normal -1.3053253133971568e-16 -8.230512122882751e-17 -1.0
  outer loop
    vertex 15.755999038475602 -2.089825825472853 1.9999999999999984
    vertex 16.76776695296637 1.7677669529663682 1.9999999999999978
    vertex 16.085293472786788 -1.8116714702894403 1.9999999999999984
  endloop
endfacet
facet normal -1.3053253133971568e-16 -8.230512122882751e-17 -1.0
  outer loop
    vertex 16.085293472786788 -1.8116714702894403 1.9999999999999984
    vertex 16.76776695296637 1.7677669529663682 1.9999999999999978
    vertex 16.373771722284623 -1.4913825860888064 1.9999999999999984
  endloop
endfacet
facet normal -1.3053253133971568e-16 -8.230512122882751e-17 -1.0
  outer loop
    vertex 16.373771722284623 -1.4913825860888064 1.9999999999999984
    vertex 16.76776695296637 1.7677669529663682 1.9999999999999978
    vertex 16.616090894989547 -1.134891228107408 1.999999999999998
  endloop
endfacet
facet normal -1.3053253133971568e-16 -8.230512122882751e-17 -1.0
  outer loop
    vertex 16.616090894989547 -1.134891228107408 1.999999999999998
    vertex 16.76776695296637 1.7677669529663682 1.9999999999999978
    vertex 16.80776300899447 -0.7487999558819057 1.999999999999998
  endloop
endfacet
facet normal -1.3053253133971568e-16 -8.230512122882751e-17 -1.0
  outer loop
    vertex 16.80776300899447 -0.7487999558819057 1.999999999999998
    vertex 16.76776695296637 1.7677669529663682 1.9999999999999978
    vertex 16.918155295738124 1.3638015879482928 1.999999999999998
  endloop
endfacet
facet normal -1.3053253133971568e-16 -8.230512122882751e-17 -1.0
  outer loop
    vertex 16.80776300899447 -0.7487999558819057 1.999999999999998
    vertex 16.918155295738124 1.3638015879482928 1.999999999999998
    vertex 16.945238114164823 -0.3402595475570717 1.999999999999998
  endloop
endfacet
facet normal -1.3053253133971568e-16 -8.230512122882751e-17 -1.0
  outer loop
    vertex 16.945238114164823 -0.3402595475570717 1.999999999999998
    vertex 16.918155295738124 1.3638015879482928 1.999999999999998
    vertex 17.01230205936724 0.9431579660140174 1.999999999999998
  endloop
endfacet
facet normal -1.3053253133971568e-16 -8.230512122882751e-17 -1.0
  outer loop
    vertex 16.945238114164823 -0.3402595475570717 1.999999999999998
    vertex 17.01230205936724 0.9431579660140174 1.999999999999998
    vertex 17.025970040596704 0.08316343933714457 1.999999999999998
  endloop
endfacet
facet normal -1.3053253133971568e-16 -8.230512122882751e-17 -1.0
  outer loop
    vertex 17.025970040596704 0.08316343933714457 1.999999999999998
    vertex 17.01230205936724 0.9431579660140174 1.999999999999998
    vertex 17.048463556108903 0.5136268077388294 1.999999999999998
  endloop
endfacet
facet normal -8.915924631576805e-16 6.717024214712146e-16 1.0
  outer loop
    vertex 15.391987265954093 -2.3206939680165335 12.0
    vertex 14.999999999999998 0.0 11.999999999999998
    vertex 14.999999999999998 -2.5 11.999999999999998
  endloop
endfacet
facet normal -8.915924631576805e-16 6.717024214712146e-16 1.0
  outer loop
    vertex 14.999999999999998 0.0 11.999999999999998
    vertex 15.391987265954093 -2.3206939680165335 12.0
    vertex 16.76776695296637 1.7677669529663682 11.999999999999998
  endloop
endfacet
facet normal -8.915924631576805e-16 6.717024214712146e-16 1.0
  outer loop
    vertex 16.76776695296637 1.7677669529663682 11.999999999999998
    vertex 15.391987265954093 -2.3206939680165335 12.0
    vertex 15.755999038475602 -2.0898258254728526 12.0
  endloop
endfacet
facet normal -8.915924631576805e-16 6.717024214712146e-16 1.0
  outer loop
    vertex 16.76776695296637 1.7677669529663682 11.999999999999998
    vertex 15.755999038475602 -2.0898258254728526 12.0
    vertex 16.085293472786788 -1.8116714702894399 12.0
  endloop
endfacet
facet normal -8.915924631576805e-16 6.717024214712146e-16 1.0
  outer loop
    vertex 16.76776695296637 1.7677669529663682 11.999999999999998
    vertex 16.085293472786788 -1.8116714702894399 12.0
    vertex 16.373771722284623 -1.491382586088806 12.0
  endloop
endfacet
facet normal -8.915924631576805e-16 6.717024214712146e-16 1.0
  outer loop
    vertex 16.76776695296637 1.7677669529663682 11.999999999999998
    vertex 16.373771722284623 -1.491382586088806 12.0
    vertex 16.616090894989547 -1.1348912281074073 12.0
  endloop
endfacet
facet normal -8.915924631576805e-16 6.717024214712146e-16 1.0
  outer loop
    vertex 16.76776695296637 1.7677669529663682 11.999999999999998
    vertex 16.616090894989547 -1.1348912281074073 12.0
    vertex 16.80776300899447 -0.7487999558819048 12.0
  endloop
endfacet
facet normal -8.915924631576805e-16 6.717024214712146e-16 1.0
  outer loop
    vertex 16.76776695296637 1.7677669529663682 11.999999999999998
    vertex 16.80776300899447 -0.7487999558819048 12.0
    vertex 16.918155295738124 1.3638015879482932 12.0
  endloop
endfacet
facet normal -8.915924631576805e-16 6.717024214712146e-16 1.0
  outer loop
    vertex 16.918155295738124 1.3638015879482932 12.0
    vertex 16.80776300899447 -0.7487999558819048 12.0
    vertex 16.945238114164823 -0.3402595475570709 12.0
  endloop
endfacet
facet normal -8.915924631576805e-16 6.717024214712146e-16 1.0
  outer loop
    vertex 16.918155295738124 1.3638015879482932 12.0
    vertex 16.945238114164823 -0.3402595475570709 12.0
    vertex 17.01230205936724 0.9431579660140179 12.0
  endloop
endfacet
facet normal -8.915924631576805e-16 6.717024214712146e-16 1.0
  outer loop
    vertex 17.01230205936724 0.9431579660140179 12.0
    vertex 16.945238114164823 -0.3402595475570709 12.0
    vertex 17.025970040596704 0.08316343933714539 12.0
  endloop
endfacet
facet normal -8.915924631576805e-16 6.717024214712146e-16 1.0
  outer loop
    vertex 17.01230205936724 0.9431579660140179 12.0
    vertex 17.025970040596704 0.08316343933714539 12.0
    vertex 17.048463556108903 0.5136268077388302 12.0
  endloop
endfacet
facet normal 0.41597438409874593 -0.9093763312147888 1.548289521606619e-17
  outer loop
    vertex 15.391987265954093 -2.3206939680165335 12.0
    vertex 14.999999999999998 -2.5 1.9999999999999984
    vertex 15.391987265954093 -2.320693968016534 1.9999999999999984
  endloop
endfacet
facet normal 0.41597438409874593 -0.9093763312147888 1.548289521606619e-17
  outer loop
    vertex 14.999999999999998 -2.5 1.9999999999999984
    vertex 15.391987265954093 -2.3206939680165335 12.0
    vertex 14.999999999999998 -2.5 11.999999999999998
  endloop
endfacet
facet normal 0.9371644782486409 0.34888786265640276 -8.952940182634736e-18
  outer loop
    vertex 16.76776695296637 1.7677669529663682 1.9999999999999978
    vertex 16.918155295738124 1.3638015879482932 12.0
    vertex 16.918155295738124 1.3638015879482928 1.999999999999998
  endloop
endfacet
facet normal 0.9371644782486409 0.34888786265640276 -8.952940182634736e-18
  outer loop
    vertex 16.918155295738124 1.3638015879482932 12.0
    vertex 16.76776695296637 1.7677669529663682 1.9999999999999978
    vertex 16.76776695296637 1.7677669529663682 11.999999999999998
  endloop
endfacet
facet normal 0.9758565823112446 0.21841229534945433 -1.4535748036021368e-16
  outer loop
    vertex 16.918155295738124 1.3638015879482928 1.999999999999998
    vertex 17.01230205936724 0.9431579660140179 12.0
    vertex 17.01230205936724 0.9431579660140174 1.999999999999998
  endloop
endfacet
facet normal 0.9758565823112446 0.21841229534945433 -1.4535748036021368e-16
  outer loop
    vertex 17.01230205936724 0.9431579660140179 12.0
    vertex 16.918155295738124 1.3638015879482928 1.999999999999998
    vertex 16.918155295738124 1.3638015879482932 12.0
  endloop
endfacet
facet normal 0.9964748928871398 0.08389152427726909 -1.3697709226074218e-16
  outer loop
    vertex 17.01230205936724 0.9431579660140174 1.999999999999998
    vertex 17.048463556108903 0.5136268077388302 12.0
    vertex 17.048463556108903 0.5136268077388294 1.999999999999998
  endloop
endfacet
facet normal 0.9964748928871398 0.08389152427726909 -1.3697709226074218e-16
  outer loop
    vertex 17.048463556108903 0.5136268077388302 12.0
    vertex 17.01230205936724 0.9431579660140174 1.999999999999998
    vertex 17.01230205936724 0.9431579660140179 12.0
  endloop
endfacet
facet normal 0.998637539223855 -0.052182997737995715 -1.2605975793084505e-16
  outer loop
    vertex 17.048463556108903 0.5136268077388294 1.999999999999998
    vertex 17.025970040596704 0.08316343933714539 12.0
    vertex 17.025970040596704 0.08316343933714457 1.999999999999998
  endloop
endfacet
facet normal 0.998637539223855 -0.052182997737995715 -1.2605975793084505e-16
  outer loop
    vertex 17.025970040596704 0.08316343933714539 12.0
    vertex 17.048463556108903 0.5136268077388294 1.999999999999998
    vertex 17.048463556108903 0.5136268077388302 12.0
  endloop
endfacet
facet normal 0.982304467051138 -0.18729104092662782 -1.1280767680195602e-16
  outer loop
    vertex 17.025970040596704 0.08316343933714457 1.999999999999998
    vertex 16.945238114164823 -0.3402595475570709 12.0
    vertex 16.945238114164823 -0.3402595475570717 1.999999999999998
  endloop
endfacet
facet normal 0.982304467051138 -0.18729104092662782 -1.1280767680195602e-16
  outer loop
    vertex 16.945238114164823 -0.3402595475570709 12.0
    vertex 17.025970040596704 0.08316343933714457 1.999999999999998
    vertex 17.025970040596704 0.08316343933714539 12.0
  endloop
endfacet
facet normal 0.9477781804242007 -0.3189302756274343 -9.746629004026133e-17
  outer loop
    vertex 16.945238114164823 -0.3402595475570717 1.999999999999998
    vertex 16.80776300899447 -0.7487999558819048 12.0
    vertex 16.80776300899447 -0.7487999558819057 1.999999999999998
  endloop
endfacet
facet normal 0.9477781804242007 -0.3189302756274343 -9.746629004026133e-17
  outer loop
    vertex 16.80776300899447 -0.7487999558819048 12.0
    vertex 16.945238114164823 -0.3402595475570717 1.999999999999998
    vertex 16.945238114164823 -0.3402595475570709 12.0
  endloop
endfacet
facet normal 0.8956981390604519 -0.4446626178167482 -8.031973474249821e-17
  outer loop
    vertex 16.80776300899447 -0.7487999558819057 1.999999999999998
    vertex 16.616090894989547 -1.1348912281074073 12.0
    vertex 16.616090894989547 -1.134891228107408 1.999999999999998
  endloop
endfacet
facet normal 0.8956981390604519 -0.4446626178167482 -8.031973474249821e-17
  outer loop
    vertex 16.616090894989547 -1.1348912281074073 12.0
    vertex 16.80776300899447 -0.7487999558819057 1.999999999999998
    vertex 16.80776300899447 -0.7487999558819048 12.0
  endloop
endfacet
facet normal 0.8270289149364046 -0.5621593847469893 -6.168558144626325e-17
  outer loop
    vertex 16.616090894989547 -1.134891228107408 1.999999999999998
    vertex 16.373771722284623 -1.491382586088806 12.0
    vertex 16.373771722284623 -1.4913825860888064 1.9999999999999984
  endloop
endfacet
facet normal 0.8270289149364046 -0.5621593847469893 -6.168558144626325e-17
  outer loop
    vertex 16.373771722284623 -1.491382586088806 12.0
    vertex 16.616090894989547 -1.134891228107408 1.999999999999998
    vertex 16.616090894989547 -1.1348912281074073 12.0
  endloop
endfacet
facet normal 0.7430423274958132 -0.6692444243694561 -4.190895242113756e-17
  outer loop
    vertex 16.373771722284623 -1.4913825860888064 1.9999999999999984
    vertex 16.085293472786788 -1.8116714702894399 12.0
    vertex 16.085293472786788 -1.8116714702894403 1.9999999999999984
  endloop
endfacet
facet normal 0.7430423274958132 -0.6692444243694561 -4.190895242113756e-17
  outer loop
    vertex 16.085293472786788 -1.8116714702894399 12.0
    vertex 16.373771722284623 -1.4913825860888064 1.9999999999999984
    vertex 16.373771722284623 -1.491382586088806 12.0
  endloop
endfacet
facet normal 0.6452938883420983 -0.7639344197431712 -2.1356129675506237e-17
  outer loop
    vertex 16.085293472786788 -1.8116714702894399 12.0
    vertex 15.755999038475602 -2.089825825472853 1.9999999999999984
    vertex 16.085293472786788 -1.8116714702894403 1.9999999999999984
  endloop
endfacet
facet normal 0.6452938883420983 -0.7639344197431712 -2.1356129675506237e-17
  outer loop
    vertex 15.755999038475602 -2.089825825472853 1.9999999999999984
    vertex 16.085293472786788 -1.8116714702894399 12.0
    vertex 15.755999038475602 -2.0898258254728526 12.0
  endloop
endfacet
facet normal 0.5355939916816905 -0.8444756219539279 -4.0777106484614603e-19
  outer loop
    vertex 15.755999038475602 -2.0898258254728526 12.0
    vertex 15.391987265954093 -2.320693968016534 1.9999999999999984
    vertex 15.755999038475602 -2.089825825472853 1.9999999999999984
  endloop
endfacet
facet normal 0.5355939916816905 -0.8444756219539279 -4.0777106484614603e-19
  outer loop
    vertex 15.391987265954093 -2.320693968016534 1.9999999999999984
    vertex 15.755999038475602 -2.0898258254728526 12.0
    vertex 15.391987265954093 -2.3206939680165335 12.0
  endloop
endfacet
endsolid 4raccordo
