solid livello6
facet normal -0.9238795325112867 0.38268343236509034 0.0
  outer loop
    vertex 7.244443697168011 -1.9411428382689109 22.0
    vertex 6.495190528383288 -3.7500000000000036 0.0
    vertex 6.495190528383288 -3.7500000000000036 22.0
  endloop
endfacet
facet normal -0.9238795325112867 0.38268343236509034 0.0
  outer loop
    vertex 6.495190528383288 -3.7500000000000036 0.0
    vertex 7.244443697168011 -1.9411428382689109 22.0
    vertex 7.244443697168011 -1.9411428382689109 0.0
  endloop
endfacet
facet normal -0.0 1.0 -0.0
  outer loop
    vertex -23.999999999999996 46.249999999999986 1.9999999999999998
    vertex -11.25 46.249999999999986 0.0
    vertex -23.999999999999996 46.249999999999986 0.0
  endloop
endfacet
facet normal -0.0 1.0 -0.0
  outer loop
    vertex -11.25 46.249999999999986 0.0
    vertex -23.999999999999996 46.249999999999986 1.9999999999999998
    vertex -11.25 46.249999999999986 1.9999999999999998
  endloop
endfacet
facet normal -0.9914448613738105 0.13052619222005182 0.0
  outer loop
    vertex 7.368347502412604 -0.9999999999999999 22.0
    vertex 7.244443697168011 -1.9411428382689109 0.0
    vertex 7.244443697168011 -1.9411428382689109 22.0
  endloop
endfacet
facet normal -0.9914448613738105 0.13052619222005182 0.0
  outer loop
    vertex 7.244443697168011 -1.9411428382689109 0.0
    vertex 7.368347502412604 -0.9999999999999999 22.0
    vertex 7.368347502412604 -0.9999999999999999 0.0
  endloop
endfacet
facet normal -0.6087614290087211 -0.793353340291235 0.0
  outer loop
    vertex -7.000000000000005 -12.124355652982137 3.9999999999999996
    vertex -9.89949493661167 -9.899494936611658 0.0
    vertex -7.000000000000005 -12.124355652982137 0.0
  endloop
endfacet
facet normal -0.6087614290087211 -0.793353340291235 0.0
  outer loop
    vertex -9.89949493661167 -9.899494936611658 0.0
    vertex -7.000000000000005 -12.124355652982137 3.9999999999999996
    vertex -9.89949493661167 -9.899494936611658 3.9999999999999996
  endloop
endfacet
facet normal -0.7933533402912349 0.6087614290087212 -5.4876842678832896e-18
  outer loop
    vertex 6.0974411141192055 -4.268357128701684 7.000000000000001
    vertex 5.303300858899103 -5.30330085889911 0.0
    vertex 5.303300858899103 -5.30330085889911 7.000000000000001
  endloop
endfacet
facet normal -0.7933533402912349 0.6087614290087212 -5.4876842678832896e-18
  outer loop
    vertex 5.303300858899103 -5.30330085889911 0.0
    vertex 6.0974411141192055 -4.268357128701684 7.000000000000001
    vertex 6.495190528383288 -3.7500000000000036 0.0
  endloop
endfacet
facet normal -0.7933533402912349 0.6087614290087212 -5.4876842678832896e-18
  outer loop
    vertex 6.495190528383288 -3.7500000000000036 0.0
    vertex 6.0974411141192055 -4.268357128701684 7.000000000000001
    vertex 6.0974411141192055 -4.268357128701683 22.0
  endloop
endfacet
facet normal -0.7933533402912349 0.6087614290087212 -5.4876842678832896e-18
  outer loop
    vertex 6.495190528383288 -3.7500000000000036 0.0
    vertex 6.0974411141192055 -4.268357128701683 22.0
    vertex 6.495190528383288 -3.7500000000000036 22.0
  endloop
endfacet
facet normal -0.9914448613738105 -0.13052619222005113 0.0
  outer loop
    vertex -14.0 1.7143679706340176e-15 3.9999999999999996
    vertex -13.522961568046957 -3.623466631435285 0.0
    vertex -13.522961568046957 -3.623466631435285 3.9999999999999996
  endloop
endfacet
facet normal -0.9914448613738105 -0.13052619222005113 0.0
  outer loop
    vertex -13.522961568046957 -3.623466631435285 0.0
    vertex -14.0 1.7143679706340176e-15 3.9999999999999996
    vertex -14.0 1.7145055188062944e-15 0.0
  endloop
endfacet
facet normal 1.0 -0.0 -0.0
  outer loop
    vertex -10.249999999999998 0.9999999999999999 0.0
    vertex -10.249999999999998 -0.9999999999999999 22.0
    vertex -10.249999999999998 -0.9999999999999999 0.0
  endloop
endfacet
facet normal 1.0 -0.0 -0.0
  outer loop
    vertex -10.249999999999998 -0.9999999999999999 22.0
    vertex -10.249999999999998 0.9999999999999999 0.0
    vertex -10.249999999999998 0.9999999999999999 22.0
  endloop
endfacet
facet normal 0.9914448613738103 0.13052619222005266 -0.0
  outer loop
    vertex -7.368347502412605 -0.9999999999999999 0.0
    vertex -7.244443697168013 -1.9411428382689049 22.0
    vertex -7.244443697168013 -1.9411428382689049 0.0
  endloop
endfacet
facet normal 0.9914448613738103 0.13052619222005266 -0.0
  outer loop
    vertex -7.244443697168013 -1.9411428382689049 22.0
    vertex -7.368347502412605 -0.9999999999999999 0.0
    vertex -7.368347502412605 -0.9999999999999999 22.0
  endloop
endfacet
facet normal -0.6087614290087203 0.7933533402912356 -0.0
  outer loop
    vertex 3.7499999999999987 -6.495190528383291 7.000000000000001
    vertex 5.303300858899103 -5.30330085889911 0.0
    vertex 3.7499999999999987 -6.495190528383291 0.0
  endloop
endfacet
facet normal -0.6087614290087203 0.7933533402912356 -0.0
  outer loop
    vertex 5.303300858899103 -5.30330085889911 0.0
    vertex 3.7499999999999987 -6.495190528383291 7.000000000000001
    vertex 5.303300858899103 -5.30330085889911 7.000000000000001
  endloop
endfacet
facet normal 0.9914448613738105 -0.13052619222005216 -0.0
  outer loop
    vertex 14.0 0.0 0.0
    vertex 13.522961568046952 -3.623466631435301 3.9999999999999996
    vertex 13.522961568046952 -3.623466631435301 0.0
  endloop
endfacet
facet normal 0.9914448613738105 -0.13052619222005216 -0.0
  outer loop
    vertex 13.522961568046952 -3.623466631435301 3.9999999999999996
    vertex 14.0 0.0 0.0
    vertex 14.0 -1.375481722768786e-19 3.9999999999999996
  endloop
endfacet
facet normal 1.0 7.988300957388243e-17 -1.0286140540010471e-16
  outer loop
    vertex 13.999999999999996 36.24999999999999 0.0
    vertex 14.0 11.25 1.9999999999999998
    vertex 14.0 0.0 0.0
  endloop
endfacet
facet normal 1.0 7.988300957388243e-17 -1.0286140540010471e-16
  outer loop
    vertex 14.0 11.25 1.9999999999999998
    vertex 13.999999999999996 36.24999999999999 0.0
    vertex 13.999999999999996 36.24999999999999 1.9999999999999998
  endloop
endfacet
facet normal 1.0 7.988300957388243e-17 -1.0286140540010471e-16
  outer loop
    vertex 14.0 0.0 0.0
    vertex 14.0 11.25 3.9999999999999996
    vertex 14.0 -1.375481722768786e-19 3.9999999999999996
  endloop
endfacet
facet normal 1.0 7.988300957388243e-17 -1.0286140540010471e-16
  outer loop
    vertex 14.0 11.25 3.9999999999999996
    vertex 14.0 0.0 0.0
    vertex 14.0 11.25 1.9999999999999998
  endloop
endfacet
facet normal -0.0 1.0 -0.0
  outer loop
    vertex 11.249999999999998 46.249999999999986 1.9999999999999998
    vertex 23.999999999999996 46.249999999999986 0.0
    vertex 11.249999999999998 46.249999999999986 0.0
  endloop
endfacet
facet normal -0.0 1.0 -0.0
  outer loop
    vertex 23.999999999999996 46.249999999999986 0.0
    vertex 11.249999999999998 46.249999999999986 1.9999999999999998
    vertex 23.999999999999996 46.249999999999986 1.9999999999999998
  endloop
endfacet
facet normal -0.38268343236508967 0.9238795325112868 -0.0
  outer loop
    vertex 1.9411428382689029 -7.2444436971680135 7.000000000000001
    vertex 3.7499999999999987 -6.495190528383291 0.0
    vertex 1.9411428382689029 -7.2444436971680135 0.0
  endloop
endfacet
facet normal -0.38268343236508967 0.9238795325112868 -0.0
  outer loop
    vertex 3.7499999999999987 -6.495190528383291 0.0
    vertex 1.9411428382689029 -7.2444436971680135 7.000000000000001
    vertex 3.7499999999999987 -6.495190528383291 7.000000000000001
  endloop
endfacet
facet normal -0.1305261922200512 0.9914448613738105 -0.0
  outer loop
    vertex -9.184850993605154e-16 -7.5 7.000000000000001
    vertex 1.9411428382689029 -7.2444436971680135 0.0
    vertex -9.18485099360515e-16 -7.5 0.0
  endloop
endfacet
facet normal -0.1305261922200512 0.9914448613738105 -0.0
  outer loop
    vertex 1.9411428382689029 -7.2444436971680135 0.0
    vertex -9.184850993605154e-16 -7.5 7.000000000000001
    vertex 1.9411428382689029 -7.2444436971680135 7.000000000000001
  endloop
endfacet
facet normal 0.13052619222005166 0.9914448613738105 -0.0
  outer loop
    vertex -1.9411428382689078 -7.244443697168013 7.000000000000001
    vertex -9.18485099360515e-16 -7.5 0.0
    vertex -1.9411428382689078 -7.244443697168013 0.0
  endloop
endfacet
facet normal 0.13052619222005166 0.9914448613738105 -0.0
  outer loop
    vertex -9.18485099360515e-16 -7.5 0.0
    vertex -1.9411428382689078 -7.244443697168013 7.000000000000001
    vertex -9.184850993605154e-16 -7.5 7.000000000000001
  endloop
endfacet
facet normal 0.13052619222005113 -0.9914448613738105 0.0
  outer loop
    vertex 3.623466631435284 -13.522961568046957 3.9999999999999996
    vertex -2.5717582782094417e-15 -14.0 0.0
    vertex 3.623466631435284 -13.522961568046957 0.0
  endloop
endfacet
facet normal 0.13052619222005113 -0.9914448613738105 0.0
  outer loop
    vertex -2.5717582782094417e-15 -14.0 0.0
    vertex 3.623466631435284 -13.522961568046957 3.9999999999999996
    vertex -2.5717582782094417e-15 -14.0 3.9999999999999996
  endloop
endfacet
facet normal -0.38268343236509034 -0.9238795325112867 0.0
  outer loop
    vertex -3.6234666314353006 -13.522961568046952 3.9999999999999996
    vertex -7.000000000000005 -12.124355652982137 0.0
    vertex -3.6234666314353006 -13.522961568046952 0.0
  endloop
endfacet
facet normal -0.38268343236509034 -0.9238795325112867 0.0
  outer loop
    vertex -7.000000000000005 -12.124355652982137 0.0
    vertex -3.6234666314353006 -13.522961568046952 3.9999999999999996
    vertex -7.000000000000005 -12.124355652982137 3.9999999999999996
  endloop
endfacet
facet normal 0.6087614290087201 -0.7933533402912357 0.0
  outer loop
    vertex 9.899494936611665 -9.899494936611667 3.9999999999999996
    vertex 6.99999999999999 -12.124355652982146 0.0
    vertex 9.899494936611665 -9.899494936611667 0.0
  endloop
endfacet
facet normal 0.6087614290087201 -0.7933533402912357 0.0
  outer loop
    vertex 6.99999999999999 -12.124355652982146 0.0
    vertex 9.899494936611665 -9.899494936611667 3.9999999999999996
    vertex 6.99999999999999 -12.124355652982146 3.9999999999999996
  endloop
endfacet
facet normal -0.13052619222005227 -0.9914448613738105 0.0
  outer loop
    vertex -2.5717582782094417e-15 -14.0 3.9999999999999996
    vertex -3.6234666314353006 -13.522961568046952 0.0
    vertex -2.5717582782094417e-15 -14.0 0.0
  endloop
endfacet
facet normal -0.13052619222005227 -0.9914448613738105 0.0
  outer loop
    vertex -3.6234666314353006 -13.522961568046952 0.0
    vertex -2.5717582782094417e-15 -14.0 3.9999999999999996
    vertex -3.6234666314353006 -13.522961568046952 3.9999999999999996
  endloop
endfacet
facet normal 0.3826834323650897 0.9238795325112867 -0.0
  outer loop
    vertex -3.750000000000003 -6.495190528383289 7.000000000000001
    vertex -1.9411428382689078 -7.244443697168013 0.0
    vertex -3.750000000000003 -6.495190528383289 0.0
  endloop
endfacet
facet normal 0.3826834323650897 0.9238795325112867 -0.0
  outer loop
    vertex -1.9411428382689078 -7.244443697168013 0.0
    vertex -3.750000000000003 -6.495190528383289 7.000000000000001
    vertex -1.9411428382689078 -7.244443697168013 7.000000000000001
  endloop
endfacet
facet normal 0.7933533402912353 -0.6087614290087204 -0.0
  outer loop
    vertex 12.124355652982137 -7.000000000000005 0.0
    vertex 9.899494936611665 -9.899494936611667 3.9999999999999996
    vertex 9.899494936611665 -9.899494936611667 0.0
  endloop
endfacet
facet normal 0.7933533402912353 -0.6087614290087204 -0.0
  outer loop
    vertex 9.899494936611665 -9.899494936611667 3.9999999999999996
    vertex 12.124355652982137 -7.000000000000005 0.0
    vertex 12.124355652982137 -7.000000000000005 3.9999999999999996
  endloop
endfacet
facet normal 0.6087614290087213 0.7933533402912347 -0.0
  outer loop
    vertex -5.303300858899107 -5.303300858899107 7.000000000000001
    vertex -3.750000000000003 -6.495190528383289 0.0
    vertex -5.303300858899107 -5.303300858899107 0.0
  endloop
endfacet
facet normal 0.6087614290087213 0.7933533402912347 -0.0
  outer loop
    vertex -3.750000000000003 -6.495190528383289 0.0
    vertex -5.303300858899107 -5.303300858899107 7.000000000000001
    vertex -3.750000000000003 -6.495190528383289 7.000000000000001
  endloop
endfacet
facet normal 0.7933533402912354 0.6087614290087207 7.839548954118973e-18
  outer loop
    vertex -5.303300858899107 -5.303300858899107 0.0
    vertex -6.09744111411921 -4.268357128701679 7.000000000000001
    vertex -5.303300858899107 -5.303300858899107 7.000000000000001
  endloop
endfacet
facet normal 0.7933533402912354 0.6087614290087207 7.839548954118973e-18
  outer loop
    vertex -6.09744111411921 -4.268357128701679 7.000000000000001
    vertex -5.303300858899107 -5.303300858899107 0.0
    vertex -6.495190528383291 -3.7499999999999987 0.0
  endloop
endfacet
facet normal 0.7933533402912354 0.6087614290087207 7.839548954118973e-18
  outer loop
    vertex -6.09744111411921 -4.268357128701679 7.000000000000001
    vertex -6.495190528383291 -3.7499999999999987 0.0
    vertex -6.09744111411921 -4.268357128701678 22.0
  endloop
endfacet
facet normal 0.7933533402912354 0.6087614290087207 7.839548954118973e-18
  outer loop
    vertex -6.09744111411921 -4.268357128701678 22.0
    vertex -6.495190528383291 -3.7499999999999987 0.0
    vertex -6.495190528383291 -3.7499999999999987 22.0
  endloop
endfacet
facet normal -0.9238795325112868 -0.38268343236508956 0.0
  outer loop
    vertex -13.522961568046957 -3.623466631435285 3.9999999999999996
    vertex -12.124355652982143 -6.999999999999997 0.0
    vertex -12.124355652982143 -6.999999999999997 3.9999999999999996
  endloop
endfacet
facet normal -0.9238795325112868 -0.38268343236508956 0.0
  outer loop
    vertex -12.124355652982143 -6.999999999999997 0.0
    vertex -13.522961568046957 -3.623466631435285 3.9999999999999996
    vertex -13.522961568046957 -3.623466631435285 0.0
  endloop
endfacet
facet normal -0.7933533402912353 -0.6087614290087205 0.0
  outer loop
    vertex -12.124355652982143 -6.999999999999997 3.9999999999999996
    vertex -9.89949493661167 -9.899494936611658 0.0
    vertex -9.89949493661167 -9.899494936611658 3.9999999999999996
  endloop
endfacet
facet normal -0.7933533402912353 -0.6087614290087205 0.0
  outer loop
    vertex -9.89949493661167 -9.899494936611658 0.0
    vertex -12.124355652982143 -6.999999999999997 3.9999999999999996
    vertex -12.124355652982143 -6.999999999999997 0.0
  endloop
endfacet
facet normal 0.9238795325112865 -0.3826834323650904 -0.0
  outer loop
    vertex 13.522961568046952 -3.623466631435301 0.0
    vertex 12.124355652982137 -7.000000000000005 3.9999999999999996
    vertex 12.124355652982137 -7.000000000000005 0.0
  endloop
endfacet
facet normal 0.9238795325112865 -0.3826834323650904 -0.0
  outer loop
    vertex 12.124355652982137 -7.000000000000005 3.9999999999999996
    vertex 13.522961568046952 -3.623466631435301 0.0
    vertex 13.522961568046952 -3.623466631435301 3.9999999999999996
  endloop
endfacet
facet normal 0.3826834323650892 -0.9238795325112871 0.0
  outer loop
    vertex 6.99999999999999 -12.124355652982146 3.9999999999999996
    vertex 3.623466631435284 -13.522961568046957 0.0
    vertex 6.99999999999999 -12.124355652982146 0.0
  endloop
endfacet
facet normal 0.3826834323650892 -0.9238795325112871 0.0
  outer loop
    vertex 3.623466631435284 -13.522961568046957 0.0
    vertex 6.99999999999999 -12.124355652982146 3.9999999999999996
    vertex 3.623466631435284 -13.522961568046957 3.9999999999999996
  endloop
endfacet
facet normal -0.0 -0.0 1.0
  outer loop
    vertex 14.0 11.25 1.9999999999999998
    vertex 11.249999999999998 16.249999999999993 1.9999999999999998
    vertex 11.249999999999998 11.25 1.9999999999999998
  endloop
endfacet
facet normal -0.0 -0.0 1.0
  outer loop
    vertex 11.249999999999998 16.249999999999993 1.9999999999999998
    vertex 14.0 11.25 1.9999999999999998
    vertex 13.999999999999996 36.24999999999999 1.9999999999999998
  endloop
endfacet
facet normal -0.0 -0.0 1.0
  outer loop
    vertex -11.249999999999998 11.25 1.9999999999999998
    vertex -13.999999999999996 36.249999999999986 1.9999999999999998
    vertex -14.0 11.25 1.9999999999999998
  endloop
endfacet
facet normal -0.0 -0.0 1.0
  outer loop
    vertex -13.999999999999996 36.249999999999986 1.9999999999999998
    vertex -11.249999999999998 11.25 1.9999999999999998
    vertex -11.249999999999998 16.249999999999993 1.9999999999999998
  endloop
endfacet
facet normal -0.0 -0.0 1.0
  outer loop
    vertex -13.999999999999996 36.249999999999986 1.9999999999999998
    vertex -11.249999999999998 16.249999999999993 1.9999999999999998
    vertex 13.999999999999996 36.24999999999999 1.9999999999999998
  endloop
endfacet
facet normal -0.0 -0.0 1.0
  outer loop
    vertex 13.999999999999996 36.24999999999999 1.9999999999999998
    vertex -11.249999999999998 16.249999999999993 1.9999999999999998
    vertex 11.249999999999998 16.249999999999993 1.9999999999999998
  endloop
endfacet
facet normal -1.0 0.0 0.0
  outer loop
    vertex 7.368347502412605 3.5625 22.0
    vertex 7.368347502412605 1.0226499999999994 1.9999999999999998
    vertex 7.368347502412605 0.9999999999999999 22.0
  endloop
endfacet
facet normal -1.0 0.0 0.0
  outer loop
    vertex 7.368347502412605 1.0226499999999994 1.9999999999999998
    vertex 7.368347502412605 3.5625 22.0
    vertex 7.368347502412605 3.5625 1.9999999999999998
  endloop
endfacet
facet normal -1.0 0.0 0.0
  outer loop
    vertex 10.249999999999998 0.9999999999999999 22.0
    vertex 10.249999999999998 -0.9999999999999999 0.0
    vertex 10.249999999999998 -0.9999999999999999 22.0
  endloop
endfacet
facet normal -1.0 0.0 0.0
  outer loop
    vertex 10.249999999999998 -0.9999999999999999 0.0
    vertex 10.249999999999998 0.9999999999999999 22.0
    vertex 10.249999999999998 0.9999999999999999 0.0
  endloop
endfacet
facet normal -0.0 1.0 -0.0
  outer loop
    vertex 7.368347502412604 -0.9999999999999999 22.0
    vertex 10.249999999999998 -0.9999999999999999 0.0
    vertex 7.368347502412604 -0.9999999999999999 0.0
  endloop
endfacet
facet normal -0.0 1.0 -0.0
  outer loop
    vertex 10.249999999999998 -0.9999999999999999 0.0
    vertex 7.368347502412604 -0.9999999999999999 22.0
    vertex 10.249999999999998 -0.9999999999999999 22.0
  endloop
endfacet
facet normal -0.0 1.0 -0.0
  outer loop
    vertex -10.249999999999998 -0.9999999999999999 22.0
    vertex -7.368347502412605 -0.9999999999999999 0.0
    vertex -10.249999999999998 -0.9999999999999999 0.0
  endloop
endfacet
facet normal -0.0 1.0 -0.0
  outer loop
    vertex -7.368347502412605 -0.9999999999999999 0.0
    vertex -10.249999999999998 -0.9999999999999999 22.0
    vertex -7.368347502412605 -0.9999999999999999 22.0
  endloop
endfacet
facet normal 0.9238795325112871 0.38268343236508945 -0.0
  outer loop
    vertex -7.244443697168013 -1.9411428382689049 0.0
    vertex -6.495190528383291 -3.7499999999999987 22.0
    vertex -6.495190528383291 -3.7499999999999987 0.0
  endloop
endfacet
facet normal 0.9238795325112871 0.38268343236508945 -0.0
  outer loop
    vertex -6.495190528383291 -3.7499999999999987 22.0
    vertex -7.244443697168013 -1.9411428382689049 0.0
    vertex -7.244443697168013 -1.9411428382689049 22.0
  endloop
endfacet
facet normal 0.0 0.0 -1.0
  outer loop
    vertex -11.25 46.249999999999986 0.0
    vertex -7.368347502412607 11.25 0.0
    vertex -10.249999999999998 0.9999999999999999 0.0
  endloop
endfacet
facet normal 0.0 0.0 -1.0
  outer loop
    vertex -7.368347502412607 11.25 0.0
    vertex -11.25 46.249999999999986 0.0
    vertex 11.249999999999998 46.249999999999986 0.0
  endloop
endfacet
facet normal 0.0 0.0 -1.0
  outer loop
    vertex -7.368347502412607 11.25 0.0
    vertex 11.249999999999998 46.249999999999986 0.0
    vertex -6.2790153077151505 11.994749275045644 0.0
  endloop
endfacet
facet normal 0.0 0.0 -1.0
  outer loop
    vertex -6.2790153077151505 11.994749275045644 0.0
    vertex 11.249999999999998 46.249999999999986 0.0
    vertex -5.115109903339735 12.616537279715315 0.0
  endloop
endfacet
facet normal 0.0 0.0 -1.0
  outer loop
    vertex -5.115109903339735 12.616537279715315 0.0
    vertex 11.249999999999998 46.249999999999986 0.0
    vertex -3.8904545016074312 13.107979300805578 0.0
  endloop
endfacet
facet normal 0.0 0.0 -1.0
  outer loop
    vertex -3.8904545016074312 13.107979300805578 0.0
    vertex 11.249999999999998 46.249999999999986 0.0
    vertex -2.6195938168692963 13.463238689242123 0.0
  endloop
endfacet
facet normal 0.0 0.0 -1.0
  outer loop
    vertex -2.6195938168692963 13.463238689242123 0.0
    vertex 11.249999999999998 46.249999999999986 0.0
    vertex -1.317621324084374 13.678096179492766 0.0
  endloop
endfacet
facet normal 0.0 0.0 -1.0
  outer loop
    vertex -1.317621324084374 13.678096179492766 0.0
    vertex 11.249999999999998 46.249999999999986 0.0
    vertex -1.4099832412739487e-15 13.749999999999998 0.0
  endloop
endfacet
facet normal 0.0 0.0 -1.0
  outer loop
    vertex -1.4099832412739487e-15 13.749999999999998 0.0
    vertex 11.249999999999998 46.249999999999986 0.0
    vertex 1.317621324084372 13.678096179492766 0.0
  endloop
endfacet
facet normal 0.0 0.0 -1.0
  outer loop
    vertex 1.317621324084372 13.678096179492766 0.0
    vertex 11.249999999999998 46.249999999999986 0.0
    vertex 2.619593816869294 13.463238689242123 0.0
  endloop
endfacet
facet normal 0.0 0.0 -1.0
  outer loop
    vertex 2.619593816869294 13.463238689242123 0.0
    vertex 11.249999999999998 46.249999999999986 0.0
    vertex 3.890454501607429 13.107979300805578 0.0
  endloop
endfacet
facet normal 0.0 0.0 -1.0
  outer loop
    vertex 3.890454501607429 13.107979300805578 0.0
    vertex 11.249999999999998 46.249999999999986 0.0
    vertex 5.115109903339733 12.616537279715315 0.0
  endloop
endfacet
facet normal 0.0 0.0 -1.0
  outer loop
    vertex 5.115109903339733 12.616537279715315 0.0
    vertex 11.249999999999998 46.249999999999986 0.0
    vertex 6.279015307715148 11.994749275045642 0.0
  endloop
endfacet
facet normal 0.0 0.0 -1.0
  outer loop
    vertex 6.279015307715148 11.994749275045642 0.0
    vertex 11.249999999999998 46.249999999999986 0.0
    vertex 7.368347502412605 11.25 0.0
  endloop
endfacet
facet normal 0.0 0.0 -1.0
  outer loop
    vertex 7.368347502412605 11.25 0.0
    vertex 11.249999999999998 46.249999999999986 0.0
    vertex 7.368347502412607 7.562500000000003 -2.8199664825478975e-15
  endloop
endfacet
facet normal 0.0 0.0 -1.0
  outer loop
    vertex 7.368347502412607 7.562500000000003 -2.8199664825478975e-15
    vertex 11.249999999999998 46.249999999999986 0.0
    vertex 10.249999999999998 0.9999999999999999 0.0
  endloop
endfacet
facet normal 0.0 0.0 -1.0
  outer loop
    vertex 10.249999999999998 0.9999999999999999 0.0
    vertex 11.249999999999998 46.249999999999986 0.0
    vertex 10.249999999999998 -0.9999999999999999 0.0
  endloop
endfacet
facet normal 0.0 0.0 -1.0
  outer loop
    vertex -7.368347502412607 11.25 0.0
    vertex -7.368347502412607 1.0226499999999987 4.476432419187048e-16
    vertex -10.249999999999998 0.9999999999999999 0.0
  endloop
endfacet
facet normal 0.0 0.0 -1.0
  outer loop
    vertex -7.368347502412607 1.0226499999999987 4.476432419187048e-16
    vertex -7.368347502412607 11.25 0.0
    vertex -7.368347502412607 7.5625 -2.8199664825478975e-15
  endloop
endfacet
facet normal 0.0 0.0 -1.0
  outer loop
    vertex -7.368347502412607 1.0226499999999987 4.476432419187048e-16
    vertex -7.368347502412607 7.5625 -2.8199664825478975e-15
    vertex 7.368347502412607 7.562500000000003 -2.8199664825478975e-15
  endloop
endfacet
facet normal 0.0 0.0 -1.0
  outer loop
    vertex -7.368347502412607 1.0226499999999987 4.476432419187048e-16
    vertex 7.368347502412607 7.562500000000003 -2.8199664825478975e-15
    vertex 7.368347502412605 1.022649999999998 1.1526348625556789e-15
  endloop
endfacet
facet normal 0.0 0.0 -1.0
  outer loop
    vertex 7.368347502412605 1.022649999999998 1.1526348625556789e-15
    vertex 7.368347502412607 7.562500000000003 -2.8199664825478975e-15
    vertex 10.249999999999998 0.9999999999999999 0.0
  endloop
endfacet
facet normal 0.0 0.0 -1.0
  outer loop
    vertex -13.522961568046957 -3.623466631435285 0.0
    vertex -14.0 1.7145055188062944e-15 0.0
    vertex -13.999999999999996 36.249999999999986 0.0
  endloop
endfacet
facet normal 0.0 0.0 -1.0
  outer loop
    vertex -11.25 46.249999999999986 0.0
    vertex -23.999999999999996 36.249999999999986 0.0
    vertex -23.999999999999996 46.249999999999986 0.0
  endloop
endfacet
facet normal 0.0 0.0 -1.0
  outer loop
    vertex -23.999999999999996 36.249999999999986 0.0
    vertex -11.25 46.249999999999986 0.0
    vertex -13.999999999999996 36.249999999999986 0.0
  endloop
endfacet
facet normal 0.0 0.0 -1.0
  outer loop
    vertex -13.999999999999996 36.249999999999986 0.0
    vertex -11.25 46.249999999999986 0.0
    vertex -13.522961568046957 -3.623466631435285 0.0
  endloop
endfacet
facet normal 0.0 0.0 -1.0
  outer loop
    vertex -13.522961568046957 -3.623466631435285 0.0
    vertex -11.25 46.249999999999986 0.0
    vertex -12.124355652982143 -6.999999999999997 0.0
  endloop
endfacet
facet normal 0.0 0.0 -1.0
  outer loop
    vertex -12.124355652982143 -6.999999999999997 0.0
    vertex -11.25 46.249999999999986 0.0
    vertex -10.249999999999998 -0.9999999999999999 0.0
  endloop
endfacet
facet normal 0.0 0.0 -1.0
  outer loop
    vertex -12.124355652982143 -6.999999999999997 0.0
    vertex -10.249999999999998 -0.9999999999999999 0.0
    vertex -9.89949493661167 -9.899494936611658 0.0
  endloop
endfacet
facet normal 0.0 0.0 -1.0
  outer loop
    vertex -10.249999999999998 -0.9999999999999999 0.0
    vertex -11.25 46.249999999999986 0.0
    vertex -10.249999999999998 0.9999999999999999 0.0
  endloop
endfacet
facet normal 0.0 0.0 -1.0
  outer loop
    vertex -9.89949493661167 -9.899494936611658 0.0
    vertex -10.249999999999998 -0.9999999999999999 0.0
    vertex -7.368347502412605 -0.9999999999999999 0.0
  endloop
endfacet
facet normal 0.0 0.0 -1.0
  outer loop
    vertex -9.89949493661167 -9.899494936611658 0.0
    vertex -7.368347502412605 -0.9999999999999999 0.0
    vertex -7.000000000000005 -12.124355652982137 0.0
  endloop
endfacet
facet normal 0.0 0.0 -1.0
  outer loop
    vertex -7.000000000000005 -12.124355652982137 0.0
    vertex -7.368347502412605 -0.9999999999999999 0.0
    vertex -7.244443697168013 -1.9411428382689049 0.0
  endloop
endfacet
facet normal 0.0 0.0 -1.0
  outer loop
    vertex -7.000000000000005 -12.124355652982137 0.0
    vertex -7.244443697168013 -1.9411428382689049 0.0
    vertex -6.495190528383291 -3.7499999999999987 0.0
  endloop
endfacet
facet normal 0.0 0.0 -1.0
  outer loop
    vertex -7.000000000000005 -12.124355652982137 0.0
    vertex -6.495190528383291 -3.7499999999999987 0.0
    vertex -3.6234666314353006 -13.522961568046952 0.0
  endloop
endfacet
facet normal 0.0 0.0 -1.0
  outer loop
    vertex -3.6234666314353006 -13.522961568046952 0.0
    vertex -6.495190528383291 -3.7499999999999987 0.0
    vertex -5.303300858899107 -5.303300858899107 0.0
  endloop
endfacet
facet normal 0.0 0.0 -1.0
  outer loop
    vertex -3.6234666314353006 -13.522961568046952 0.0
    vertex -5.303300858899107 -5.303300858899107 0.0
    vertex -3.750000000000003 -6.495190528383289 0.0
  endloop
endfacet
facet normal 0.0 0.0 -1.0
  outer loop
    vertex -3.6234666314353006 -13.522961568046952 0.0
    vertex -3.750000000000003 -6.495190528383289 0.0
    vertex -1.9411428382689078 -7.244443697168013 0.0
  endloop
endfacet
facet normal 0.0 0.0 -1.0
  outer loop
    vertex -3.6234666314353006 -13.522961568046952 0.0
    vertex -1.9411428382689078 -7.244443697168013 0.0
    vertex -2.5717582782094417e-15 -14.0 0.0
  endloop
endfacet
facet normal 0.0 0.0 -1.0
  outer loop
    vertex -2.5717582782094417e-15 -14.0 0.0
    vertex -1.9411428382689078 -7.244443697168013 0.0
    vertex -9.18485099360515e-16 -7.5 0.0
  endloop
endfacet
facet normal 0.0 0.0 -1.0
  outer loop
    vertex -2.5717582782094417e-15 -14.0 0.0
    vertex -9.18485099360515e-16 -7.5 0.0
    vertex 3.623466631435284 -13.522961568046957 0.0
  endloop
endfacet
facet normal 0.0 0.0 -1.0
  outer loop
    vertex 3.623466631435284 -13.522961568046957 0.0
    vertex -9.18485099360515e-16 -7.5 0.0
    vertex 1.9411428382689029 -7.2444436971680135 0.0
  endloop
endfacet
facet normal 0.0 0.0 -1.0
  outer loop
    vertex 3.623466631435284 -13.522961568046957 0.0
    vertex 1.9411428382689029 -7.2444436971680135 0.0
    vertex 3.7499999999999987 -6.495190528383291 0.0
  endloop
endfacet
facet normal 0.0 0.0 -1.0
  outer loop
    vertex 3.623466631435284 -13.522961568046957 0.0
    vertex 3.7499999999999987 -6.495190528383291 0.0
    vertex 6.99999999999999 -12.124355652982146 0.0
  endloop
endfacet
facet normal 0.0 0.0 -1.0
  outer loop
    vertex 6.99999999999999 -12.124355652982146 0.0
    vertex 3.7499999999999987 -6.495190528383291 0.0
    vertex 5.303300858899103 -5.30330085889911 0.0
  endloop
endfacet
facet normal 0.0 0.0 -1.0
  outer loop
    vertex 6.99999999999999 -12.124355652982146 0.0
    vertex 5.303300858899103 -5.30330085889911 0.0
    vertex 6.495190528383288 -3.7500000000000036 0.0
  endloop
endfacet
facet normal 0.0 0.0 -1.0
  outer loop
    vertex 6.99999999999999 -12.124355652982146 0.0
    vertex 6.495190528383288 -3.7500000000000036 0.0
    vertex 7.244443697168011 -1.9411428382689109 0.0
  endloop
endfacet
facet normal 0.0 0.0 -1.0
  outer loop
    vertex 6.99999999999999 -12.124355652982146 0.0
    vertex 7.244443697168011 -1.9411428382689109 0.0
    vertex 9.899494936611665 -9.899494936611667 0.0
  endloop
endfacet
facet normal 0.0 0.0 -1.0
  outer loop
    vertex 9.899494936611665 -9.899494936611667 0.0
    vertex 7.244443697168011 -1.9411428382689109 0.0
    vertex 7.368347502412604 -0.9999999999999999 0.0
  endloop
endfacet
facet normal 0.0 0.0 -1.0
  outer loop
    vertex 9.899494936611665 -9.899494936611667 0.0
    vertex 7.368347502412604 -0.9999999999999999 0.0
    vertex 10.249999999999998 -0.9999999999999999 0.0
  endloop
endfacet
facet normal 0.0 0.0 -1.0
  outer loop
    vertex 9.899494936611665 -9.899494936611667 0.0
    vertex 10.249999999999998 -0.9999999999999999 0.0
    vertex 12.124355652982137 -7.000000000000005 0.0
  endloop
endfacet
facet normal 0.0 0.0 -1.0
  outer loop
    vertex 12.124355652982137 -7.000000000000005 0.0
    vertex 10.249999999999998 -0.9999999999999999 0.0
    vertex 11.249999999999998 46.249999999999986 0.0
  endloop
endfacet
facet normal 0.0 0.0 -1.0
  outer loop
    vertex 12.124355652982137 -7.000000000000005 0.0
    vertex 11.249999999999998 46.249999999999986 0.0
    vertex 13.999999999999996 36.24999999999999 0.0
  endloop
endfacet
facet normal 0.0 0.0 -1.0
  outer loop
    vertex 13.999999999999996 36.24999999999999 0.0
    vertex 11.249999999999998 46.249999999999986 0.0
    vertex 23.999999999999996 46.249999999999986 0.0
  endloop
endfacet
facet normal 0.0 0.0 -1.0
  outer loop
    vertex 12.124355652982137 -7.000000000000005 0.0
    vertex 13.999999999999996 36.24999999999999 0.0
    vertex 13.522961568046952 -3.623466631435301 0.0
  endloop
endfacet
facet normal 0.0 0.0 -1.0
  outer loop
    vertex 13.999999999999996 36.24999999999999 0.0
    vertex 23.999999999999996 46.249999999999986 0.0
    vertex 23.999999999999996 36.24999999999999 0.0
  endloop
endfacet
facet normal 0.0 0.0 -1.0
  outer loop
    vertex 14.0 0.0 0.0
    vertex 13.522961568046952 -3.623466631435301 0.0
    vertex 13.999999999999996 36.24999999999999 0.0
  endloop
endfacet
facet normal -0.0 -0.0 1.0
  outer loop
    vertex 10.304725669163473 -4.268357128701686 22.0
    vertex 6.495190528383288 -3.7500000000000036 22.0
    vertex 6.0974411141192055 -4.268357128701683 22.0
  endloop
endfacet
facet normal -0.0 -0.0 1.0
  outer loop
    vertex 6.495190528383288 -3.7500000000000036 22.0
    vertex 10.304725669163473 -4.268357128701686 22.0
    vertex 7.244443697168011 -1.9411428382689109 22.0
  endloop
endfacet
facet normal -0.0 -0.0 1.0
  outer loop
    vertex 7.244443697168011 -1.9411428382689109 22.0
    vertex 10.304725669163473 -4.268357128701686 22.0
    vertex 7.368347502412604 -0.9999999999999999 22.0
  endloop
endfacet
facet normal -0.0 -0.0 1.0
  outer loop
    vertex 7.368347502412604 -0.9999999999999999 22.0
    vertex 10.304725669163473 -4.268357128701686 22.0
    vertex 10.249999999999998 -0.9999999999999999 22.0
  endloop
endfacet
facet normal -0.0 -0.0 1.0
  outer loop
    vertex 10.249999999999998 -0.9999999999999999 22.0
    vertex 10.304725669163473 -4.268357128701686 22.0
    vertex 10.249999999999998 0.9999999999999999 22.0
  endloop
endfacet
facet normal -0.0 -0.0 1.0
  outer loop
    vertex 10.249999999999998 0.9999999999999999 22.0
    vertex 7.368347502412605 3.5625 22.0
    vertex 7.368347502412605 0.9999999999999999 22.0
  endloop
endfacet
facet normal -0.0 -0.0 1.0
  outer loop
    vertex 7.368347502412605 3.5625 22.0
    vertex 10.249999999999998 0.9999999999999999 22.0
    vertex 11.249999999999998 3.5625 22.0
  endloop
endfacet
facet normal -0.0 -0.0 1.0
  outer loop
    vertex 11.249999999999998 3.5625 22.0
    vertex 10.249999999999998 0.9999999999999999 22.0
    vertex 10.304725669163473 -4.268357128701686 22.0
  endloop
endfacet
facet normal -0.0 -0.0 1.0
  outer loop
    vertex 11.249999999999998 3.5625 22.0
    vertex 10.304725669163473 -4.268357128701686 22.0
    vertex 10.866665545752014 -2.9117142574033665 22.0
  endloop
endfacet
facet normal -0.0 -0.0 1.0
  outer loop
    vertex 11.249999999999998 3.5625 22.0
    vertex 10.866665545752014 -2.9117142574033665 22.0
    vertex 11.249999999999998 0.0 22.0
  endloop
endfacet
facet normal -0.0 1.0 -0.0
  outer loop
    vertex 7.368347502412605 3.5625 22.0
    vertex 11.249999999999998 3.5625 1.9999999999999998
    vertex 7.368347502412605 3.5625 1.9999999999999998
  endloop
endfacet
facet normal -0.0 1.0 -0.0
  outer loop
    vertex 11.249999999999998 3.5625 1.9999999999999998
    vertex 7.368347502412605 3.5625 22.0
    vertex 11.249999999999998 3.5625 3.9999999999999996
  endloop
endfacet
facet normal -0.0 1.0 -0.0
  outer loop
    vertex 11.249999999999998 3.5625 3.9999999999999996
    vertex 7.368347502412605 3.5625 22.0
    vertex 11.249999999999998 3.5625 22.0
  endloop
endfacet
facet normal -0.9238795325112871 -0.38268343236508906 2.2175410974864267e-19
  outer loop
    vertex -10.304725669163476 -4.268357128701676 22.0
    vertex -10.304725669163476 -4.268357128701676 4.0
    vertex -10.304725669163476 -4.268357128701676 7.000000000000001
  endloop
endfacet
facet normal -0.9238795325112871 -0.38268343236508906 2.2175410974864267e-19
  outer loop
    vertex -10.304725669163476 -4.268357128701676 4.0
    vertex -10.304725669163476 -4.268357128701676 22.0
    vertex -10.866665545752017 -2.9117142574033537 22.0
  endloop
endfacet
facet normal -0.9238795325112871 -0.38268343236508906 2.2175410974864267e-19
  outer loop
    vertex -10.304725669163476 -4.268357128701676 4.0
    vertex -10.866665545752017 -2.9117142574033537 22.0
    vertex -10.866665545752017 -2.9117142574033537 3.9999999999999996
  endloop
endfacet
facet normal 1.8162151843194517e-16 1.0 1.877955305742636e-33
  outer loop
    vertex -11.249999999999998 3.562499999999999 3.9999999999999996
    vertex -7.368347502412607 3.5624999999999982 1.9999999999999998
    vertex -11.249999999999998 3.562499999999999 1.9999999999999998
  endloop
endfacet
facet normal 1.8162151843194517e-16 1.0 1.877955305742636e-33
  outer loop
    vertex -7.368347502412607 3.5624999999999982 1.9999999999999998
    vertex -11.249999999999998 3.562499999999999 3.9999999999999996
    vertex -7.368347502412607 3.5624999999999982 22.0
  endloop
endfacet
facet normal 1.8162151843194517e-16 1.0 1.877955305742636e-33
  outer loop
    vertex -7.368347502412607 3.5624999999999982 22.0
    vertex -11.249999999999998 3.562499999999999 3.9999999999999996
    vertex -11.249999999999998 3.562499999999999 22.0
  endloop
endfacet
facet normal -0.0 -0.0 1.0
  outer loop
    vertex -6.09744111411921 -4.268357128701678 22.0
    vertex -10.249999999999998 -0.9999999999999999 22.0
    vertex -10.304725669163476 -4.268357128701676 22.0
  endloop
endfacet
facet normal -0.0 -0.0 1.0
  outer loop
    vertex -10.249999999999998 -0.9999999999999999 22.0
    vertex -6.09744111411921 -4.268357128701678 22.0
    vertex -6.495190528383291 -3.7499999999999987 22.0
  endloop
endfacet
facet normal -0.0 -0.0 1.0
  outer loop
    vertex -10.249999999999998 -0.9999999999999999 22.0
    vertex -6.495190528383291 -3.7499999999999987 22.0
    vertex -7.244443697168013 -1.9411428382689049 22.0
  endloop
endfacet
facet normal -0.0 -0.0 1.0
  outer loop
    vertex -10.249999999999998 -0.9999999999999999 22.0
    vertex -7.244443697168013 -1.9411428382689049 22.0
    vertex -7.368347502412605 -0.9999999999999999 22.0
  endloop
endfacet
facet normal -0.0 -0.0 1.0
  outer loop
    vertex -10.866665545752017 -2.9117142574033537 22.0
    vertex -11.249999999999998 3.562499999999999 22.0
    vertex -11.249999999999998 1.3777276490407724e-15 22.0
  endloop
endfacet
facet normal -0.0 -0.0 1.0
  outer loop
    vertex -11.249999999999998 3.562499999999999 22.0
    vertex -10.866665545752017 -2.9117142574033537 22.0
    vertex -10.249999999999998 0.9999999999999999 22.0
  endloop
endfacet
facet normal -0.0 -0.0 1.0
  outer loop
    vertex -11.249999999999998 3.562499999999999 22.0
    vertex -10.249999999999998 0.9999999999999999 22.0
    vertex -7.368347502412607 3.5624999999999982 22.0
  endloop
endfacet
facet normal -0.0 -0.0 1.0
  outer loop
    vertex -10.249999999999998 0.9999999999999999 22.0
    vertex -10.866665545752017 -2.9117142574033537 22.0
    vertex -10.304725669163476 -4.268357128701676 22.0
  endloop
endfacet
facet normal -0.0 -0.0 1.0
  outer loop
    vertex -10.249999999999998 0.9999999999999999 22.0
    vertex -10.304725669163476 -4.268357128701676 22.0
    vertex -10.249999999999998 -0.9999999999999999 22.0
  endloop
endfacet
facet normal -0.0 -0.0 1.0
  outer loop
    vertex -7.368347502412607 3.5624999999999982 22.0
    vertex -10.249999999999998 0.9999999999999999 22.0
    vertex -7.368347502412607 0.9999999999999999 22.0
  endloop
endfacet
facet normal -5.995472149943287e-32 -1.0489777104766659e-16 1.0
  outer loop
    vertex -9.742785792574935 -5.624999999999997 7.0
    vertex -6.09744111411921 -4.268357128701679 7.000000000000001
    vertex -10.304725669163476 -4.268357128701676 7.000000000000001
  endloop
endfacet
facet normal -5.995472149943287e-32 -1.0489777104766659e-16 1.0
  outer loop
    vertex -6.09744111411921 -4.268357128701679 7.000000000000001
    vertex -9.742785792574935 -5.624999999999997 7.0
    vertex -7.954951288348663 -7.954951288348654 7.0
  endloop
endfacet
facet normal -5.995472149943287e-32 -1.0489777104766659e-16 1.0
  outer loop
    vertex -6.09744111411921 -4.268357128701679 7.000000000000001
    vertex -7.954951288348663 -7.954951288348654 7.0
    vertex -5.6250000000000036 -9.742785792574931 7.0
  endloop
endfacet
facet normal -5.995472149943287e-32 -1.0489777104766659e-16 1.0
  outer loop
    vertex -6.09744111411921 -4.268357128701679 7.000000000000001
    vertex -5.6250000000000036 -9.742785792574931 7.0
    vertex -5.303300858899107 -5.303300858899107 7.000000000000001
  endloop
endfacet
facet normal -5.995472149943287e-32 -1.0489777104766659e-16 1.0
  outer loop
    vertex -5.303300858899107 -5.303300858899107 7.000000000000001
    vertex -5.6250000000000036 -9.742785792574931 7.0
    vertex -2.911714257403366 -10.866665545752015 7.0
  endloop
endfacet
facet normal -5.995472149943287e-32 -1.0489777104766659e-16 1.0
  outer loop
    vertex -5.303300858899107 -5.303300858899107 7.000000000000001
    vertex -2.911714257403366 -10.866665545752015 7.0
    vertex -3.750000000000003 -6.495190528383289 7.000000000000001
  endloop
endfacet
facet normal -5.995472149943287e-32 -1.0489777104766659e-16 1.0
  outer loop
    vertex -3.750000000000003 -6.495190528383289 7.000000000000001
    vertex -2.911714257403366 -10.866665545752015 7.0
    vertex -1.9411428382689078 -7.244443697168013 7.000000000000001
  endloop
endfacet
facet normal -5.995472149943287e-32 -1.0489777104766659e-16 1.0
  outer loop
    vertex -1.9411428382689078 -7.244443697168013 7.000000000000001
    vertex -2.911714257403366 -10.866665545752015 7.0
    vertex -2.066591473561158e-15 -11.25 7.0
  endloop
endfacet
facet normal -5.995472149943287e-32 -1.0489777104766659e-16 1.0
  outer loop
    vertex -1.9411428382689078 -7.244443697168013 7.000000000000001
    vertex -2.066591473561158e-15 -11.25 7.0
    vertex -9.184850993605154e-16 -7.5 7.000000000000001
  endloop
endfacet
facet normal -5.995472149943287e-32 -1.0489777104766659e-16 1.0
  outer loop
    vertex -9.184850993605154e-16 -7.5 7.000000000000001
    vertex -2.066591473561158e-15 -11.25 7.0
    vertex 2.9117142574033528 -10.866665545752019 7.0
  endloop
endfacet
facet normal -5.995472149943287e-32 -1.0489777104766659e-16 1.0
  outer loop
    vertex -9.184850993605154e-16 -7.5 7.000000000000001
    vertex 2.9117142574033528 -10.866665545752019 7.0
    vertex 1.9411428382689029 -7.2444436971680135 7.000000000000001
  endloop
endfacet
facet normal -5.995472149943287e-32 -1.0489777104766659e-16 1.0
  outer loop
    vertex 1.9411428382689029 -7.2444436971680135 7.000000000000001
    vertex 2.9117142574033528 -10.866665545752019 7.0
    vertex 3.7499999999999987 -6.495190528383291 7.000000000000001
  endloop
endfacet
facet normal -5.995472149943287e-32 -1.0489777104766659e-16 1.0
  outer loop
    vertex 3.7499999999999987 -6.495190528383291 7.000000000000001
    vertex 2.9117142574033528 -10.866665545752019 7.0
    vertex 5.62499999999999 -9.742785792574939 7.0
  endloop
endfacet
facet normal -5.995472149943287e-32 -1.0489777104766659e-16 1.0
  outer loop
    vertex 3.7499999999999987 -6.495190528383291 7.000000000000001
    vertex 5.62499999999999 -9.742785792574939 7.0
    vertex 5.303300858899103 -5.30330085889911 7.000000000000001
  endloop
endfacet
facet normal -5.995472149943287e-32 -1.0489777104766659e-16 1.0
  outer loop
    vertex 5.303300858899103 -5.30330085889911 7.000000000000001
    vertex 5.62499999999999 -9.742785792574939 7.0
    vertex 6.0974411141192055 -4.268357128701684 7.000000000000001
  endloop
endfacet
facet normal -5.995472149943287e-32 -1.0489777104766659e-16 1.0
  outer loop
    vertex 6.0974411141192055 -4.268357128701684 7.000000000000001
    vertex 5.62499999999999 -9.742785792574939 7.0
    vertex 7.954951288348657 -7.954951288348661 7.0
  endloop
endfacet
facet normal -5.995472149943287e-32 -1.0489777104766659e-16 1.0
  outer loop
    vertex 6.0974411141192055 -4.268357128701684 7.000000000000001
    vertex 7.954951288348657 -7.954951288348661 7.0
    vertex 10.304725669163473 -4.268357128701686 7.000000000000001
  endloop
endfacet
facet normal -5.995472149943287e-32 -1.0489777104766659e-16 1.0
  outer loop
    vertex 10.304725669163473 -4.268357128701686 7.000000000000001
    vertex 7.954951288348657 -7.954951288348661 7.0
    vertex 9.74278579257493 -5.625000000000005 7.0
  endloop
endfacet
facet normal -5.02693562615156e-16 -1.0 -2.485065925841739e-33
  outer loop
    vertex -6.09744111411921 -4.268357128701678 22.0
    vertex -10.304725669163476 -4.268357128701676 7.000000000000001
    vertex -6.09744111411921 -4.268357128701679 7.000000000000001
  endloop
endfacet
facet normal -5.02693562615156e-16 -1.0 -2.485065925841739e-33
  outer loop
    vertex -10.304725669163476 -4.268357128701676 7.000000000000001
    vertex -6.09744111411921 -4.268357128701678 22.0
    vertex -10.304725669163476 -4.268357128701676 22.0
  endloop
endfacet
facet normal -5.026935626151558e-16 -1.0 -1.249226643594914e-48
  outer loop
    vertex 10.304725669163473 -4.268357128701686 22.0
    vertex 6.0974411141192055 -4.268357128701684 7.000000000000001
    vertex 10.304725669163473 -4.268357128701686 7.000000000000001
  endloop
endfacet
facet normal -5.026935626151558e-16 -1.0 -1.249226643594914e-48
  outer loop
    vertex 6.0974411141192055 -4.268357128701684 7.000000000000001
    vertex 10.304725669163473 -4.268357128701686 22.0
    vertex 6.0974411141192055 -4.268357128701683 22.0
  endloop
endfacet
facet normal 1.0 -0.0 -0.0
  outer loop
    vertex -7.368347502412607 1.022649999999998 1.9999999999999998
    vertex -7.368347502412607 3.5624999999999982 22.0
    vertex -7.368347502412607 0.9999999999999999 22.0
  endloop
endfacet
facet normal 1.0 -0.0 -0.0
  outer loop
    vertex -7.368347502412607 3.5624999999999982 22.0
    vertex -7.368347502412607 1.022649999999998 1.9999999999999998
    vertex -7.368347502412607 3.5624999999999982 1.9999999999999998
  endloop
endfacet
facet normal -1.0 -3.823683366166644e-16 -1.5542191976874531e-31
  outer loop
    vertex 7.368347502412605 11.25 1.9999999999999998
    vertex 7.368347502412607 7.562500000000003 -2.8199664825478975e-15
    vertex 7.368347502412607 7.562500000000002 1.9999999999999962
  endloop
endfacet
facet normal -1.0 -3.823683366166644e-16 -1.5542191976874531e-31
  outer loop
    vertex 7.368347502412607 7.562500000000003 -2.8199664825478975e-15
    vertex 7.368347502412605 11.25 1.9999999999999998
    vertex 7.368347502412605 11.25 0.0
  endloop
endfacet
facet normal -0.923879532511287 -0.3826834323650892 -2.6318703341230962e-20
  outer loop
    vertex -10.304725669163476 -4.268357128701676 7.000000000000001
    vertex -9.742785792574935 -5.6249999999999964 3.9999999999999996
    vertex -9.742785792574935 -5.624999999999997 7.0
  endloop
endfacet
facet normal -0.923879532511287 -0.3826834323650892 -2.6318703341230962e-20
  outer loop
    vertex -9.742785792574935 -5.6249999999999964 3.9999999999999996
    vertex -10.304725669163476 -4.268357128701676 7.000000000000001
    vertex -10.304725669163476 -4.268357128701676 4.0
  endloop
endfacet
facet normal -0.7933533402912353 -0.6087614290087204 -4.186701095640575e-20
  outer loop
    vertex -9.742785792574935 -5.624999999999997 7.0
    vertex -7.954951288348663 -7.954951288348654 3.9999999999999996
    vertex -7.954951288348663 -7.954951288348654 7.0
  endloop
endfacet
facet normal -0.7933533402912353 -0.6087614290087204 -4.186701095640575e-20
  outer loop
    vertex -7.954951288348663 -7.954951288348654 3.9999999999999996
    vertex -9.742785792574935 -5.624999999999997 7.0
    vertex -9.742785792574935 -5.6249999999999964 3.9999999999999996
  endloop
endfacet
facet normal -0.6087614290087211 -0.7933533402912348 -5.45621509634084e-20
  outer loop
    vertex -5.6250000000000036 -9.742785792574931 7.0
    vertex -7.954951288348663 -7.954951288348654 3.9999999999999996
    vertex -5.6250000000000036 -9.742785792574931 3.9999999999999996
  endloop
endfacet
facet normal -0.6087614290087211 -0.7933533402912348 -5.45621509634084e-20
  outer loop
    vertex -7.954951288348663 -7.954951288348654 3.9999999999999996
    vertex -5.6250000000000036 -9.742785792574931 7.0
    vertex -7.954951288348663 -7.954951288348654 7.0
  endloop
endfacet
facet normal -0.38268343236509067 -0.9238795325112866 -6.353897055047255e-20
  outer loop
    vertex -2.911714257403366 -10.866665545752015 7.0
    vertex -5.6250000000000036 -9.742785792574931 3.9999999999999996
    vertex -2.911714257403366 -10.866665545752015 3.9999999999999996
  endloop
endfacet
facet normal -0.38268343236509067 -0.9238795325112866 -6.353897055047255e-20
  outer loop
    vertex -5.6250000000000036 -9.742785792574931 3.9999999999999996
    vertex -2.911714257403366 -10.866665545752015 7.0
    vertex -5.6250000000000036 -9.742785792574931 7.0
  endloop
endfacet
facet normal -0.130526192220052 -0.9914448613738105 -6.818571429763554e-20
  outer loop
    vertex -2.066591473561158e-15 -11.25 7.0
    vertex -2.911714257403366 -10.866665545752015 3.9999999999999996
    vertex -2.0665914735611576e-15 -11.25 3.9999999999999996
  endloop
endfacet
facet normal -0.130526192220052 -0.9914448613738105 -6.818571429763554e-20
  outer loop
    vertex -2.911714257403366 -10.866665545752015 3.9999999999999996
    vertex -2.066591473561158e-15 -11.25 7.0
    vertex -2.911714257403366 -10.866665545752015 7.0
  endloop
endfacet
facet normal 0.13052619222005146 -0.9914448613738106 -6.818571429763535e-20
  outer loop
    vertex 2.9117142574033528 -10.866665545752019 7.0
    vertex -2.0665914735611576e-15 -11.25 3.9999999999999996
    vertex 2.9117142574033528 -10.866665545752019 3.9999999999999996
  endloop
endfacet
facet normal 0.13052619222005146 -0.9914448613738106 -6.818571429763535e-20
  outer loop
    vertex -2.0665914735611576e-15 -11.25 3.9999999999999996
    vertex 2.9117142574033528 -10.866665545752019 7.0
    vertex -2.066591473561158e-15 -11.25 7.0
  endloop
endfacet
facet normal 0.38268343236508934 -0.923879532511287 -6.353897055047197e-20
  outer loop
    vertex 5.62499999999999 -9.742785792574939 7.0
    vertex 2.9117142574033528 -10.866665545752019 3.9999999999999996
    vertex 5.62499999999999 -9.742785792574939 3.9999999999999996
  endloop
endfacet
facet normal 0.38268343236508934 -0.923879532511287 -6.353897055047197e-20
  outer loop
    vertex 2.9117142574033528 -10.866665545752019 3.9999999999999996
    vertex 5.62499999999999 -9.742785792574939 7.0
    vertex 2.9117142574033528 -10.866665545752019 7.0
  endloop
endfacet
facet normal 0.6087614290087199 -0.7933533402912358 -5.456215096340753e-20
  outer loop
    vertex 7.954951288348657 -7.954951288348661 7.0
    vertex 5.62499999999999 -9.742785792574939 3.9999999999999996
    vertex 7.954951288348657 -7.954951288348661 3.9999999999999996
  endloop
endfacet
facet normal 0.6087614290087199 -0.7933533402912358 -5.456215096340753e-20
  outer loop
    vertex 5.62499999999999 -9.742785792574939 3.9999999999999996
    vertex 7.954951288348657 -7.954951288348661 7.0
    vertex 5.62499999999999 -9.742785792574939 7.0
  endloop
endfacet
facet normal 0.7933533402912354 -0.6087614290087207 -4.1867010956404546e-20
  outer loop
    vertex 9.74278579257493 -5.625000000000004 3.9999999999999996
    vertex 7.954951288348657 -7.954951288348661 7.0
    vertex 7.954951288348657 -7.954951288348661 3.9999999999999996
  endloop
endfacet
facet normal 0.7933533402912354 -0.6087614290087207 -4.1867010956404546e-20
  outer loop
    vertex 7.954951288348657 -7.954951288348661 7.0
    vertex 9.74278579257493 -5.625000000000004 3.9999999999999996
    vertex 9.74278579257493 -5.625000000000005 7.0
  endloop
endfacet
facet normal 0.9238795325112865 -0.38268343236509056 -2.6318703341229638e-20
  outer loop
    vertex 9.74278579257493 -5.625000000000004 3.9999999999999996
    vertex 10.304725669163473 -4.268357128701686 7.000000000000001
    vertex 9.74278579257493 -5.625000000000005 7.0
  endloop
endfacet
facet normal 0.9238795325112865 -0.38268343236509056 -2.6318703341229638e-20
  outer loop
    vertex 10.304725669163473 -4.268357128701686 7.000000000000001
    vertex 9.74278579257493 -5.625000000000004 3.9999999999999996
    vertex 10.304725669163473 -4.268357128701686 4.0
  endloop
endfacet
facet normal -7.356738299607467e-34 4.5063052067554844e-17 1.0
  outer loop
    vertex -7.368347502412607 3.5624999999999982 1.9999999999999998
    vertex -11.249999999999998 11.25 1.9999999999999998
    vertex -11.249999999999998 3.562499999999999 1.9999999999999998
  endloop
endfacet
facet normal -7.356738299607467e-34 4.5063052067554844e-17 1.0
  outer loop
    vertex -11.249999999999998 11.25 1.9999999999999998
    vertex -7.368347502412607 3.5624999999999982 1.9999999999999998
    vertex -7.368347502412607 11.25 1.9999999999999998
  endloop
endfacet
facet normal -7.356738299607467e-34 4.5063052067554844e-17 1.0
  outer loop
    vertex -7.368347502412607 11.25 1.9999999999999998
    vertex -7.368347502412607 3.5624999999999982 1.9999999999999998
    vertex -7.368347502412607 7.562499999999999 1.9999999999999962
  endloop
endfacet
facet normal -7.356738299607467e-34 4.5063052067554844e-17 1.0
  outer loop
    vertex 7.368347502412605 1.0226499999999994 1.9999999999999998
    vertex -7.368347502412607 3.5624999999999982 1.9999999999999998
    vertex -7.368347502412607 1.022649999999998 1.9999999999999998
  endloop
endfacet
facet normal -7.356738299607467e-34 4.5063052067554844e-17 1.0
  outer loop
    vertex -7.368347502412607 3.5624999999999982 1.9999999999999998
    vertex 7.368347502412605 1.0226499999999994 1.9999999999999998
    vertex -7.368347502412607 7.562499999999999 1.9999999999999962
  endloop
endfacet
facet normal -7.356738299607467e-34 4.5063052067554844e-17 1.0
  outer loop
    vertex -7.368347502412607 7.562499999999999 1.9999999999999962
    vertex 7.368347502412605 1.0226499999999994 1.9999999999999998
    vertex 7.368347502412605 3.5625 1.9999999999999998
  endloop
endfacet
facet normal -7.356738299607467e-34 4.5063052067554844e-17 1.0
  outer loop
    vertex -7.368347502412607 7.562499999999999 1.9999999999999962
    vertex 7.368347502412605 3.5625 1.9999999999999998
    vertex 7.368347502412607 7.562500000000002 1.9999999999999962
  endloop
endfacet
facet normal -7.356738299607467e-34 4.5063052067554844e-17 1.0
  outer loop
    vertex 7.368347502412607 7.562500000000002 1.9999999999999962
    vertex 7.368347502412605 3.5625 1.9999999999999998
    vertex 11.249999999999998 3.5625 1.9999999999999998
  endloop
endfacet
facet normal -7.356738299607467e-34 4.5063052067554844e-17 1.0
  outer loop
    vertex 7.368347502412607 7.562500000000002 1.9999999999999962
    vertex 11.249999999999998 11.25 1.9999999999999998
    vertex 7.368347502412605 11.25 1.9999999999999998
  endloop
endfacet
facet normal -7.356738299607467e-34 4.5063052067554844e-17 1.0
  outer loop
    vertex 11.249999999999998 11.25 1.9999999999999998
    vertex 7.368347502412607 7.562500000000002 1.9999999999999962
    vertex 11.249999999999998 3.5625 1.9999999999999998
  endloop
endfacet
facet normal -0.0 -0.0 1.0
  outer loop
    vertex 23.999999999999996 36.24999999999999 17.0
    vertex -23.999999999999996 46.249999999999986 17.0
    vertex -23.999999999999996 36.249999999999986 17.0
  endloop
endfacet
facet normal -0.0 -0.0 1.0
  outer loop
    vertex -23.999999999999996 46.249999999999986 17.0
    vertex 23.999999999999996 36.24999999999999 17.0
    vertex 23.999999999999996 46.249999999999986 17.0
  endloop
endfacet
facet normal 2.391959731833155e-17 -1.0 1.762479051592436e-16
  outer loop
    vertex 7.368347502412605 1.022649999999998 1.1526348625556789e-15
    vertex -7.368347502412607 1.022649999999998 1.9999999999999998
    vertex -7.368347502412607 1.0226499999999987 4.476432419187048e-16
  endloop
endfacet
facet normal 2.391959731833155e-17 -1.0 1.762479051592436e-16
  outer loop
    vertex -7.368347502412607 1.022649999999998 1.9999999999999998
    vertex 7.368347502412605 1.022649999999998 1.1526348625556789e-15
    vertex 7.368347502412605 1.0226499999999994 1.9999999999999998
  endloop
endfacet
facet normal -0.0 1.0 -0.0
  outer loop
    vertex -23.999999999999996 46.249999999999986 17.0
    vertex -11.25 46.249999999999986 1.9999999999999998
    vertex -23.999999999999996 46.249999999999986 1.9999999999999998
  endloop
endfacet
facet normal -0.0 1.0 -0.0
  outer loop
    vertex -11.25 46.249999999999986 1.9999999999999998
    vertex -23.999999999999996 46.249999999999986 17.0
    vertex 11.249999999999998 46.249999999999986 1.9999999999999998
  endloop
endfacet
facet normal -0.0 1.0 -0.0
  outer loop
    vertex 11.249999999999998 46.249999999999986 1.9999999999999998
    vertex -23.999999999999996 46.249999999999986 17.0
    vertex 23.999999999999996 46.249999999999986 1.9999999999999998
  endloop
endfacet
facet normal -0.0 1.0 -0.0
  outer loop
    vertex 23.999999999999996 46.249999999999986 1.9999999999999998
    vertex -23.999999999999996 46.249999999999986 17.0
    vertex 23.999999999999996 46.249999999999986 17.0
  endloop
endfacet
facet normal -0.0 1.0 -0.0
  outer loop
    vertex -11.25 46.249999999999986 1.9999999999999998
    vertex 11.249999999999998 46.249999999999986 0.0
    vertex -11.25 46.249999999999986 0.0
  endloop
endfacet
facet normal -0.0 1.0 -0.0
  outer loop
    vertex 11.249999999999998 46.249999999999986 0.0
    vertex -11.25 46.249999999999986 1.9999999999999998
    vertex 11.249999999999998 46.249999999999986 1.9999999999999998
  endloop
endfacet
facet normal -1.0 0.0 0.0
  outer loop
    vertex -23.999999999999996 46.249999999999986 17.0
    vertex -23.999999999999996 36.249999999999986 2.000000000000001
    vertex -23.999999999999996 36.249999999999986 17.0
  endloop
endfacet
facet normal -1.0 0.0 0.0
  outer loop
    vertex -23.999999999999996 36.249999999999986 2.000000000000001
    vertex -23.999999999999996 46.249999999999986 17.0
    vertex -23.999999999999996 46.249999999999986 1.9999999999999998
  endloop
endfacet
facet normal -1.0 7.988300957388246e-17 -1.0286140540010458e-16
  outer loop
    vertex -14.0 11.25 3.9999999999999996
    vertex -14.0 1.7145055188062944e-15 0.0
    vertex -14.0 1.7143679706340176e-15 3.9999999999999996
  endloop
endfacet
facet normal -1.0 7.988300957388246e-17 -1.0286140540010458e-16
  outer loop
    vertex -14.0 1.7145055188062944e-15 0.0
    vertex -14.0 11.25 3.9999999999999996
    vertex -14.0 11.25 1.9999999999999998
  endloop
endfacet
facet normal -1.0 7.988300957388246e-17 -1.0286140540010458e-16
  outer loop
    vertex -14.0 1.7145055188062944e-15 0.0
    vertex -14.0 11.25 1.9999999999999998
    vertex -13.999999999999996 36.249999999999986 0.0
  endloop
endfacet
facet normal -1.0 7.988300957388246e-17 -1.0286140540010458e-16
  outer loop
    vertex -13.999999999999996 36.249999999999986 0.0
    vertex -14.0 11.25 1.9999999999999998
    vertex -13.999999999999996 36.249999999999986 1.9999999999999998
  endloop
endfacet
facet normal -1.0 0.0 0.0
  outer loop
    vertex -23.999999999999996 46.249999999999986 1.9999999999999998
    vertex -23.999999999999996 36.249999999999986 0.0
    vertex -23.999999999999996 36.249999999999986 2.000000000000001
  endloop
endfacet
facet normal -1.0 0.0 0.0
  outer loop
    vertex -23.999999999999996 36.249999999999986 0.0
    vertex -23.999999999999996 46.249999999999986 1.9999999999999998
    vertex -23.999999999999996 46.249999999999986 0.0
  endloop
endfacet
facet normal 1.0 -0.0 -0.0
  outer loop
    vertex 23.999999999999996 46.249999999999986 0.0
    vertex 23.999999999999996 36.24999999999999 17.0
    vertex 23.999999999999996 36.24999999999999 0.0
  endloop
endfacet
facet normal 1.0 -0.0 -0.0
  outer loop
    vertex 23.999999999999996 36.24999999999999 17.0
    vertex 23.999999999999996 46.249999999999986 0.0
    vertex 23.999999999999996 46.249999999999986 17.0
  endloop
endfacet
facet normal 1.0 -0.0 -0.0
  outer loop
    vertex 23.999999999999996 46.249999999999986 17.0
    vertex 23.999999999999996 46.249999999999986 0.0
    vertex 23.999999999999996 46.249999999999986 1.9999999999999998
  endloop
endfacet
facet normal 1.3581865288225066e-16 -1.0 -2.6072738829581754e-18
  outer loop
    vertex 23.999999999999996 36.24999999999999 17.0
    vertex 13.999999999999996 36.24999999999999 0.0
    vertex 23.999999999999996 36.24999999999999 0.0
  endloop
endfacet
facet normal 1.3581865288225066e-16 -1.0 -2.6072738829581754e-18
  outer loop
    vertex 13.999999999999996 36.24999999999999 0.0
    vertex 23.999999999999996 36.24999999999999 17.0
    vertex 13.999999999999996 36.24999999999999 1.9999999999999998
  endloop
endfacet
facet normal 1.3581865288225066e-16 -1.0 -2.6072738829581754e-18
  outer loop
    vertex 13.999999999999996 36.24999999999999 1.9999999999999998
    vertex 23.999999999999996 36.24999999999999 17.0
    vertex -13.999999999999996 36.249999999999986 1.9999999999999998
  endloop
endfacet
facet normal 1.3581865288225066e-16 -1.0 -2.6072738829581754e-18
  outer loop
    vertex -13.999999999999996 36.249999999999986 1.9999999999999998
    vertex 23.999999999999996 36.24999999999999 17.0
    vertex -23.999999999999996 36.249999999999986 2.000000000000001
  endloop
endfacet
facet normal 1.3581865288225066e-16 -1.0 -2.6072738829581754e-18
  outer loop
    vertex -23.999999999999996 36.249999999999986 2.000000000000001
    vertex 23.999999999999996 36.24999999999999 17.0
    vertex -23.999999999999996 36.249999999999986 17.0
  endloop
endfacet
facet normal 1.3581865288225066e-16 -1.0 -2.6072738829581754e-18
  outer loop
    vertex -13.999999999999996 36.249999999999986 1.9999999999999998
    vertex -23.999999999999996 36.249999999999986 0.0
    vertex -13.999999999999996 36.249999999999986 0.0
  endloop
endfacet
facet normal 1.3581865288225066e-16 -1.0 -2.6072738829581754e-18
  outer loop
    vertex -23.999999999999996 36.249999999999986 0.0
    vertex -13.999999999999996 36.249999999999986 1.9999999999999998
    vertex -23.999999999999996 36.249999999999986 2.000000000000001
  endloop
endfacet
facet normal 1.0 -0.0 -0.0
  outer loop
    vertex -7.368347502412607 7.5625 -2.8199664825478975e-15
    vertex -7.368347502412607 11.25 1.9999999999999998
    vertex -7.368347502412607 7.562499999999999 1.9999999999999962
  endloop
endfacet
facet normal 1.0 -0.0 -0.0
  outer loop
    vertex -7.368347502412607 11.25 1.9999999999999998
    vertex -7.368347502412607 7.5625 -2.8199664825478975e-15
    vertex -7.368347502412607 11.25 0.0
  endloop
endfacet
facet normal -1.9135677854665242e-16 1.0 7.049916206369747e-16
  outer loop
    vertex -7.368347502412607 7.562499999999999 1.9999999999999962
    vertex 7.368347502412607 7.562500000000003 -2.8199664825478975e-15
    vertex -7.368347502412607 7.5625 -2.8199664825478975e-15
  endloop
endfacet
facet normal -1.9135677854665242e-16 1.0 7.049916206369747e-16
  outer loop
    vertex 7.368347502412607 7.562500000000003 -2.8199664825478975e-15
    vertex -7.368347502412607 7.562499999999999 1.9999999999999962
    vertex 7.368347502412607 7.562500000000002 1.9999999999999962
  endloop
endfacet
facet normal -0.0 1.0 -0.0
  outer loop
    vertex -14.0 11.25 3.9999999999999996
    vertex -11.249999999999998 11.25 1.9999999999999998
    vertex -14.0 11.25 1.9999999999999998
  endloop
endfacet
facet normal -0.0 1.0 -0.0
  outer loop
    vertex -11.249999999999998 11.25 1.9999999999999998
    vertex -14.0 11.25 3.9999999999999996
    vertex -11.249999999999998 11.25 3.9999999999999996
  endloop
endfacet
facet normal 1.0 -0.0 -0.0
  outer loop
    vertex -11.249999999999998 11.25 1.9999999999999998
    vertex -11.249999999999998 3.562499999999999 3.9999999999999996
    vertex -11.249999999999998 3.562499999999999 1.9999999999999998
  endloop
endfacet
facet normal 1.0 -0.0 -0.0
  outer loop
    vertex -11.249999999999998 3.562499999999999 3.9999999999999996
    vertex -11.249999999999998 11.25 1.9999999999999998
    vertex -11.249999999999998 11.25 3.9999999999999996
  endloop
endfacet
facet normal -5.127211786450719e-16 1.0 -0.0
  outer loop
    vertex 11.249999999999998 11.25 3.9999999999999996
    vertex 14.0 11.25 1.9999999999999998
    vertex 11.249999999999998 11.25 1.9999999999999998
  endloop
endfacet
facet normal -5.127211786450719e-16 1.0 -0.0
  outer loop
    vertex 14.0 11.25 1.9999999999999998
    vertex 11.249999999999998 11.25 3.9999999999999996
    vertex 14.0 11.25 3.9999999999999996
  endloop
endfacet
facet normal -1.0 0.0 0.0
  outer loop
    vertex 11.249999999999998 11.25 3.9999999999999996
    vertex 11.249999999999998 3.5625 1.9999999999999998
    vertex 11.249999999999998 3.5625 3.9999999999999996
  endloop
endfacet
facet normal -1.0 0.0 0.0
  outer loop
    vertex 11.249999999999998 3.5625 1.9999999999999998
    vertex 11.249999999999998 11.25 3.9999999999999996
    vertex 11.249999999999998 11.25 1.9999999999999998
  endloop
endfacet
facet normal -0.9914448613738106 -0.13052619222005143 -0.0
  outer loop
    vertex -11.249999999999998 1.3777276490407724e-15 22.0
    vertex -10.866665545752017 -2.9117142574033537 3.9999999999999996
    vertex -10.866665545752017 -2.9117142574033537 22.0
  endloop
endfacet
facet normal -0.9914448613738106 -0.13052619222005143 -0.0
  outer loop
    vertex -10.866665545752017 -2.9117142574033537 3.9999999999999996
    vertex -11.249999999999998 1.3777276490407724e-15 22.0
    vertex -11.249999999999998 1.3775901008684954e-15 3.9999999999999996
  endloop
endfacet
facet normal -1.0 0.0 0.0
  outer loop
    vertex -11.249999999999998 1.3777276490407724e-15 22.0
    vertex -11.249999999999998 3.562499999999999 3.9999999999999996
    vertex -11.249999999999998 1.3775901008684954e-15 3.9999999999999996
  endloop
endfacet
facet normal -1.0 0.0 0.0
  outer loop
    vertex -11.249999999999998 3.562499999999999 3.9999999999999996
    vertex -11.249999999999998 1.3777276490407724e-15 22.0
    vertex -11.249999999999998 3.562499999999999 22.0
  endloop
endfacet
facet normal 0.9238795325112865 -0.38268343236509067 -4.7549677907732416e-34
  outer loop
    vertex 10.304725669163473 -4.268357128701686 4.0
    vertex 10.304725669163473 -4.268357128701686 22.0
    vertex 10.304725669163473 -4.268357128701686 7.000000000000001
  endloop
endfacet
facet normal 0.9238795325112865 -0.38268343236509067 -4.7549677907732416e-34
  outer loop
    vertex 10.304725669163473 -4.268357128701686 22.0
    vertex 10.304725669163473 -4.268357128701686 4.0
    vertex 10.866665545752014 -2.9117142574033665 3.9999999999999996
  endloop
endfacet
facet normal 0.9238795325112865 -0.38268343236509067 -4.7549677907732416e-34
  outer loop
    vertex 10.304725669163473 -4.268357128701686 22.0
    vertex 10.866665545752014 -2.9117142574033665 3.9999999999999996
    vertex 10.866665545752014 -2.9117142574033665 22.0
  endloop
endfacet
facet normal 0.9914448613738104 -0.13052619222005185 0.0
  outer loop
    vertex 11.249999999999998 -1.375481722768786e-19 3.9999999999999996
    vertex 10.866665545752014 -2.9117142574033665 22.0
    vertex 10.866665545752014 -2.9117142574033665 3.9999999999999996
  endloop
endfacet
facet normal 0.9914448613738104 -0.13052619222005185 0.0
  outer loop
    vertex 10.866665545752014 -2.9117142574033665 22.0
    vertex 11.249999999999998 -1.375481722768786e-19 3.9999999999999996
    vertex 11.249999999999998 0.0 22.0
  endloop
endfacet
facet normal 1.0 0.0 0.0
  outer loop
    vertex 11.249999999999998 3.5625 3.9999999999999996
    vertex 11.249999999999998 0.0 22.0
    vertex 11.249999999999998 -1.375481722768786e-19 3.9999999999999996
  endloop
endfacet
facet normal 1.0 0.0 0.0
  outer loop
    vertex 11.249999999999998 0.0 22.0
    vertex 11.249999999999998 3.5625 3.9999999999999996
    vertex 11.249999999999998 3.5625 22.0
  endloop
endfacet
facet normal -5.0064702392343125e-33 -6.877408613844047e-20 1.0
  outer loop
    vertex -12.124355652982143 -6.999999999999997 3.9999999999999996
    vertex -10.866665545752017 -2.9117142574033537 3.9999999999999996
    vertex -11.249999999999998 1.3775901008684954e-15 3.9999999999999996
  endloop
endfacet
facet normal -5.0064702392343125e-33 -6.877408613844047e-20 1.0
  outer loop
    vertex -10.866665545752017 -2.9117142574033537 3.9999999999999996
    vertex -12.124355652982143 -6.999999999999997 3.9999999999999996
    vertex -9.89949493661167 -9.899494936611658 3.9999999999999996
  endloop
endfacet
facet normal -5.0064702392343125e-33 -6.877408613844047e-20 1.0
  outer loop
    vertex -10.866665545752017 -2.9117142574033537 3.9999999999999996
    vertex -9.89949493661167 -9.899494936611658 3.9999999999999996
    vertex -10.304725669163476 -4.268357128701676 4.0
  endloop
endfacet
facet normal -5.0064702392343125e-33 -6.877408613844047e-20 1.0
  outer loop
    vertex -10.304725669163476 -4.268357128701676 4.0
    vertex -9.89949493661167 -9.899494936611658 3.9999999999999996
    vertex -9.742785792574935 -5.6249999999999964 3.9999999999999996
  endloop
endfacet
facet normal -5.0064702392343125e-33 -6.877408613844047e-20 1.0
  outer loop
    vertex -9.742785792574935 -5.6249999999999964 3.9999999999999996
    vertex -9.89949493661167 -9.899494936611658 3.9999999999999996
    vertex -7.000000000000005 -12.124355652982137 3.9999999999999996
  endloop
endfacet
facet normal -5.0064702392343125e-33 -6.877408613844047e-20 1.0
  outer loop
    vertex -9.742785792574935 -5.6249999999999964 3.9999999999999996
    vertex -7.000000000000005 -12.124355652982137 3.9999999999999996
    vertex -7.954951288348663 -7.954951288348654 3.9999999999999996
  endloop
endfacet
facet normal -5.0064702392343125e-33 -6.877408613844047e-20 1.0
  outer loop
    vertex -7.954951288348663 -7.954951288348654 3.9999999999999996
    vertex -7.000000000000005 -12.124355652982137 3.9999999999999996
    vertex -5.6250000000000036 -9.742785792574931 3.9999999999999996
  endloop
endfacet
facet normal -5.0064702392343125e-33 -6.877408613844047e-20 1.0
  outer loop
    vertex -5.6250000000000036 -9.742785792574931 3.9999999999999996
    vertex -7.000000000000005 -12.124355652982137 3.9999999999999996
    vertex -3.6234666314353006 -13.522961568046952 3.9999999999999996
  endloop
endfacet
facet normal -5.0064702392343125e-33 -6.877408613844047e-20 1.0
  outer loop
    vertex -5.6250000000000036 -9.742785792574931 3.9999999999999996
    vertex -3.6234666314353006 -13.522961568046952 3.9999999999999996
    vertex -2.911714257403366 -10.866665545752015 3.9999999999999996
  endloop
endfacet
facet normal -5.0064702392343125e-33 -6.877408613844047e-20 1.0
  outer loop
    vertex -2.911714257403366 -10.866665545752015 3.9999999999999996
    vertex -3.6234666314353006 -13.522961568046952 3.9999999999999996
    vertex -2.5717582782094417e-15 -14.0 3.9999999999999996
  endloop
endfacet
facet normal -5.0064702392343125e-33 -6.877408613844047e-20 1.0
  outer loop
    vertex -2.911714257403366 -10.866665545752015 3.9999999999999996
    vertex -2.5717582782094417e-15 -14.0 3.9999999999999996
    vertex -2.0665914735611576e-15 -11.25 3.9999999999999996
  endloop
endfacet
facet normal -5.0064702392343125e-33 -6.877408613844047e-20 1.0
  outer loop
    vertex -2.0665914735611576e-15 -11.25 3.9999999999999996
    vertex -2.5717582782094417e-15 -14.0 3.9999999999999996
    vertex 3.623466631435284 -13.522961568046957 3.9999999999999996
  endloop
endfacet
facet normal -5.0064702392343125e-33 -6.877408613844047e-20 1.0
  outer loop
    vertex -2.0665914735611576e-15 -11.25 3.9999999999999996
    vertex 3.623466631435284 -13.522961568046957 3.9999999999999996
    vertex 2.9117142574033528 -10.866665545752019 3.9999999999999996
  endloop
endfacet
facet normal -5.0064702392343125e-33 -6.877408613844047e-20 1.0
  outer loop
    vertex 2.9117142574033528 -10.866665545752019 3.9999999999999996
    vertex 3.623466631435284 -13.522961568046957 3.9999999999999996
    vertex 5.62499999999999 -9.742785792574939 3.9999999999999996
  endloop
endfacet
facet normal -5.0064702392343125e-33 -6.877408613844047e-20 1.0
  outer loop
    vertex 5.62499999999999 -9.742785792574939 3.9999999999999996
    vertex 3.623466631435284 -13.522961568046957 3.9999999999999996
    vertex 6.99999999999999 -12.124355652982146 3.9999999999999996
  endloop
endfacet
facet normal -5.0064702392343125e-33 -6.877408613844047e-20 1.0
  outer loop
    vertex 5.62499999999999 -9.742785792574939 3.9999999999999996
    vertex 6.99999999999999 -12.124355652982146 3.9999999999999996
    vertex 7.954951288348657 -7.954951288348661 3.9999999999999996
  endloop
endfacet
facet normal -5.0064702392343125e-33 -6.877408613844047e-20 1.0
  outer loop
    vertex 7.954951288348657 -7.954951288348661 3.9999999999999996
    vertex 6.99999999999999 -12.124355652982146 3.9999999999999996
    vertex 9.899494936611665 -9.899494936611667 3.9999999999999996
  endloop
endfacet
facet normal -5.0064702392343125e-33 -6.877408613844047e-20 1.0
  outer loop
    vertex 7.954951288348657 -7.954951288348661 3.9999999999999996
    vertex 9.899494936611665 -9.899494936611667 3.9999999999999996
    vertex 9.74278579257493 -5.625000000000004 3.9999999999999996
  endloop
endfacet
facet normal -5.0064702392343125e-33 -6.877408613844047e-20 1.0
  outer loop
    vertex 9.74278579257493 -5.625000000000004 3.9999999999999996
    vertex 9.899494936611665 -9.899494936611667 3.9999999999999996
    vertex 10.304725669163473 -4.268357128701686 4.0
  endloop
endfacet
facet normal -5.0064702392343125e-33 -6.877408613844047e-20 1.0
  outer loop
    vertex 10.304725669163473 -4.268357128701686 4.0
    vertex 9.899494936611665 -9.899494936611667 3.9999999999999996
    vertex 12.124355652982137 -7.000000000000005 3.9999999999999996
  endloop
endfacet
facet normal -5.0064702392343125e-33 -6.877408613844047e-20 1.0
  outer loop
    vertex 10.304725669163473 -4.268357128701686 4.0
    vertex 12.124355652982137 -7.000000000000005 3.9999999999999996
    vertex 10.866665545752014 -2.9117142574033665 3.9999999999999996
  endloop
endfacet
facet normal -5.0064702392343125e-33 -6.877408613844047e-20 1.0
  outer loop
    vertex 10.866665545752014 -2.9117142574033665 3.9999999999999996
    vertex 12.124355652982137 -7.000000000000005 3.9999999999999996
    vertex 11.249999999999998 -1.375481722768786e-19 3.9999999999999996
  endloop
endfacet
facet normal -5.0064702392343125e-33 -6.877408613844047e-20 1.0
  outer loop
    vertex 11.249999999999998 -1.375481722768786e-19 3.9999999999999996
    vertex 12.124355652982137 -7.000000000000005 3.9999999999999996
    vertex 11.249999999999998 3.5625 3.9999999999999996
  endloop
endfacet
facet normal -5.0064702392343125e-33 -6.877408613844047e-20 1.0
  outer loop
    vertex 11.249999999999998 3.5625 3.9999999999999996
    vertex 12.124355652982137 -7.000000000000005 3.9999999999999996
    vertex 11.249999999999998 11.25 3.9999999999999996
  endloop
endfacet
facet normal -5.0064702392343125e-33 -6.877408613844047e-20 1.0
  outer loop
    vertex 11.249999999999998 11.25 3.9999999999999996
    vertex 12.124355652982137 -7.000000000000005 3.9999999999999996
    vertex 14.0 11.25 3.9999999999999996
  endloop
endfacet
facet normal -5.0064702392343125e-33 -6.877408613844047e-20 1.0
  outer loop
    vertex 14.0 11.25 3.9999999999999996
    vertex 12.124355652982137 -7.000000000000005 3.9999999999999996
    vertex 13.522961568046952 -3.623466631435301 3.9999999999999996
  endloop
endfacet
facet normal -5.0064702392343125e-33 -6.877408613844047e-20 1.0
  outer loop
    vertex 14.0 11.25 3.9999999999999996
    vertex 13.522961568046952 -3.623466631435301 3.9999999999999996
    vertex 14.0 -1.375481722768786e-19 3.9999999999999996
  endloop
endfacet
facet normal -5.0064702392343125e-33 -6.877408613844047e-20 1.0
  outer loop
    vertex -13.522961568046957 -3.623466631435285 3.9999999999999996
    vertex -14.0 11.25 3.9999999999999996
    vertex -14.0 1.7143679706340176e-15 3.9999999999999996
  endloop
endfacet
facet normal -5.0064702392343125e-33 -6.877408613844047e-20 1.0
  outer loop
    vertex -14.0 11.25 3.9999999999999996
    vertex -13.522961568046957 -3.623466631435285 3.9999999999999996
    vertex -11.249999999999998 11.25 3.9999999999999996
  endloop
endfacet
facet normal -5.0064702392343125e-33 -6.877408613844047e-20 1.0
  outer loop
    vertex -11.249999999999998 11.25 3.9999999999999996
    vertex -13.522961568046957 -3.623466631435285 3.9999999999999996
    vertex -12.124355652982143 -6.999999999999997 3.9999999999999996
  endloop
endfacet
facet normal -5.0064702392343125e-33 -6.877408613844047e-20 1.0
  outer loop
    vertex -11.249999999999998 11.25 3.9999999999999996
    vertex -12.124355652982143 -6.999999999999997 3.9999999999999996
    vertex -11.249999999999998 1.3775901008684954e-15 3.9999999999999996
  endloop
endfacet
facet normal -5.0064702392343125e-33 -6.877408613844047e-20 1.0
  outer loop
    vertex -11.249999999999998 11.25 3.9999999999999996
    vertex -11.249999999999998 1.3775901008684954e-15 3.9999999999999996
    vertex -11.249999999999998 3.562499999999999 3.9999999999999996
  endloop
endfacet
facet normal 0.007859830560537922 -0.9999691110547165 -2.7839965725751545e-18
  outer loop
    vertex -7.368347502412607 1.0226499999999987 4.476432419187048e-16
    vertex -10.249999999999998 0.9999999999999999 22.0
    vertex -10.249999999999998 0.9999999999999999 0.0
  endloop
endfacet
facet normal 0.007859830560537922 -0.9999691110547165 -2.7839965725751545e-18
  outer loop
    vertex -10.249999999999998 0.9999999999999999 22.0
    vertex -7.368347502412607 1.0226499999999987 4.476432419187048e-16
    vertex -7.368347502412607 1.022649999999998 1.9999999999999998
  endloop
endfacet
facet normal 0.0 -0.999999358722492 -0.0011324992737531295
  outer loop
    vertex -10.249999999999998 0.9999999999999999 22.0
    vertex -7.368347502412607 1.022649999999998 1.9999999999999998
    vertex -7.368347502412607 0.9999999999999999 22.0
  endloop
endfacet
facet normal -0.007859830560538067 -0.9999691110547165 5.741992930936247e-18
  outer loop
    vertex 10.249999999999998 0.9999999999999999 22.0
    vertex 7.368347502412605 1.022649999999998 1.1526348625556789e-15
    vertex 10.249999999999998 0.9999999999999999 0.0
  endloop
endfacet
facet normal -0.007859830560538067 -0.9999691110547165 5.741992930936247e-18
  outer loop
    vertex 7.368347502412605 1.022649999999998 1.1526348625556789e-15
    vertex 10.249999999999998 0.9999999999999999 22.0
    vertex 7.368347502412605 1.0226499999999994 1.9999999999999998
  endloop
endfacet
facet normal 6.36858479472626e-19 -0.999999358722492 -0.0011324992737532004
  outer loop
    vertex 7.368347502412605 0.9999999999999999 22.0
    vertex 7.368347502412605 1.0226499999999994 1.9999999999999998
    vertex 10.249999999999998 0.9999999999999999 22.0
  endloop
endfacet
facet normal 0.5643828052175424 -0.825513203513292 0.0
  outer loop
    vertex -6.2790153077151505 11.994749275045644 11.499999999999998
    vertex -7.368347502412607 11.25 0.0
    vertex -6.2790153077151505 11.994749275045644 0.0
  endloop
endfacet
facet normal 0.5643828052175424 -0.825513203513292 0.0
  outer loop
    vertex -7.368347502412607 11.25 0.0
    vertex -6.2790153077151505 11.994749275045644 11.499999999999998
    vertex -7.368347502412607 11.25 1.9999999999999998
  endloop
endfacet
facet normal 0.5643828052175424 -0.825513203513292 0.0
  outer loop
    vertex -7.368347502412607 11.25 1.9999999999999998
    vertex -6.2790153077151505 11.994749275045644 11.499999999999998
    vertex -7.368347502412607 11.25 11.499999999999998
  endloop
endfacet
facet normal -0.5643828052175413 -0.8255132035132926 0.0
  outer loop
    vertex 7.368347502412605 11.25 1.9999999999999998
    vertex 6.279015307715148 11.994749275045642 0.0
    vertex 7.368347502412605 11.25 0.0
  endloop
endfacet
facet normal -0.5643828052175413 -0.8255132035132926 0.0
  outer loop
    vertex 6.279015307715148 11.994749275045642 0.0
    vertex 7.368347502412605 11.25 1.9999999999999998
    vertex 6.279015307715148 11.994749275045642 11.499999999999998
  endloop
endfacet
facet normal -0.5643828052175413 -0.8255132035132926 0.0
  outer loop
    vertex 6.279015307715148 11.994749275045642 11.499999999999998
    vertex 7.368347502412605 11.25 1.9999999999999998
    vertex 7.368347502412605 11.25 11.499999999999998
  endloop
endfacet
facet normal -0.4712008055389918 -0.8820259638238578 -0.0
  outer loop
    vertex 6.279015307715148 11.994749275045642 11.499999999999998
    vertex 5.115109903339733 12.616537279715315 0.0
    vertex 6.279015307715148 11.994749275045642 0.0
  endloop
endfacet
facet normal -0.4712008055389918 -0.8820259638238578 -0.0
  outer loop
    vertex 5.115109903339733 12.616537279715315 0.0
    vertex 6.279015307715148 11.994749275045642 11.499999999999998
    vertex 5.115109903339733 12.616537279715315 11.499999999999998
  endloop
endfacet
facet normal -0.3724225531440785 -0.9280632747338116 -0.0
  outer loop
    vertex 5.115109903339733 12.616537279715315 11.499999999999998
    vertex 3.890454501607429 13.107979300805578 0.0
    vertex 5.115109903339733 12.616537279715315 0.0
  endloop
endfacet
facet normal -0.3724225531440785 -0.9280632747338116 -0.0
  outer loop
    vertex 3.890454501607429 13.107979300805578 0.0
    vertex 5.115109903339733 12.616537279715315 11.499999999999998
    vertex 3.890454501607429 13.107979300805578 11.499999999999998
  endloop
endfacet
facet normal -0.26922119556732305 -0.9630783705687204 -0.0
  outer loop
    vertex 3.890454501607429 13.107979300805578 11.499999999999998
    vertex 2.619593816869294 13.463238689242123 0.0
    vertex 3.890454501607429 13.107979300805578 0.0
  endloop
endfacet
facet normal -0.26922119556732305 -0.9630783705687204 -0.0
  outer loop
    vertex 2.619593816869294 13.463238689242123 0.0
    vertex 3.890454501607429 13.107979300805578 11.499999999999998
    vertex 2.619593816869294 13.463238689242123 11.499999999999998
  endloop
endfacet
facet normal -0.16282241169315242 -0.9866553918417644 -0.0
  outer loop
    vertex 2.619593816869294 13.463238689242123 11.499999999999998
    vertex 1.317621324084372 13.678096179492766 0.0
    vertex 2.619593816869294 13.463238689242123 0.0
  endloop
endfacet
facet normal -0.16282241169315242 -0.9866553918417644 -0.0
  outer loop
    vertex 1.317621324084372 13.678096179492766 0.0
    vertex 2.619593816869294 13.463238689242123 11.499999999999998
    vertex 1.317621324084372 13.678096179492766 11.499999999999998
  endloop
endfacet
facet normal -0.05448985488605221 -0.9985143242410183 -0.0
  outer loop
    vertex 1.317621324084372 13.678096179492766 11.499999999999998
    vertex -1.4099832412739487e-15 13.749999999999998 0.0
    vertex 1.317621324084372 13.678096179492766 0.0
  endloop
endfacet
facet normal -0.05448985488605221 -0.9985143242410183 -0.0
  outer loop
    vertex -1.4099832412739487e-15 13.749999999999998 0.0
    vertex 1.317621324084372 13.678096179492766 11.499999999999998
    vertex -1.4099832412739487e-15 13.749999999999998 11.499999999999998
  endloop
endfacet
facet normal 0.054489854886052236 -0.9985143242410183 -0.0
  outer loop
    vertex -1.4099832412739487e-15 13.749999999999998 11.499999999999998
    vertex -1.317621324084374 13.678096179492766 0.0
    vertex -1.4099832412739487e-15 13.749999999999998 0.0
  endloop
endfacet
facet normal 0.054489854886052236 -0.9985143242410183 -0.0
  outer loop
    vertex -1.317621324084374 13.678096179492766 0.0
    vertex -1.4099832412739487e-15 13.749999999999998 11.499999999999998
    vertex -1.317621324084374 13.678096179492766 11.499999999999998
  endloop
endfacet
facet normal 0.16282241169315242 -0.9866553918417644 -0.0
  outer loop
    vertex -1.317621324084374 13.678096179492766 11.499999999999998
    vertex -2.6195938168692963 13.463238689242123 0.0
    vertex -1.317621324084374 13.678096179492766 0.0
  endloop
endfacet
facet normal 0.16282241169315242 -0.9866553918417644 -0.0
  outer loop
    vertex -2.6195938168692963 13.463238689242123 0.0
    vertex -1.317621324084374 13.678096179492766 11.499999999999998
    vertex -2.6195938168692963 13.463238689242123 11.499999999999998
  endloop
endfacet
facet normal 0.26922119556732305 -0.9630783705687204 -0.0
  outer loop
    vertex -2.6195938168692963 13.463238689242123 11.499999999999998
    vertex -3.8904545016074312 13.107979300805578 0.0
    vertex -2.6195938168692963 13.463238689242123 0.0
  endloop
endfacet
facet normal 0.26922119556732305 -0.9630783705687204 -0.0
  outer loop
    vertex -3.8904545016074312 13.107979300805578 0.0
    vertex -2.6195938168692963 13.463238689242123 11.499999999999998
    vertex -3.8904545016074312 13.107979300805578 11.499999999999998
  endloop
endfacet
facet normal 0.37242255314407874 -0.9280632747338116 -0.0
  outer loop
    vertex -3.8904545016074312 13.107979300805578 11.499999999999998
    vertex -5.115109903339735 12.616537279715315 0.0
    vertex -3.8904545016074312 13.107979300805578 0.0
  endloop
endfacet
facet normal 0.37242255314407874 -0.9280632747338116 -0.0
  outer loop
    vertex -5.115109903339735 12.616537279715315 0.0
    vertex -3.8904545016074312 13.107979300805578 11.499999999999998
    vertex -5.115109903339735 12.616537279715315 11.499999999999998
  endloop
endfacet
facet normal 0.47120080553899085 -0.8820259638238584 -0.0
  outer loop
    vertex -5.115109903339735 12.616537279715315 11.499999999999998
    vertex -6.2790153077151505 11.994749275045644 0.0
    vertex -5.115109903339735 12.616537279715315 0.0
  endloop
endfacet
facet normal 0.47120080553899085 -0.8820259638238584 -0.0
  outer loop
    vertex -6.2790153077151505 11.994749275045644 0.0
    vertex -5.115109903339735 12.616537279715315 11.499999999999998
    vertex -6.2790153077151505 11.994749275045644 11.499999999999998
  endloop
endfacet
facet normal 0.0 0.0 1.0
  outer loop
    vertex -7.368347502412607 11.25 11.499999999999998
    vertex -11.249999999999998 16.249999999999993 11.499999999999998
    vertex -11.249999999999998 11.25 11.499999999999998
  endloop
endfacet
facet normal 0.0 0.0 1.0
  outer loop
    vertex -11.249999999999998 16.249999999999993 11.499999999999998
    vertex -7.368347502412607 11.25 11.499999999999998
    vertex -6.2790153077151505 11.994749275045644 11.499999999999998
  endloop
endfacet
facet normal 0.0 0.0 1.0
  outer loop
    vertex -11.249999999999998 16.249999999999993 11.499999999999998
    vertex -6.2790153077151505 11.994749275045644 11.499999999999998
    vertex -5.115109903339735 12.616537279715315 11.499999999999998
  endloop
endfacet
facet normal 0.0 0.0 1.0
  outer loop
    vertex -11.249999999999998 16.249999999999993 11.499999999999998
    vertex -5.115109903339735 12.616537279715315 11.499999999999998
    vertex -3.8904545016074312 13.107979300805578 11.499999999999998
  endloop
endfacet
facet normal 0.0 0.0 1.0
  outer loop
    vertex -11.249999999999998 16.249999999999993 11.499999999999998
    vertex -3.8904545016074312 13.107979300805578 11.499999999999998
    vertex -2.6195938168692963 13.463238689242123 11.499999999999998
  endloop
endfacet
facet normal 0.0 0.0 1.0
  outer loop
    vertex -11.249999999999998 16.249999999999993 11.499999999999998
    vertex -2.6195938168692963 13.463238689242123 11.499999999999998
    vertex 11.249999999999998 16.249999999999993 11.499999999999998
  endloop
endfacet
facet normal 0.0 0.0 1.0
  outer loop
    vertex 11.249999999999998 16.249999999999993 11.499999999999998
    vertex -2.6195938168692963 13.463238689242123 11.499999999999998
    vertex -1.317621324084374 13.678096179492766 11.499999999999998
  endloop
endfacet
facet normal 0.0 0.0 1.0
  outer loop
    vertex 11.249999999999998 16.249999999999993 11.499999999999998
    vertex -1.317621324084374 13.678096179492766 11.499999999999998
    vertex -1.4099832412739487e-15 13.749999999999998 11.499999999999998
  endloop
endfacet
facet normal 0.0 0.0 1.0
  outer loop
    vertex 11.249999999999998 16.249999999999993 11.499999999999998
    vertex -1.4099832412739487e-15 13.749999999999998 11.499999999999998
    vertex 1.317621324084372 13.678096179492766 11.499999999999998
  endloop
endfacet
facet normal 0.0 0.0 1.0
  outer loop
    vertex 11.249999999999998 16.249999999999993 11.499999999999998
    vertex 1.317621324084372 13.678096179492766 11.499999999999998
    vertex 2.619593816869294 13.463238689242123 11.499999999999998
  endloop
endfacet
facet normal 0.0 0.0 1.0
  outer loop
    vertex 11.249999999999998 16.249999999999993 11.499999999999998
    vertex 2.619593816869294 13.463238689242123 11.499999999999998
    vertex 3.890454501607429 13.107979300805578 11.499999999999998
  endloop
endfacet
facet normal 0.0 0.0 1.0
  outer loop
    vertex 11.249999999999998 16.249999999999993 11.499999999999998
    vertex 3.890454501607429 13.107979300805578 11.499999999999998
    vertex 5.115109903339733 12.616537279715315 11.499999999999998
  endloop
endfacet
facet normal 0.0 0.0 1.0
  outer loop
    vertex 11.249999999999998 16.249999999999993 11.499999999999998
    vertex 5.115109903339733 12.616537279715315 11.499999999999998
    vertex 6.279015307715148 11.994749275045642 11.499999999999998
  endloop
endfacet
facet normal 0.0 0.0 1.0
  outer loop
    vertex 11.249999999999998 16.249999999999993 11.499999999999998
    vertex 6.279015307715148 11.994749275045642 11.499999999999998
    vertex 7.368347502412605 11.25 11.499999999999998
  endloop
endfacet
facet normal 0.0 0.0 1.0
  outer loop
    vertex 11.249999999999998 16.249999999999993 11.499999999999998
    vertex 7.368347502412605 11.25 11.499999999999998
    vertex 11.249999999999998 11.25 11.499999999999998
  endloop
endfacet
facet normal 0.0 -1.0 0.0
  outer loop
    vertex 11.249999999999998 11.25 3.9999999999999996
    vertex 7.368347502412605 11.25 1.9999999999999998
    vertex 11.249999999999998 11.25 1.9999999999999998
  endloop
endfacet
facet normal 0.0 -1.0 0.0
  outer loop
    vertex 7.368347502412605 11.25 1.9999999999999998
    vertex 11.249999999999998 11.25 3.9999999999999996
    vertex 7.368347502412605 11.25 11.499999999999998
  endloop
endfacet
facet normal 0.0 -1.0 0.0
  outer loop
    vertex 7.368347502412605 11.25 11.499999999999998
    vertex 11.249999999999998 11.25 3.9999999999999996
    vertex 11.249999999999998 11.25 11.499999999999998
  endloop
endfacet
facet normal 1.0 -0.0 -0.0
  outer loop
    vertex 11.249999999999998 16.249999999999993 1.9999999999999998
    vertex 11.249999999999998 11.25 3.9999999999999996
    vertex 11.249999999999998 11.25 1.9999999999999998
  endloop
endfacet
facet normal 1.0 -0.0 -0.0
  outer loop
    vertex 11.249999999999998 11.25 3.9999999999999996
    vertex 11.249999999999998 16.249999999999993 1.9999999999999998
    vertex 11.249999999999998 11.25 11.499999999999998
  endloop
endfacet
facet normal 1.0 -0.0 -0.0
  outer loop
    vertex 11.249999999999998 11.25 11.499999999999998
    vertex 11.249999999999998 16.249999999999993 1.9999999999999998
    vertex 11.249999999999998 16.249999999999993 11.499999999999998
  endloop
endfacet
facet normal 0.0 1.0 0.0
  outer loop
    vertex -11.249999999999998 16.249999999999993 11.499999999999998
    vertex 11.249999999999998 16.249999999999993 1.9999999999999998
    vertex -11.249999999999998 16.249999999999993 1.9999999999999998
  endloop
endfacet
facet normal 0.0 1.0 0.0
  outer loop
    vertex 11.249999999999998 16.249999999999993 1.9999999999999998
    vertex -11.249999999999998 16.249999999999993 11.499999999999998
    vertex 11.249999999999998 16.249999999999993 11.499999999999998
  endloop
endfacet
facet normal -1.0 0.0 0.0
  outer loop
    vertex -11.249999999999998 16.249999999999993 11.499999999999998
    vertex -11.249999999999998 11.25 3.9999999999999996
    vertex -11.249999999999998 11.25 11.499999999999998
  endloop
endfacet
facet normal -1.0 0.0 0.0
  outer loop
    vertex -11.249999999999998 11.25 3.9999999999999996
    vertex -11.249999999999998 16.249999999999993 11.499999999999998
    vertex -11.249999999999998 11.25 1.9999999999999998
  endloop
endfacet
facet normal -1.0 0.0 0.0
  outer loop
    vertex -11.249999999999998 11.25 1.9999999999999998
    vertex -11.249999999999998 16.249999999999993 11.499999999999998
    vertex -11.249999999999998 16.249999999999993 1.9999999999999998
  endloop
endfacet
facet normal 0.0 -1.0 0.0
  outer loop
    vertex -7.368347502412607 11.25 11.499999999999998
    vertex -11.249999999999998 11.25 1.9999999999999998
    vertex -7.368347502412607 11.25 1.9999999999999998
  endloop
endfacet
facet normal 0.0 -1.0 0.0
  outer loop
    vertex -11.249999999999998 11.25 1.9999999999999998
    vertex -7.368347502412607 11.25 11.499999999999998
    vertex -11.249999999999998 11.25 3.9999999999999996
  endloop
endfacet
facet normal 0.0 -1.0 0.0
  outer loop
    vertex -11.249999999999998 11.25 3.9999999999999996
    vertex -7.368347502412607 11.25 11.499999999999998
    vertex -11.249999999999998 11.25 11.499999999999998
  endloop
endfacet
endsolid livello6
