solid colonnina
facet normal 0.0 0.0 -1.0
  outer loop
    vertex 9.804319510077116 18.414668773164657 0.0
    vertex 10.08518543427733 13.147047612756303 0.0
    vertex 10.0 12.5 0.0
  endloop
endfacet
facet normal 0.0 0.0 -1.0
  outer loop
    vertex 10.08518543427733 13.147047612756303 0.0
    vertex 9.804319510077116 18.414668773164657 0.0
    vertex 11.427001519328096 18.91082477224856 0.0
  endloop
endfacet
facet normal 0.0 0.0 -1.0
  outer loop
    vertex 10.08518543427733 13.147047612756303 0.0
    vertex 11.427001519328096 18.91082477224856 0.0
    vertex 10.334936490538905 13.75 0.0
  endloop
endfacet
facet normal 0.0 0.0 -1.0
  outer loop
    vertex 10.334936490538905 13.75 0.0
    vertex 11.427001519328096 18.91082477224856 0.0
    vertex 10.732233047033633 14.267766952966367 0.0
  endloop
endfacet
facet normal 0.0 0.0 -1.0
  outer loop
    vertex 10.732233047033633 14.267766952966367 0.0
    vertex 11.427001519328096 18.91082477224856 0.0
    vertex 11.25 14.665063509461095 0.0
  endloop
endfacet
facet normal 0.0 0.0 -1.0
  outer loop
    vertex 11.25 14.665063509461095 0.0
    vertex 11.427001519328096 18.91082477224856 0.0
    vertex 11.852952387243699 14.914814565722669 0.0
  endloop
endfacet
facet normal 0.0 0.0 -1.0
  outer loop
    vertex 11.852952387243699 14.914814565722669 0.0
    vertex 11.427001519328096 18.91082477224856 0.0
    vertex 13.122806601823033 18.970093657492576 0.0
  endloop
endfacet
facet normal 0.0 0.0 -1.0
  outer loop
    vertex 11.852952387243699 14.914814565722669 0.0
    vertex 13.122806601823033 18.970093657492576 0.0
    vertex 12.5 14.999999999999998 0.0
  endloop
endfacet
facet normal 0.0 0.0 -1.0
  outer loop
    vertex 12.5 14.999999999999998 0.0
    vertex 13.122806601823033 18.970093657492576 0.0
    vertex 13.147047612756301 14.914814565722669 0.0
  endloop
endfacet
facet normal 0.0 0.0 -1.0
  outer loop
    vertex 13.147047612756301 14.914814565722669 0.0
    vertex 13.122806601823033 18.970093657492576 0.0
    vertex 14.776168443640302 18.588436352313792 0.0
  endloop
endfacet
facet normal 0.0 0.0 -1.0
  outer loop
    vertex 13.147047612756301 14.914814565722669 0.0
    vertex 14.776168443640302 18.588436352313792 0.0
    vertex 13.75 14.665063509461095 0.0
  endloop
endfacet
facet normal 0.0 0.0 -1.0
  outer loop
    vertex 13.75 14.665063509461095 0.0
    vertex 14.776168443640302 18.588436352313792 0.0
    vertex 14.267766952966367 14.267766952966367 0.0
  endloop
endfacet
facet normal 0.0 0.0 -1.0
  outer loop
    vertex 14.267766952966367 14.267766952966367 0.0
    vertex 14.776168443640302 18.588436352313792 0.0
    vertex 14.665063509461097 13.749999999999998 0.0
  endloop
endfacet
facet normal 0.0 0.0 -1.0
  outer loop
    vertex 14.665063509461097 13.749999999999998 0.0
    vertex 14.776168443640302 18.588436352313792 0.0
    vertex 14.914814565722669 13.147047612756301 0.0
  endloop
endfacet
facet normal 0.0 0.0 -1.0
  outer loop
    vertex 14.914814565722669 13.147047612756301 0.0
    vertex 14.776168443640302 18.588436352313792 0.0
    vertex 16.274413167569694 17.791862171341627 0.0
  endloop
endfacet
facet normal 0.0 0.0 -1.0
  outer loop
    vertex 14.914814565722669 13.147047612756301 0.0
    vertex 16.274413167569694 17.791862171341627 0.0
    vertex 15.0 12.5 0.0
  endloop
endfacet
facet normal 0.0 0.0 -1.0
  outer loop
    vertex 15.0 12.5 0.0
    vertex 16.274413167569694 17.791862171341627 0.0
    vertex 15.195680489922884 6.585331226835342 0.0
  endloop
endfacet
facet normal 0.0 0.0 -1.0
  outer loop
    vertex 15.195680489922884 6.585331226835342 0.0
    vertex 16.274413167569694 17.791862171341627 0.0
    vertex 16.63465632860826 7.484562128358113 0.0
  endloop
endfacet
facet normal 0.0 0.0 -1.0
  outer loop
    vertex 16.63465632860826 7.484562128358113 0.0
    vertex 16.274413167569694 17.791862171341627 0.0
    vertex 17.05965531343391 17.05965531343391 0.0
  endloop
endfacet
facet normal 0.0 0.0 -1.0
  outer loop
    vertex 16.63465632860826 7.484562128358113 0.0
    vertex 17.05965531343391 17.05965531343391 0.0
    vertex 17.791862171341627 8.725586832430308 0.0
  endloop
endfacet
facet normal 0.0 0.0 -1.0
  outer loop
    vertex 17.791862171341627 8.725586832430308 0.0
    vertex 17.05965531343391 17.05965531343391 0.0
    vertex 17.51543787164189 16.63465632860826 0.0
  endloop
endfacet
facet normal 0.0 0.0 -1.0
  outer loop
    vertex 17.791862171341627 8.725586832430308 0.0
    vertex 17.51543787164189 16.63465632860826 0.0
    vertex 18.414668773164657 15.195680489922884 0.0
  endloop
endfacet
facet normal 0.0 0.0 -1.0
  outer loop
    vertex 17.791862171341627 8.725586832430308 0.0
    vertex 18.414668773164657 15.195680489922884 0.0
    vertex 18.588436352313792 10.223831556359698 0.0
  endloop
endfacet
facet normal 0.0 0.0 -1.0
  outer loop
    vertex 18.588436352313792 10.223831556359698 0.0
    vertex 18.414668773164657 15.195680489922884 0.0
    vertex 18.91082477224856 13.572998480671908 0.0
  endloop
endfacet
facet normal 0.0 0.0 -1.0
  outer loop
    vertex 18.588436352313792 10.223831556359698 0.0
    vertex 18.91082477224856 13.572998480671908 0.0
    vertex 18.970093657492576 11.877193398176969 0.0
  endloop
endfacet
facet normal 0.0 0.0 -1.0
  outer loop
    vertex 6.411563647686207 14.776168443640305 0.0
    vertex 6.089175227751439 11.427001519328096 0.0
    vertex 6.029906342507424 13.122806601823033 0.0
  endloop
endfacet
facet normal 0.0 0.0 -1.0
  outer loop
    vertex 6.089175227751439 11.427001519328096 0.0
    vertex 6.411563647686207 14.776168443640305 0.0
    vertex 6.585331226835339 9.804319510077116 0.0
  endloop
endfacet
facet normal 0.0 0.0 -1.0
  outer loop
    vertex 6.585331226835339 9.804319510077116 0.0
    vertex 6.411563647686207 14.776168443640305 0.0
    vertex 7.208137828658372 16.274413167569694 0.0
  endloop
endfacet
facet normal 0.0 0.0 -1.0
  outer loop
    vertex 6.585331226835339 9.804319510077116 0.0
    vertex 7.208137828658372 16.274413167569694 0.0
    vertex 7.48456212835811 8.365343671391743 0.0
  endloop
endfacet
facet normal 0.0 0.0 -1.0
  outer loop
    vertex 7.48456212835811 8.365343671391743 0.0
    vertex 7.208137828658372 16.274413167569694 0.0
    vertex 8.365343671391743 17.51543787164189 0.0
  endloop
endfacet
facet normal 0.0 0.0 -1.0
  outer loop
    vertex 7.48456212835811 8.365343671391743 0.0
    vertex 8.365343671391743 17.51543787164189 0.0
    vertex 7.9403446865660925 7.9403446865660925 0.0
  endloop
endfacet
facet normal 0.0 0.0 -1.0
  outer loop
    vertex 7.9403446865660925 7.9403446865660925 0.0
    vertex 8.365343671391743 17.51543787164189 0.0
    vertex 8.725586832430302 7.208137828658375 0.0
  endloop
endfacet
facet normal 0.0 0.0 -1.0
  outer loop
    vertex 8.725586832430302 7.208137828658375 0.0
    vertex 8.365343671391743 17.51543787164189 0.0
    vertex 9.804319510077116 18.414668773164657 0.0
  endloop
endfacet
facet normal 0.0 0.0 -1.0
  outer loop
    vertex 8.725586832430302 7.208137828658375 0.0
    vertex 9.804319510077116 18.414668773164657 0.0
    vertex 10.0 12.5 0.0
  endloop
endfacet
facet normal 0.0 0.0 -1.0
  outer loop
    vertex 8.725586832430302 7.208137828658375 0.0
    vertex 10.0 12.5 0.0
    vertex 10.223831556359697 6.411563647686206 0.0
  endloop
endfacet
facet normal 0.0 0.0 -1.0
  outer loop
    vertex 10.223831556359697 6.411563647686206 0.0
    vertex 10.0 12.5 0.0
    vertex 10.08518543427733 11.852952387243699 0.0
  endloop
endfacet
facet normal 0.0 0.0 -1.0
  outer loop
    vertex 10.223831556359697 6.411563647686206 0.0
    vertex 10.08518543427733 11.852952387243699 0.0
    vertex 10.334936490538901 11.250000000000002 0.0
  endloop
endfacet
facet normal 0.0 0.0 -1.0
  outer loop
    vertex 10.223831556359697 6.411563647686206 0.0
    vertex 10.334936490538901 11.250000000000002 0.0
    vertex 11.877193398176965 6.029906342507424 0.0
  endloop
endfacet
facet normal 0.0 0.0 -1.0
  outer loop
    vertex 11.877193398176965 6.029906342507424 0.0
    vertex 10.334936490538901 11.250000000000002 0.0
    vertex 10.732233047033631 10.732233047033633 0.0
  endloop
endfacet
facet normal 0.0 0.0 -1.0
  outer loop
    vertex 11.877193398176965 6.029906342507424 0.0
    vertex 10.732233047033631 10.732233047033633 0.0
    vertex 11.25 10.334936490538905 0.0
  endloop
endfacet
facet normal 0.0 0.0 -1.0
  outer loop
    vertex 11.877193398176965 6.029906342507424 0.0
    vertex 11.25 10.334936490538905 0.0
    vertex 11.852952387243695 10.085185434277331 0.0
  endloop
endfacet
facet normal 0.0 0.0 -1.0
  outer loop
    vertex 11.877193398176965 6.029906342507424 0.0
    vertex 11.852952387243695 10.085185434277331 0.0
    vertex 12.5 10.0 0.0
  endloop
endfacet
facet normal 0.0 0.0 -1.0
  outer loop
    vertex 11.877193398176965 6.029906342507424 0.0
    vertex 12.5 10.0 0.0
    vertex 13.5729984806719 6.089175227751441 0.0
  endloop
endfacet
facet normal 0.0 0.0 -1.0
  outer loop
    vertex 13.5729984806719 6.089175227751441 0.0
    vertex 12.5 10.0 0.0
    vertex 13.147047612756301 10.08518543427733 0.0
  endloop
endfacet
facet normal 0.0 0.0 -1.0
  outer loop
    vertex 13.5729984806719 6.089175227751441 0.0
    vertex 13.147047612756301 10.08518543427733 0.0
    vertex 13.75 10.334936490538903 0.0
  endloop
endfacet
facet normal 0.0 0.0 -1.0
  outer loop
    vertex 13.5729984806719 6.089175227751441 0.0
    vertex 13.75 10.334936490538903 0.0
    vertex 15.195680489922884 6.585331226835342 0.0
  endloop
endfacet
facet normal 0.0 0.0 -1.0
  outer loop
    vertex 15.195680489922884 6.585331226835342 0.0
    vertex 13.75 10.334936490538903 0.0
    vertex 14.267766952966367 10.732233047033633 0.0
  endloop
endfacet
facet normal 0.0 0.0 -1.0
  outer loop
    vertex 15.195680489922884 6.585331226835342 0.0
    vertex 14.267766952966367 10.732233047033633 0.0
    vertex 14.665063509461095 11.25 0.0
  endloop
endfacet
facet normal 0.0 0.0 -1.0
  outer loop
    vertex 15.195680489922884 6.585331226835342 0.0
    vertex 14.665063509461095 11.25 0.0
    vertex 14.914814565722669 11.852952387243697 0.0
  endloop
endfacet
facet normal 0.0 0.0 -1.0
  outer loop
    vertex 15.195680489922884 6.585331226835342 0.0
    vertex 14.914814565722669 11.852952387243697 0.0
    vertex 15.0 12.5 0.0
  endloop
endfacet
facet normal -0.0 -0.0 1.0
  outer loop
    vertex 6.089175227751439 11.427001519328096 3.0
    vertex 6.411563647686207 14.776168443640305 3.0
    vertex 6.029906342507424 13.122806601823033 3.0
  endloop
endfacet
facet normal -0.0 -0.0 1.0
  outer loop
    vertex 6.411563647686207 14.776168443640305 3.0
    vertex 6.089175227751439 11.427001519328096 3.0
    vertex 6.585331226835339 9.804319510077116 3.0
  endloop
endfacet
facet normal -0.0 -0.0 1.0
  outer loop
    vertex 6.411563647686207 14.776168443640305 3.0
    vertex 6.585331226835339 9.804319510077116 3.0
    vertex 7.208137828658372 16.274413167569694 3.0
  endloop
endfacet
facet normal -0.0 -0.0 1.0
  outer loop
    vertex 7.208137828658372 16.274413167569694 3.0
    vertex 6.585331226835339 9.804319510077116 3.0
    vertex 7.48456212835811 8.365343671391743 3.0
  endloop
endfacet
facet normal -0.0 -0.0 1.0
  outer loop
    vertex 7.208137828658372 16.274413167569694 3.0
    vertex 7.48456212835811 8.365343671391743 3.0
    vertex 8.365343671391743 17.51543787164189 3.0
  endloop
endfacet
facet normal -0.0 -0.0 1.0
  outer loop
    vertex 8.365343671391743 17.51543787164189 3.0
    vertex 7.48456212835811 8.365343671391743 3.0
    vertex 7.9403446865660925 7.9403446865660925 3.0
  endloop
endfacet
facet normal -0.0 -0.0 1.0
  outer loop
    vertex 8.365343671391743 17.51543787164189 3.0
    vertex 7.9403446865660925 7.9403446865660925 3.0
    vertex 8.508705171076995 12.763752893088364 3.0
  endloop
endfacet
facet normal -0.0 -0.0 1.0
  outer loop
    vertex 8.508705171076995 12.763752893088364 3.0
    vertex 7.9403446865660925 7.9403446865660925 3.0
    vertex 8.725586832430302 7.208137828658375 3.0
  endloop
endfacet
facet normal -0.0 -0.0 1.0
  outer loop
    vertex 8.508705171076995 12.763752893088364 3.0
    vertex 8.725586832430302 7.208137828658375 3.0
    vertex 8.576440972477103 11.721742614848031 3.0
  endloop
endfacet
facet normal -0.0 -0.0 1.0
  outer loop
    vertex 8.576440972477103 11.721742614848031 3.0
    vertex 8.725586832430302 7.208137828658375 3.0
    vertex 8.911560837615031 10.73276929127466 3.0
  endloop
endfacet
facet normal -0.0 -0.0 1.0
  outer loop
    vertex 8.911560837615031 10.73276929127466 3.0
    vertex 8.725586832430302 7.208137828658375 3.0
    vertex 10.223831556359697 6.411563647686206 3.0
  endloop
endfacet
facet normal -0.0 -0.0 1.0
  outer loop
    vertex 8.911560837615031 10.73276929127466 3.0
    vertex 10.223831556359697 6.411563647686206 3.0
    vertex 9.49122690149339 9.864229820014096 3.0
  endloop
endfacet
facet normal -0.0 -0.0 1.0
  outer loop
    vertex 9.49122690149339 9.864229820014096 3.0
    vertex 10.223831556359697 6.411563647686206 3.0
    vertex 10.275935879802331 9.175313730703396 3.0
  endloop
endfacet
facet normal -0.0 -0.0 1.0
  outer loop
    vertex 10.275935879802331 9.175313730703396 3.0
    vertex 10.223831556359697 6.411563647686206 3.0
    vertex 11.877193398176965 6.029906342507424 3.0
  endloop
endfacet
facet normal -0.0 -0.0 1.0
  outer loop
    vertex 10.275935879802331 9.175313730703396 3.0
    vertex 11.877193398176965 6.029906342507424 3.0
    vertex 11.212211152463007 8.712969516341419 3.0
  endloop
endfacet
facet normal -0.0 -0.0 1.0
  outer loop
    vertex 11.212211152463007 8.712969516341419 3.0
    vertex 11.877193398176965 6.029906342507424 3.0
    vertex 12.236247106911636 8.508705171076995 3.0
  endloop
endfacet
facet normal -0.0 -0.0 1.0
  outer loop
    vertex 12.236247106911636 8.508705171076995 3.0
    vertex 11.877193398176965 6.029906342507424 3.0
    vertex 13.5729984806719 6.089175227751441 3.0
  endloop
endfacet
facet normal -0.0 -0.0 1.0
  outer loop
    vertex 12.236247106911636 8.508705171076995 3.0
    vertex 13.5729984806719 6.089175227751441 3.0
    vertex 13.278257385151969 8.576440972477103 3.0
  endloop
endfacet
facet normal -0.0 -0.0 1.0
  outer loop
    vertex 13.278257385151969 8.576440972477103 3.0
    vertex 13.5729984806719 6.089175227751441 3.0
    vertex 14.267230708725338 8.911560837615031 3.0
  endloop
endfacet
facet normal -0.0 -0.0 1.0
  outer loop
    vertex 14.267230708725338 8.911560837615031 3.0
    vertex 13.5729984806719 6.089175227751441 3.0
    vertex 15.195680489922884 6.585331226835342 3.0
  endloop
endfacet
facet normal -0.0 -0.0 1.0
  outer loop
    vertex 14.267230708725338 8.911560837615031 3.0
    vertex 15.195680489922884 6.585331226835342 3.0
    vertex 15.135770179985904 9.491226901493391 3.0
  endloop
endfacet
facet normal -0.0 -0.0 1.0
  outer loop
    vertex 15.135770179985904 9.491226901493391 3.0
    vertex 15.195680489922884 6.585331226835342 3.0
    vertex 15.824686269296603 10.275935879802335 3.0
  endloop
endfacet
facet normal -0.0 -0.0 1.0
  outer loop
    vertex 15.824686269296603 10.275935879802335 3.0
    vertex 15.195680489922884 6.585331226835342 3.0
    vertex 16.63465632860826 7.484562128358113 3.0
  endloop
endfacet
facet normal -0.0 -0.0 1.0
  outer loop
    vertex 15.824686269296603 10.275935879802335 3.0
    vertex 16.63465632860826 7.484562128358113 3.0
    vertex 16.28703048365858 11.212211152463007 3.0
  endloop
endfacet
facet normal -0.0 -0.0 1.0
  outer loop
    vertex 16.28703048365858 11.212211152463007 3.0
    vertex 16.63465632860826 7.484562128358113 3.0
    vertex 16.491294828923003 12.236247106911637 3.0
  endloop
endfacet
facet normal -0.0 -0.0 1.0
  outer loop
    vertex 8.365343671391743 17.51543787164189 3.0
    vertex 8.712969516341419 13.78778884753699 3.0
    vertex 9.804319510077116 18.414668773164657 3.0
  endloop
endfacet
facet normal -0.0 -0.0 1.0
  outer loop
    vertex 8.712969516341419 13.78778884753699 3.0
    vertex 8.365343671391743 17.51543787164189 3.0
    vertex 8.508705171076995 12.763752893088364 3.0
  endloop
endfacet
facet normal -0.0 -0.0 1.0
  outer loop
    vertex 9.804319510077116 18.414668773164657 3.0
    vertex 8.712969516341419 13.78778884753699 3.0
    vertex 9.175313730703396 14.724064120197667 3.0
  endloop
endfacet
facet normal -0.0 -0.0 1.0
  outer loop
    vertex 9.804319510077116 18.414668773164657 3.0
    vertex 9.175313730703396 14.724064120197667 3.0
    vertex 9.864229820014096 15.50877309850661 3.0
  endloop
endfacet
facet normal -0.0 -0.0 1.0
  outer loop
    vertex 9.804319510077116 18.414668773164657 3.0
    vertex 9.864229820014096 15.50877309850661 3.0
    vertex 11.427001519328096 18.91082477224856 3.0
  endloop
endfacet
facet normal -0.0 -0.0 1.0
  outer loop
    vertex 11.427001519328096 18.91082477224856 3.0
    vertex 9.864229820014096 15.50877309850661 3.0
    vertex 10.73276929127466 16.08843916238497 3.0
  endloop
endfacet
facet normal -0.0 -0.0 1.0
  outer loop
    vertex 11.427001519328096 18.91082477224856 3.0
    vertex 10.73276929127466 16.08843916238497 3.0
    vertex 11.72174261484803 16.423559027522895 3.0
  endloop
endfacet
facet normal -0.0 -0.0 1.0
  outer loop
    vertex 11.427001519328096 18.91082477224856 3.0
    vertex 11.72174261484803 16.423559027522895 3.0
    vertex 13.122806601823033 18.970093657492576 3.0
  endloop
endfacet
facet normal -0.0 -0.0 1.0
  outer loop
    vertex 13.122806601823033 18.970093657492576 3.0
    vertex 11.72174261484803 16.423559027522895 3.0
    vertex 12.763752893088364 16.491294828923003 3.0
  endloop
endfacet
facet normal -0.0 -0.0 1.0
  outer loop
    vertex 13.122806601823033 18.970093657492576 3.0
    vertex 12.763752893088364 16.491294828923003 3.0
    vertex 13.78778884753699 16.28703048365858 3.0
  endloop
endfacet
facet normal -0.0 -0.0 1.0
  outer loop
    vertex 13.122806601823033 18.970093657492576 3.0
    vertex 13.78778884753699 16.28703048365858 3.0
    vertex 14.776168443640302 18.588436352313792 3.0
  endloop
endfacet
facet normal -0.0 -0.0 1.0
  outer loop
    vertex 14.776168443640302 18.588436352313792 3.0
    vertex 13.78778884753699 16.28703048365858 3.0
    vertex 14.724064120197667 15.824686269296603 3.0
  endloop
endfacet
facet normal -0.0 -0.0 1.0
  outer loop
    vertex 14.776168443640302 18.588436352313792 3.0
    vertex 14.724064120197667 15.824686269296603 3.0
    vertex 15.508773098506607 15.135770179985904 3.0
  endloop
endfacet
facet normal -0.0 -0.0 1.0
  outer loop
    vertex 14.776168443640302 18.588436352313792 3.0
    vertex 15.508773098506607 15.135770179985904 3.0
    vertex 16.274413167569694 17.791862171341627 3.0
  endloop
endfacet
facet normal -0.0 -0.0 1.0
  outer loop
    vertex 16.274413167569694 17.791862171341627 3.0
    vertex 15.508773098506607 15.135770179985904 3.0
    vertex 16.08843916238497 14.267230708725338 3.0
  endloop
endfacet
facet normal -0.0 -0.0 1.0
  outer loop
    vertex 16.274413167569694 17.791862171341627 3.0
    vertex 16.08843916238497 14.267230708725338 3.0
    vertex 16.423559027522895 13.278257385151969 3.0
  endloop
endfacet
facet normal -0.0 -0.0 1.0
  outer loop
    vertex 16.274413167569694 17.791862171341627 3.0
    vertex 16.423559027522895 13.278257385151969 3.0
    vertex 17.05965531343391 17.05965531343391 3.0
  endloop
endfacet
facet normal -0.0 -0.0 1.0
  outer loop
    vertex 17.05965531343391 17.05965531343391 3.0
    vertex 16.423559027522895 13.278257385151969 3.0
    vertex 16.491294828923003 12.236247106911637 3.0
  endloop
endfacet
facet normal -0.0 -0.0 1.0
  outer loop
    vertex 17.05965531343391 17.05965531343391 3.0
    vertex 16.491294828923003 12.236247106911637 3.0
    vertex 16.63465632860826 7.484562128358113 3.0
  endloop
endfacet
facet normal -0.0 -0.0 1.0
  outer loop
    vertex 17.05965531343391 17.05965531343391 3.0
    vertex 16.63465632860826 7.484562128358113 3.0
    vertex 17.791862171341627 8.725586832430308 3.0
  endloop
endfacet
facet normal -0.0 -0.0 1.0
  outer loop
    vertex 17.05965531343391 17.05965531343391 3.0
    vertex 17.791862171341627 8.725586832430308 3.0
    vertex 17.51543787164189 16.63465632860826 3.0
  endloop
endfacet
facet normal -0.0 -0.0 1.0
  outer loop
    vertex 17.51543787164189 16.63465632860826 3.0
    vertex 17.791862171341627 8.725586832430308 3.0
    vertex 18.414668773164657 15.195680489922884 3.0
  endloop
endfacet
facet normal -0.0 -0.0 1.0
  outer loop
    vertex 18.414668773164657 15.195680489922884 3.0
    vertex 17.791862171341627 8.725586832430308 3.0
    vertex 18.588436352313792 10.223831556359698 3.0
  endloop
endfacet
facet normal -0.0 -0.0 1.0
  outer loop
    vertex 18.414668773164657 15.195680489922884 3.0
    vertex 18.588436352313792 10.223831556359698 3.0
    vertex 18.91082477224856 13.572998480671908 3.0
  endloop
endfacet
facet normal -0.0 -0.0 1.0
  outer loop
    vertex 18.91082477224856 13.572998480671908 3.0
    vertex 18.588436352313792 10.223831556359698 3.0
    vertex 18.970093657492576 11.877193398176969 3.0
  endloop
endfacet
facet normal 0.6819767936411015 0.7313738120380047 0.0
  outer loop
    vertex 16.274413167569694 17.791862171341627 3.0
    vertex 17.05965531343391 17.05965531343391 0.0
    vertex 16.274413167569694 17.791862171341627 0.0
  endloop
endfacet
facet normal 0.6819767936411015 0.7313738120380047 0.0
  outer loop
    vertex 17.05965531343391 17.05965531343391 0.0
    vertex 16.274413167569694 17.791862171341627 3.0
    vertex 17.05965531343391 17.05965531343391 3.0
  endloop
endfacet
facet normal 0.6819767936411052 0.7313738120380011 0.0
  outer loop
    vertex 17.05965531343391 17.05965531343391 3.0
    vertex 17.51543787164189 16.63465632860826 0.0
    vertex 17.05965531343391 17.05965531343391 0.0
  endloop
endfacet
facet normal 0.6819767936411052 0.7313738120380011 0.0
  outer loop
    vertex 17.51543787164189 16.63465632860826 0.0
    vertex 17.05965531343391 17.05965531343391 3.0
    vertex 17.51543787164189 16.63465632860826 3.0
  endloop
endfacet
facet normal 0.8480324695524201 0.529944271206722 0.0
  outer loop
    vertex 17.51543787164189 16.63465632860826 0.0
    vertex 18.414668773164657 15.195680489922884 3.0
    vertex 18.414668773164657 15.195680489922884 0.0
  endloop
endfacet
facet normal 0.8480324695524201 0.529944271206722 0.0
  outer loop
    vertex 18.414668773164657 15.195680489922884 3.0
    vertex 17.51543787164189 16.63465632860826 0.0
    vertex 17.51543787164189 16.63465632860826 3.0
  endloop
endfacet
facet normal 0.9562961341036544 0.2923999040670249 0.0
  outer loop
    vertex 18.414668773164657 15.195680489922884 0.0
    vertex 18.91082477224856 13.572998480671908 3.0
    vertex 18.91082477224856 13.572998480671908 0.0
  endloop
endfacet
facet normal 0.9562961341036544 0.2923999040670249 0.0
  outer loop
    vertex 18.91082477224856 13.572998480671908 3.0
    vertex 18.414668773164657 15.195680489922884 0.0
    vertex 18.414668773164657 15.195680489922884 3.0
  endloop
endfacet
facet normal 0.9993897974698103 0.034928966678843675 0.0
  outer loop
    vertex 18.91082477224856 13.572998480671908 0.0
    vertex 18.970093657492576 11.877193398176969 3.0
    vertex 18.970093657492576 11.877193398176969 0.0
  endloop
endfacet
facet normal 0.9993897974698103 0.034928966678843675 0.0
  outer loop
    vertex 18.970093657492576 11.877193398176969 3.0
    vertex 18.91082477224856 13.572998480671908 0.0
    vertex 18.91082477224856 13.572998480671908 3.0
  endloop
endfacet
facet normal 0.9743766977081271 -0.22492232206565335 0.0
  outer loop
    vertex 18.970093657492576 11.877193398176969 0.0
    vertex 18.588436352313792 10.223831556359698 3.0
    vertex 18.588436352313792 10.223831556359698 0.0
  endloop
endfacet
facet normal 0.9743766977081271 -0.22492232206565335 0.0
  outer loop
    vertex 18.588436352313792 10.223831556359698 3.0
    vertex 18.970093657492576 11.877193398176969 0.0
    vertex 18.970093657492576 11.877193398176969 3.0
  endloop
endfacet
facet normal 0.8829614362312626 -0.46944552626308633 0.0
  outer loop
    vertex 18.588436352313792 10.223831556359698 0.0
    vertex 17.791862171341627 8.725586832430308 3.0
    vertex 17.791862171341627 8.725586832430308 0.0
  endloop
endfacet
facet normal 0.8829614362312626 -0.46944552626308633 0.0
  outer loop
    vertex 17.791862171341627 8.725586832430308 3.0
    vertex 18.588436352313792 10.223831556359698 0.0
    vertex 18.588436352313792 10.223831556359698 3.0
  endloop
endfacet
facet normal 0.731373812038003 -0.6819767936411033 0.0
  outer loop
    vertex 17.791862171341627 8.725586832430308 0.0
    vertex 16.63465632860826 7.484562128358113 3.0
    vertex 16.63465632860826 7.484562128358113 0.0
  endloop
endfacet
facet normal 0.731373812038003 -0.6819767936411033 0.0
  outer loop
    vertex 16.63465632860826 7.484562128358113 3.0
    vertex 17.791862171341627 8.725586832430308 0.0
    vertex 17.791862171341627 8.725586832430308 3.0
  endloop
endfacet
facet normal 0.5299442712067233 -0.8480324695524194 0.0
  outer loop
    vertex 16.63465632860826 7.484562128358113 3.0
    vertex 15.195680489922884 6.585331226835342 0.0
    vertex 16.63465632860826 7.484562128358113 0.0
  endloop
endfacet
facet normal 0.5299442712067233 -0.8480324695524194 0.0
  outer loop
    vertex 15.195680489922884 6.585331226835342 0.0
    vertex 16.63465632860826 7.484562128358113 3.0
    vertex 15.195680489922884 6.585331226835342 3.0
  endloop
endfacet
facet normal 0.29239990406702315 -0.956296134103655 0.0
  outer loop
    vertex 15.195680489922884 6.585331226835342 3.0
    vertex 13.5729984806719 6.089175227751441 0.0
    vertex 15.195680489922884 6.585331226835342 0.0
  endloop
endfacet
facet normal 0.29239990406702315 -0.956296134103655 0.0
  outer loop
    vertex 13.5729984806719 6.089175227751441 0.0
    vertex 15.195680489922884 6.585331226835342 3.0
    vertex 13.5729984806719 6.089175227751441 3.0
  endloop
endfacet
facet normal 0.0349289666788437 -0.9993897974698103 0.0
  outer loop
    vertex 13.5729984806719 6.089175227751441 3.0
    vertex 11.877193398176965 6.029906342507424 0.0
    vertex 13.5729984806719 6.089175227751441 0.0
  endloop
endfacet
facet normal 0.0349289666788437 -0.9993897974698103 0.0
  outer loop
    vertex 11.877193398176965 6.029906342507424 0.0
    vertex 13.5729984806719 6.089175227751441 3.0
    vertex 11.877193398176965 6.029906342507424 3.0
  endloop
endfacet
facet normal -0.2249223220656527 -0.9743766977081271 -0.0
  outer loop
    vertex 11.877193398176965 6.029906342507424 3.0
    vertex 10.223831556359697 6.411563647686206 0.0
    vertex 11.877193398176965 6.029906342507424 0.0
  endloop
endfacet
facet normal -0.2249223220656527 -0.9743766977081271 -0.0
  outer loop
    vertex 10.223831556359697 6.411563647686206 0.0
    vertex 11.877193398176965 6.029906342507424 3.0
    vertex 10.223831556359697 6.411563647686206 3.0
  endloop
endfacet
facet normal -0.4694455262630874 -0.8829614362312622 -0.0
  outer loop
    vertex 10.223831556359697 6.411563647686206 3.0
    vertex 8.725586832430302 7.208137828658375 0.0
    vertex 10.223831556359697 6.411563647686206 0.0
  endloop
endfacet
facet normal -0.4694455262630874 -0.8829614362312622 -0.0
  outer loop
    vertex 8.725586832430302 7.208137828658375 0.0
    vertex 10.223831556359697 6.411563647686206 3.0
    vertex 8.725586832430302 7.208137828658375 3.0
  endloop
endfacet
facet normal -0.6819767936411041 -0.7313738120380021 -0.0
  outer loop
    vertex 8.725586832430302 7.208137828658375 3.0
    vertex 7.9403446865660925 7.9403446865660925 0.0
    vertex 8.725586832430302 7.208137828658375 0.0
  endloop
endfacet
facet normal -0.6819767936411041 -0.7313738120380021 -0.0
  outer loop
    vertex 7.9403446865660925 7.9403446865660925 0.0
    vertex 8.725586832430302 7.208137828658375 3.0
    vertex 7.9403446865660925 7.9403446865660925 3.0
  endloop
endfacet
facet normal -0.681976793641103 -0.7313738120380033 -0.0
  outer loop
    vertex 7.9403446865660925 7.9403446865660925 3.0
    vertex 7.48456212835811 8.365343671391743 0.0
    vertex 7.9403446865660925 7.9403446865660925 0.0
  endloop
endfacet
facet normal -0.681976793641103 -0.7313738120380033 -0.0
  outer loop
    vertex 7.48456212835811 8.365343671391743 0.0
    vertex 7.9403446865660925 7.9403446865660925 3.0
    vertex 7.48456212835811 8.365343671391743 3.0
  endloop
endfacet
facet normal -0.848032469552419 -0.529944271206724 -0.0
  outer loop
    vertex 6.585331226835339 9.804319510077116 3.0
    vertex 7.48456212835811 8.365343671391743 0.0
    vertex 7.48456212835811 8.365343671391743 3.0
  endloop
endfacet
facet normal -0.848032469552419 -0.529944271206724 -0.0
  outer loop
    vertex 7.48456212835811 8.365343671391743 0.0
    vertex 6.585331226835339 9.804319510077116 3.0
    vertex 6.585331226835339 9.804319510077116 0.0
  endloop
endfacet
facet normal -0.9562961341036551 -0.29239990406702265 -0.0
  outer loop
    vertex 6.089175227751439 11.427001519328096 3.0
    vertex 6.585331226835339 9.804319510077116 0.0
    vertex 6.585331226835339 9.804319510077116 3.0
  endloop
endfacet
facet normal -0.9562961341036551 -0.29239990406702265 -0.0
  outer loop
    vertex 6.585331226835339 9.804319510077116 0.0
    vertex 6.089175227751439 11.427001519328096 3.0
    vertex 6.089175227751439 11.427001519328096 0.0
  endloop
endfacet
facet normal -0.9993897974698103 -0.03492896667884287 -0.0
  outer loop
    vertex 6.029906342507424 13.122806601823033 3.0
    vertex 6.089175227751439 11.427001519328096 0.0
    vertex 6.089175227751439 11.427001519328096 3.0
  endloop
endfacet
facet normal -0.9993897974698103 -0.03492896667884287 -0.0
  outer loop
    vertex 6.089175227751439 11.427001519328096 0.0
    vertex 6.029906342507424 13.122806601823033 3.0
    vertex 6.029906342507424 13.122806601823033 0.0
  endloop
endfacet
facet normal -0.9743766977081271 0.22492232206565319 0.0
  outer loop
    vertex 6.411563647686207 14.776168443640305 3.0
    vertex 6.029906342507424 13.122806601823033 0.0
    vertex 6.029906342507424 13.122806601823033 3.0
  endloop
endfacet
facet normal -0.9743766977081271 0.22492232206565319 0.0
  outer loop
    vertex 6.029906342507424 13.122806601823033 0.0
    vertex 6.411563647686207 14.776168443640305 3.0
    vertex 6.411563647686207 14.776168443640305 0.0
  endloop
endfacet
facet normal -0.8829614362312627 0.46944552626308644 0.0
  outer loop
    vertex 7.208137828658372 16.274413167569694 3.0
    vertex 6.411563647686207 14.776168443640305 0.0
    vertex 6.411563647686207 14.776168443640305 3.0
  endloop
endfacet
facet normal -0.8829614362312627 0.46944552626308644 0.0
  outer loop
    vertex 6.411563647686207 14.776168443640305 0.0
    vertex 7.208137828658372 16.274413167569694 3.0
    vertex 7.208137828658372 16.274413167569694 0.0
  endloop
endfacet
facet normal -0.7313738120380026 0.6819767936411038 0.0
  outer loop
    vertex 8.365343671391743 17.51543787164189 3.0
    vertex 7.208137828658372 16.274413167569694 0.0
    vertex 7.208137828658372 16.274413167569694 3.0
  endloop
endfacet
facet normal -0.7313738120380026 0.6819767936411038 0.0
  outer loop
    vertex 7.208137828658372 16.274413167569694 0.0
    vertex 8.365343671391743 17.51543787164189 3.0
    vertex 8.365343671391743 17.51543787164189 0.0
  endloop
endfacet
facet normal -0.5299442712067228 0.8480324695524196 0.0
  outer loop
    vertex 8.365343671391743 17.51543787164189 3.0
    vertex 9.804319510077116 18.414668773164657 0.0
    vertex 8.365343671391743 17.51543787164189 0.0
  endloop
endfacet
facet normal -0.5299442712067228 0.8480324695524196 0.0
  outer loop
    vertex 9.804319510077116 18.414668773164657 0.0
    vertex 8.365343671391743 17.51543787164189 3.0
    vertex 9.804319510077116 18.414668773164657 3.0
  endloop
endfacet
facet normal -0.29239990406702443 0.9562961341036547 0.0
  outer loop
    vertex 9.804319510077116 18.414668773164657 3.0
    vertex 11.427001519328096 18.91082477224856 0.0
    vertex 9.804319510077116 18.414668773164657 0.0
  endloop
endfacet
facet normal -0.29239990406702443 0.9562961341036547 0.0
  outer loop
    vertex 11.427001519328096 18.91082477224856 0.0
    vertex 9.804319510077116 18.414668773164657 3.0
    vertex 11.427001519328096 18.91082477224856 3.0
  endloop
endfacet
facet normal -0.034928966678843675 0.9993897974698103 0.0
  outer loop
    vertex 11.427001519328096 18.91082477224856 3.0
    vertex 13.122806601823033 18.970093657492576 0.0
    vertex 11.427001519328096 18.91082477224856 0.0
  endloop
endfacet
facet normal -0.034928966678843675 0.9993897974698103 0.0
  outer loop
    vertex 13.122806601823033 18.970093657492576 0.0
    vertex 11.427001519328096 18.91082477224856 3.0
    vertex 13.122806601823033 18.970093657492576 3.0
  endloop
endfacet
facet normal 0.22492232206565355 0.974376697708127 0.0
  outer loop
    vertex 13.122806601823033 18.970093657492576 3.0
    vertex 14.776168443640302 18.588436352313792 0.0
    vertex 13.122806601823033 18.970093657492576 0.0
  endloop
endfacet
facet normal 0.22492232206565355 0.974376697708127 0.0
  outer loop
    vertex 14.776168443640302 18.588436352313792 0.0
    vertex 13.122806601823033 18.970093657492576 3.0
    vertex 14.776168443640302 18.588436352313792 3.0
  endloop
endfacet
facet normal 0.46944552626308633 0.8829614362312626 0.0
  outer loop
    vertex 14.776168443640302 18.588436352313792 3.0
    vertex 16.274413167569694 17.791862171341627 0.0
    vertex 14.776168443640302 18.588436352313792 0.0
  endloop
endfacet
facet normal 0.46944552626308633 0.8829614362312626 0.0
  outer loop
    vertex 16.274413167569694 17.791862171341627 0.0
    vertex 14.776168443640302 18.588436352313792 3.0
    vertex 16.274413167569694 17.791862171341627 3.0
  endloop
endfacet
facet normal 0.923879532511286 -0.3826834323650921 0.0
  outer loop
    vertex 10.334936490538905 13.75 0.0
    vertex 10.08518543427733 13.147047612756303 18.0
    vertex 10.08518543427733 13.147047612756303 0.0
  endloop
endfacet
facet normal 0.923879532511286 -0.3826834323650921 0.0
  outer loop
    vertex 10.08518543427733 13.147047612756303 18.0
    vertex 10.334936490538905 13.75 0.0
    vertex 10.334936490538905 13.75 18.0
  endloop
endfacet
facet normal 0.9914448613738106 -0.13052619222005132 0.0
  outer loop
    vertex 10.08518543427733 13.147047612756303 0.0
    vertex 10.0 12.5 18.0
    vertex 10.0 12.5 0.0
  endloop
endfacet
facet normal 0.9914448613738106 -0.13052619222005132 0.0
  outer loop
    vertex 10.0 12.5 18.0
    vertex 10.08518543427733 13.147047612756303 0.0
    vertex 10.08518543427733 13.147047612756303 18.0
  endloop
endfacet
facet normal 0.9914448613738104 0.13052619222005188 0.0
  outer loop
    vertex 10.0 12.5 0.0
    vertex 10.08518543427733 11.852952387243699 18.0
    vertex 10.08518543427733 11.852952387243699 0.0
  endloop
endfacet
facet normal 0.9914448613738104 0.13052619222005188 0.0
  outer loop
    vertex 10.08518543427733 11.852952387243699 18.0
    vertex 10.0 12.5 0.0
    vertex 10.0 12.5 18.0
  endloop
endfacet
facet normal 0.9238795325112873 0.38268343236508834 0.0
  outer loop
    vertex 10.08518543427733 11.852952387243699 0.0
    vertex 10.334936490538901 11.250000000000002 18.0
    vertex 10.334936490538901 11.250000000000002 0.0
  endloop
endfacet
facet normal 0.9238795325112873 0.38268343236508834 0.0
  outer loop
    vertex 10.334936490538901 11.250000000000002 18.0
    vertex 10.08518543427733 11.852952387243699 0.0
    vertex 10.08518543427733 11.852952387243699 18.0
  endloop
endfacet
facet normal 0.7933533402912349 0.608761429008721 0.0
  outer loop
    vertex 10.334936490538901 11.250000000000002 0.0
    vertex 10.732233047033631 10.732233047033633 18.0
    vertex 10.732233047033631 10.732233047033633 0.0
  endloop
endfacet
facet normal 0.7933533402912349 0.608761429008721 0.0
  outer loop
    vertex 10.732233047033631 10.732233047033633 18.0
    vertex 10.334936490538901 11.250000000000002 0.0
    vertex 10.334936490538901 11.250000000000002 18.0
  endloop
endfacet
facet normal 0.6087614290087207 0.7933533402912354 0.0
  outer loop
    vertex 10.732233047033631 10.732233047033633 18.0
    vertex 11.25 10.334936490538905 0.0
    vertex 10.732233047033631 10.732233047033633 0.0
  endloop
endfacet
facet normal 0.6087614290087207 0.7933533402912354 0.0
  outer loop
    vertex 11.25 10.334936490538905 0.0
    vertex 10.732233047033631 10.732233047033633 18.0
    vertex 11.25 10.334936490538905 18.0
  endloop
endfacet
facet normal 0.3826834323650902 0.9238795325112866 0.0
  outer loop
    vertex 11.25 10.334936490538905 18.0
    vertex 11.852952387243695 10.085185434277331 0.0
    vertex 11.25 10.334936490538905 0.0
  endloop
endfacet
facet normal 0.3826834323650902 0.9238795325112866 0.0
  outer loop
    vertex 11.852952387243695 10.085185434277331 0.0
    vertex 11.25 10.334936490538905 18.0
    vertex 11.852952387243695 10.085185434277331 18.0
  endloop
endfacet
facet normal 0.13052619222005343 0.9914448613738103 0.0
  outer loop
    vertex 11.852952387243695 10.085185434277331 18.0
    vertex 12.5 10.0 0.0
    vertex 11.852952387243695 10.085185434277331 0.0
  endloop
endfacet
facet normal 0.13052619222005343 0.9914448613738103 0.0
  outer loop
    vertex 12.5 10.0 0.0
    vertex 11.852952387243695 10.085185434277331 18.0
    vertex 12.5 10.0 18.0
  endloop
endfacet
facet normal -0.13052619222005188 0.9914448613738104 0.0
  outer loop
    vertex 12.5 10.0 18.0
    vertex 13.147047612756301 10.08518543427733 0.0
    vertex 12.5 10.0 0.0
  endloop
endfacet
facet normal -0.13052619222005188 0.9914448613738104 0.0
  outer loop
    vertex 13.147047612756301 10.08518543427733 0.0
    vertex 12.5 10.0 18.0
    vertex 13.147047612756301 10.08518543427733 18.0
  endloop
endfacet
facet normal -0.3826834323650887 0.9238795325112873 0.0
  outer loop
    vertex 13.147047612756301 10.08518543427733 18.0
    vertex 13.75 10.334936490538903 0.0
    vertex 13.147047612756301 10.08518543427733 0.0
  endloop
endfacet
facet normal -0.3826834323650887 0.9238795325112873 0.0
  outer loop
    vertex 13.75 10.334936490538903 0.0
    vertex 13.147047612756301 10.08518543427733 18.0
    vertex 13.75 10.334936490538903 18.0
  endloop
endfacet
facet normal -0.6087614290087231 0.7933533402912335 0.0
  outer loop
    vertex 13.75 10.334936490538903 18.0
    vertex 14.267766952966367 10.732233047033633 0.0
    vertex 13.75 10.334936490538903 0.0
  endloop
endfacet
facet normal -0.6087614290087231 0.7933533402912335 0.0
  outer loop
    vertex 14.267766952966367 10.732233047033633 0.0
    vertex 13.75 10.334936490538903 18.0
    vertex 14.267766952966367 10.732233047033633 18.0
  endloop
endfacet
facet normal -0.7933533402912344 0.6087614290087217 0.0
  outer loop
    vertex 14.665063509461095 11.25 18.0
    vertex 14.267766952966367 10.732233047033633 0.0
    vertex 14.267766952966367 10.732233047033633 18.0
  endloop
endfacet
facet normal -0.7933533402912344 0.6087614290087217 0.0
  outer loop
    vertex 14.267766952966367 10.732233047033633 0.0
    vertex 14.665063509461095 11.25 18.0
    vertex 14.665063509461095 11.25 0.0
  endloop
endfacet
facet normal -0.923879532511287 0.3826834323650895 0.0
  outer loop
    vertex 14.914814565722669 11.852952387243697 18.0
    vertex 14.665063509461095 11.25 0.0
    vertex 14.665063509461095 11.25 18.0
  endloop
endfacet
facet normal -0.923879532511287 0.3826834323650895 0.0
  outer loop
    vertex 14.665063509461095 11.25 0.0
    vertex 14.914814565722669 11.852952387243697 18.0
    vertex 14.914814565722669 11.852952387243697 0.0
  endloop
endfacet
facet normal -0.9914448613738098 0.13052619222005585 0.0
  outer loop
    vertex 15.0 12.5 18.0
    vertex 14.914814565722669 11.852952387243697 0.0
    vertex 14.914814565722669 11.852952387243697 18.0
  endloop
endfacet
facet normal -0.9914448613738098 0.13052619222005585 0.0
  outer loop
    vertex 14.914814565722669 11.852952387243697 0.0
    vertex 15.0 12.5 18.0
    vertex 15.0 12.5 0.0
  endloop
endfacet
facet normal -0.9914448613738099 -0.13052619222005613 -0.0
  outer loop
    vertex 14.914814565722669 13.147047612756301 18.0
    vertex 15.0 12.5 0.0
    vertex 15.0 12.5 18.0
  endloop
endfacet
facet normal -0.9914448613738099 -0.13052619222005613 -0.0
  outer loop
    vertex 15.0 12.5 0.0
    vertex 14.914814565722669 13.147047612756301 18.0
    vertex 14.914814565722669 13.147047612756301 0.0
  endloop
endfacet
facet normal -0.9238795325112882 -0.38268343236508656 -0.0
  outer loop
    vertex 14.665063509461097 13.749999999999998 18.0
    vertex 14.914814565722669 13.147047612756301 0.0
    vertex 14.914814565722669 13.147047612756301 18.0
  endloop
endfacet
facet normal -0.9238795325112882 -0.38268343236508656 -0.0
  outer loop
    vertex 14.914814565722669 13.147047612756301 0.0
    vertex 14.665063509461097 13.749999999999998 18.0
    vertex 14.665063509461097 13.749999999999998 0.0
  endloop
endfacet
facet normal -0.793353340291234 -0.6087614290087223 -0.0
  outer loop
    vertex 14.267766952966367 14.267766952966367 18.0
    vertex 14.665063509461097 13.749999999999998 0.0
    vertex 14.665063509461097 13.749999999999998 18.0
  endloop
endfacet
facet normal -0.793353340291234 -0.6087614290087223 -0.0
  outer loop
    vertex 14.665063509461097 13.749999999999998 0.0
    vertex 14.267766952966367 14.267766952966367 18.0
    vertex 14.267766952966367 14.267766952966367 0.0
  endloop
endfacet
facet normal -0.6087614290087217 -0.7933533402912344 -0.0
  outer loop
    vertex 14.267766952966367 14.267766952966367 18.0
    vertex 13.75 14.665063509461095 0.0
    vertex 14.267766952966367 14.267766952966367 0.0
  endloop
endfacet
facet normal -0.6087614290087217 -0.7933533402912344 -0.0
  outer loop
    vertex 13.75 14.665063509461095 0.0
    vertex 14.267766952966367 14.267766952966367 18.0
    vertex 13.75 14.665063509461095 18.0
  endloop
endfacet
facet normal -0.3826834323650887 -0.9238795325112873 -0.0
  outer loop
    vertex 13.75 14.665063509461095 18.0
    vertex 13.147047612756301 14.914814565722669 0.0
    vertex 13.75 14.665063509461095 0.0
  endloop
endfacet
facet normal -0.3826834323650887 -0.9238795325112873 -0.0
  outer loop
    vertex 13.147047612756301 14.914814565722669 0.0
    vertex 13.75 14.665063509461095 18.0
    vertex 13.147047612756301 14.914814565722669 18.0
  endloop
endfacet
facet normal -0.13052619222005188 -0.9914448613738104 -0.0
  outer loop
    vertex 13.147047612756301 14.914814565722669 18.0
    vertex 12.5 14.999999999999998 0.0
    vertex 13.147047612756301 14.914814565722669 0.0
  endloop
endfacet
facet normal -0.13052619222005188 -0.9914448613738104 -0.0
  outer loop
    vertex 12.5 14.999999999999998 0.0
    vertex 13.147047612756301 14.914814565722669 18.0
    vertex 12.5 14.999999999999998 18.0
  endloop
endfacet
facet normal 0.13052619222005188 -0.9914448613738104 0.0
  outer loop
    vertex 12.5 14.999999999999998 18.0
    vertex 11.852952387243699 14.914814565722669 0.0
    vertex 12.5 14.999999999999998 0.0
  endloop
endfacet
facet normal 0.13052619222005188 -0.9914448613738104 0.0
  outer loop
    vertex 11.852952387243699 14.914814565722669 0.0
    vertex 12.5 14.999999999999998 18.0
    vertex 11.852952387243699 14.914814565722669 18.0
  endloop
endfacet
facet normal 0.3826834323650895 -0.923879532511287 0.0
  outer loop
    vertex 11.852952387243699 14.914814565722669 18.0
    vertex 11.25 14.665063509461095 0.0
    vertex 11.852952387243699 14.914814565722669 0.0
  endloop
endfacet
facet normal 0.3826834323650895 -0.923879532511287 0.0
  outer loop
    vertex 11.25 14.665063509461095 0.0
    vertex 11.852952387243699 14.914814565722669 18.0
    vertex 11.25 14.665063509461095 18.0
  endloop
endfacet
facet normal 0.6087614290087207 -0.7933533402912354 0.0
  outer loop
    vertex 11.25 14.665063509461095 18.0
    vertex 10.732233047033633 14.267766952966367 0.0
    vertex 11.25 14.665063509461095 0.0
  endloop
endfacet
facet normal 0.6087614290087207 -0.7933533402912354 0.0
  outer loop
    vertex 10.732233047033633 14.267766952966367 0.0
    vertex 11.25 14.665063509461095 18.0
    vertex 10.732233047033633 14.267766952966367 18.0
  endloop
endfacet
facet normal 0.7933533402912344 -0.6087614290087217 0.0
  outer loop
    vertex 10.732233047033633 14.267766952966367 0.0
    vertex 10.334936490538905 13.75 18.0
    vertex 10.334936490538905 13.75 0.0
  endloop
endfacet
facet normal 0.7933533402912344 -0.6087614290087217 0.0
  outer loop
    vertex 10.334936490538905 13.75 18.0
    vertex 10.732233047033633 14.267766952966367 0.0
    vertex 10.732233047033633 14.267766952966367 18.0
  endloop
endfacet
facet normal 7.24810895037174e-32 -7.24810895037174e-32 1.0
  outer loop
    vertex 8.576440972477103 11.721742614848031 18.0
    vertex 8.712969516341419 13.78778884753699 18.0
    vertex 8.508705171076995 12.763752893088364 18.0
  endloop
endfacet
facet normal 7.24810895037174e-32 -7.24810895037174e-32 1.0
  outer loop
    vertex 8.712969516341419 13.78778884753699 18.0
    vertex 8.576440972477103 11.721742614848031 18.0
    vertex 8.911560837615031 10.73276929127466 18.0
  endloop
endfacet
facet normal 7.24810895037174e-32 -7.24810895037174e-32 1.0
  outer loop
    vertex 8.712969516341419 13.78778884753699 18.0
    vertex 8.911560837615031 10.73276929127466 18.0
    vertex 9.175313730703396 14.724064120197667 18.0
  endloop
endfacet
facet normal 7.24810895037174e-32 -7.24810895037174e-32 1.0
  outer loop
    vertex 9.175313730703396 14.724064120197667 18.0
    vertex 8.911560837615031 10.73276929127466 18.0
    vertex 9.49122690149339 9.864229820014096 18.0
  endloop
endfacet
facet normal 7.24810895037174e-32 -7.24810895037174e-32 1.0
  outer loop
    vertex 9.175313730703396 14.724064120197667 18.0
    vertex 9.49122690149339 9.864229820014096 18.0
    vertex 9.864229820014096 15.50877309850661 18.0
  endloop
endfacet
facet normal 7.24810895037174e-32 -7.24810895037174e-32 1.0
  outer loop
    vertex 9.864229820014096 15.50877309850661 18.0
    vertex 9.49122690149339 9.864229820014096 18.0
    vertex 10.0 12.5 18.0
  endloop
endfacet
facet normal 7.24810895037174e-32 -7.24810895037174e-32 1.0
  outer loop
    vertex 10.0 12.5 18.0
    vertex 9.49122690149339 9.864229820014096 18.0
    vertex 10.275935879802331 9.175313730703396 18.0
  endloop
endfacet
facet normal 7.24810895037174e-32 -7.24810895037174e-32 1.0
  outer loop
    vertex 10.0 12.5 18.0
    vertex 10.275935879802331 9.175313730703396 18.0
    vertex 10.08518543427733 11.852952387243699 18.0
  endloop
endfacet
facet normal 7.24810895037174e-32 -7.24810895037174e-32 1.0
  outer loop
    vertex 10.08518543427733 11.852952387243699 18.0
    vertex 10.275935879802331 9.175313730703396 18.0
    vertex 10.334936490538901 11.250000000000002 18.0
  endloop
endfacet
facet normal 7.24810895037174e-32 -7.24810895037174e-32 1.0
  outer loop
    vertex 10.334936490538901 11.250000000000002 18.0
    vertex 10.275935879802331 9.175313730703396 18.0
    vertex 11.212211152463007 8.712969516341419 18.0
  endloop
endfacet
facet normal 7.24810895037174e-32 -7.24810895037174e-32 1.0
  outer loop
    vertex 10.334936490538901 11.250000000000002 18.0
    vertex 11.212211152463007 8.712969516341419 18.0
    vertex 10.732233047033631 10.732233047033633 18.0
  endloop
endfacet
facet normal 7.24810895037174e-32 -7.24810895037174e-32 1.0
  outer loop
    vertex 10.732233047033631 10.732233047033633 18.0
    vertex 11.212211152463007 8.712969516341419 18.0
    vertex 11.25 10.334936490538905 18.0
  endloop
endfacet
facet normal 7.24810895037174e-32 -7.24810895037174e-32 1.0
  outer loop
    vertex 11.25 10.334936490538905 18.0
    vertex 11.212211152463007 8.712969516341419 18.0
    vertex 12.236247106911636 8.508705171076995 18.0
  endloop
endfacet
facet normal 7.24810895037174e-32 -7.24810895037174e-32 1.0
  outer loop
    vertex 11.25 10.334936490538905 18.0
    vertex 12.236247106911636 8.508705171076995 18.0
    vertex 11.852952387243695 10.085185434277331 18.0
  endloop
endfacet
facet normal 7.24810895037174e-32 -7.24810895037174e-32 1.0
  outer loop
    vertex 11.852952387243695 10.085185434277331 18.0
    vertex 12.236247106911636 8.508705171076995 18.0
    vertex 12.5 10.0 18.0
  endloop
endfacet
facet normal 7.24810895037174e-32 -7.24810895037174e-32 1.0
  outer loop
    vertex 12.5 10.0 18.0
    vertex 12.236247106911636 8.508705171076995 18.0
    vertex 13.278257385151969 8.576440972477103 18.0
  endloop
endfacet
facet normal 7.24810895037174e-32 -7.24810895037174e-32 1.0
  outer loop
    vertex 12.5 10.0 18.0
    vertex 13.278257385151969 8.576440972477103 18.0
    vertex 13.147047612756301 10.08518543427733 18.0
  endloop
endfacet
facet normal 7.24810895037174e-32 -7.24810895037174e-32 1.0
  outer loop
    vertex 13.147047612756301 10.08518543427733 18.0
    vertex 13.278257385151969 8.576440972477103 18.0
    vertex 13.75 10.334936490538903 18.0
  endloop
endfacet
facet normal 7.24810895037174e-32 -7.24810895037174e-32 1.0
  outer loop
    vertex 13.75 10.334936490538903 18.0
    vertex 13.278257385151969 8.576440972477103 18.0
    vertex 14.267230708725338 8.911560837615031 18.0
  endloop
endfacet
facet normal 7.24810895037174e-32 -7.24810895037174e-32 1.0
  outer loop
    vertex 13.75 10.334936490538903 18.0
    vertex 14.267230708725338 8.911560837615031 18.0
    vertex 14.267766952966367 10.732233047033633 18.0
  endloop
endfacet
facet normal 7.24810895037174e-32 -7.24810895037174e-32 1.0
  outer loop
    vertex 14.267766952966367 10.732233047033633 18.0
    vertex 14.267230708725338 8.911560837615031 18.0
    vertex 15.135770179985904 9.491226901493391 18.0
  endloop
endfacet
facet normal 7.24810895037174e-32 -7.24810895037174e-32 1.0
  outer loop
    vertex 14.267766952966367 10.732233047033633 18.0
    vertex 15.135770179985904 9.491226901493391 18.0
    vertex 14.665063509461095 11.25 18.0
  endloop
endfacet
facet normal 7.24810895037174e-32 -7.24810895037174e-32 1.0
  outer loop
    vertex 14.665063509461095 11.25 18.0
    vertex 15.135770179985904 9.491226901493391 18.0
    vertex 14.914814565722669 11.852952387243697 18.0
  endloop
endfacet
facet normal 7.24810895037174e-32 -7.24810895037174e-32 1.0
  outer loop
    vertex 14.914814565722669 11.852952387243697 18.0
    vertex 15.135770179985904 9.491226901493391 18.0
    vertex 15.0 12.5 18.0
  endloop
endfacet
facet normal 7.24810895037174e-32 -7.24810895037174e-32 1.0
  outer loop
    vertex 9.864229820014096 15.50877309850661 18.0
    vertex 10.08518543427733 13.147047612756303 18.0
    vertex 10.73276929127466 16.08843916238497 18.0
  endloop
endfacet
facet normal 7.24810895037174e-32 -7.24810895037174e-32 1.0
  outer loop
    vertex 10.08518543427733 13.147047612756303 18.0
    vertex 9.864229820014096 15.50877309850661 18.0
    vertex 10.0 12.5 18.0
  endloop
endfacet
facet normal 7.24810895037174e-32 -7.24810895037174e-32 1.0
  outer loop
    vertex 10.73276929127466 16.08843916238497 18.0
    vertex 10.08518543427733 13.147047612756303 18.0
    vertex 10.334936490538905 13.75 18.0
  endloop
endfacet
facet normal 7.24810895037174e-32 -7.24810895037174e-32 1.0
  outer loop
    vertex 10.73276929127466 16.08843916238497 18.0
    vertex 10.334936490538905 13.75 18.0
    vertex 10.732233047033633 14.267766952966367 18.0
  endloop
endfacet
facet normal 7.24810895037174e-32 -7.24810895037174e-32 1.0
  outer loop
    vertex 10.73276929127466 16.08843916238497 18.0
    vertex 10.732233047033633 14.267766952966367 18.0
    vertex 11.25 14.665063509461095 18.0
  endloop
endfacet
facet normal 7.24810895037174e-32 -7.24810895037174e-32 1.0
  outer loop
    vertex 10.73276929127466 16.08843916238497 18.0
    vertex 11.25 14.665063509461095 18.0
    vertex 11.72174261484803 16.423559027522895 18.0
  endloop
endfacet
facet normal 7.24810895037174e-32 -7.24810895037174e-32 1.0
  outer loop
    vertex 11.72174261484803 16.423559027522895 18.0
    vertex 11.25 14.665063509461095 18.0
    vertex 11.852952387243699 14.914814565722669 18.0
  endloop
endfacet
facet normal 7.24810895037174e-32 -7.24810895037174e-32 1.0
  outer loop
    vertex 11.72174261484803 16.423559027522895 18.0
    vertex 11.852952387243699 14.914814565722669 18.0
    vertex 12.763752893088364 16.491294828923003 18.0
  endloop
endfacet
facet normal 7.24810895037174e-32 -7.24810895037174e-32 1.0
  outer loop
    vertex 12.763752893088364 16.491294828923003 18.0
    vertex 11.852952387243699 14.914814565722669 18.0
    vertex 12.5 14.999999999999998 18.0
  endloop
endfacet
facet normal 7.24810895037174e-32 -7.24810895037174e-32 1.0
  outer loop
    vertex 12.763752893088364 16.491294828923003 18.0
    vertex 12.5 14.999999999999998 18.0
    vertex 13.147047612756301 14.914814565722669 18.0
  endloop
endfacet
facet normal 7.24810895037174e-32 -7.24810895037174e-32 1.0
  outer loop
    vertex 12.763752893088364 16.491294828923003 18.0
    vertex 13.147047612756301 14.914814565722669 18.0
    vertex 13.78778884753699 16.28703048365858 18.0
  endloop
endfacet
facet normal 7.24810895037174e-32 -7.24810895037174e-32 1.0
  outer loop
    vertex 13.78778884753699 16.28703048365858 18.0
    vertex 13.147047612756301 14.914814565722669 18.0
    vertex 13.75 14.665063509461095 18.0
  endloop
endfacet
facet normal 7.24810895037174e-32 -7.24810895037174e-32 1.0
  outer loop
    vertex 13.78778884753699 16.28703048365858 18.0
    vertex 13.75 14.665063509461095 18.0
    vertex 14.267766952966367 14.267766952966367 18.0
  endloop
endfacet
facet normal 7.24810895037174e-32 -7.24810895037174e-32 1.0
  outer loop
    vertex 13.78778884753699 16.28703048365858 18.0
    vertex 14.267766952966367 14.267766952966367 18.0
    vertex 14.724064120197667 15.824686269296603 18.0
  endloop
endfacet
facet normal 7.24810895037174e-32 -7.24810895037174e-32 1.0
  outer loop
    vertex 14.724064120197667 15.824686269296603 18.0
    vertex 14.267766952966367 14.267766952966367 18.0
    vertex 14.665063509461097 13.749999999999998 18.0
  endloop
endfacet
facet normal 7.24810895037174e-32 -7.24810895037174e-32 1.0
  outer loop
    vertex 14.724064120197667 15.824686269296603 18.0
    vertex 14.665063509461097 13.749999999999998 18.0
    vertex 14.914814565722669 13.147047612756301 18.0
  endloop
endfacet
facet normal 7.24810895037174e-32 -7.24810895037174e-32 1.0
  outer loop
    vertex 14.724064120197667 15.824686269296603 18.0
    vertex 14.914814565722669 13.147047612756301 18.0
    vertex 15.508773098506607 15.135770179985904 18.0
  endloop
endfacet
facet normal 7.24810895037174e-32 -7.24810895037174e-32 1.0
  outer loop
    vertex 15.508773098506607 15.135770179985904 18.0
    vertex 14.914814565722669 13.147047612756301 18.0
    vertex 15.0 12.5 18.0
  endloop
endfacet
facet normal 7.24810895037174e-32 -7.24810895037174e-32 1.0
  outer loop
    vertex 15.508773098506607 15.135770179985904 18.0
    vertex 15.0 12.5 18.0
    vertex 15.135770179985904 9.491226901493391 18.0
  endloop
endfacet
facet normal 7.24810895037174e-32 -7.24810895037174e-32 1.0
  outer loop
    vertex 15.508773098506607 15.135770179985904 18.0
    vertex 15.135770179985904 9.491226901493391 18.0
    vertex 15.824686269296603 10.275935879802335 18.0
  endloop
endfacet
facet normal 7.24810895037174e-32 -7.24810895037174e-32 1.0
  outer loop
    vertex 15.508773098506607 15.135770179985904 18.0
    vertex 15.824686269296603 10.275935879802335 18.0
    vertex 16.08843916238497 14.267230708725338 18.0
  endloop
endfacet
facet normal 7.24810895037174e-32 -7.24810895037174e-32 1.0
  outer loop
    vertex 16.08843916238497 14.267230708725338 18.0
    vertex 15.824686269296603 10.275935879802335 18.0
    vertex 16.28703048365858 11.212211152463007 18.0
  endloop
endfacet
facet normal 7.24810895037174e-32 -7.24810895037174e-32 1.0
  outer loop
    vertex 16.08843916238497 14.267230708725338 18.0
    vertex 16.28703048365858 11.212211152463007 18.0
    vertex 16.423559027522895 13.278257385151969 18.0
  endloop
endfacet
facet normal 7.24810895037174e-32 -7.24810895037174e-32 1.0
  outer loop
    vertex 16.423559027522895 13.278257385151969 18.0
    vertex 16.28703048365858 11.212211152463007 18.0
    vertex 16.491294828923003 12.236247106911637 18.0
  endloop
endfacet
facet normal -0.8966354345592059 0.4427695760695672 9.708153445711168e-32
  outer loop
    vertex 9.175313730703396 14.724064120197667 18.0
    vertex 8.712969516341419 13.78778884753699 3.0
    vertex 8.712969516341419 13.78778884753699 18.0
  endloop
endfacet
facet normal -0.8966354345592059 0.4427695760695672 9.708153445711168e-32
  outer loop
    vertex 8.712969516341419 13.78778884753699 3.0
    vertex 9.175313730703396 14.724064120197667 18.0
    vertex 9.175313730703396 14.724064120197667 3.0
  endloop
endfacet
facet normal -0.9806805218854322 0.19561624164295882 8.525927100023441e-32
  outer loop
    vertex 8.712969516341419 13.78778884753699 18.0
    vertex 8.508705171076995 12.763752893088364 3.0
    vertex 8.508705171076995 12.763752893088364 18.0
  endloop
endfacet
facet normal -0.9806805218854322 0.19561624164295882 8.525927100023441e-32
  outer loop
    vertex 8.508705171076995 12.763752893088364 3.0
    vertex 8.712969516341419 13.78778884753699 18.0
    vertex 8.712969516341419 13.78778884753699 3.0
  endloop
endfacet
facet normal -0.9978938522963555 -0.06486801638049171 6.762672912229847e-32
  outer loop
    vertex 8.508705171076995 12.763752893088364 18.0
    vertex 8.576440972477103 11.721742614848031 3.0
    vertex 8.576440972477103 11.721742614848031 18.0
  endloop
endfacet
facet normal -0.9978938522963555 -0.06486801638049171 6.762672912229847e-32
  outer loop
    vertex 8.576440972477103 11.721742614848031 3.0
    vertex 8.508705171076995 12.763752893088364 18.0
    vertex 8.508705171076995 12.763752893088364 3.0
  endloop
endfacet
facet normal -0.9471023657708451 -0.32093162628707805 4.538553741313183e-32
  outer loop
    vertex 8.576440972477103 11.721742614848031 18.0
    vertex 8.911560837615031 10.73276929127466 3.0
    vertex 8.911560837615031 10.73276929127466 18.0
  endloop
endfacet
facet normal -0.9471023657708451 -0.32093162628707805 4.538553741313183e-32
  outer loop
    vertex 8.911560837615031 10.73276929127466 3.0
    vertex 8.576440972477103 11.721742614848031 18.0
    vertex 8.576440972477103 11.721742614848031 3.0
  endloop
endfacet
facet normal -0.8317674181787149 -0.555124276226788 2.0051396332407202e-32
  outer loop
    vertex 8.911560837615031 10.73276929127466 18.0
    vertex 9.49122690149339 9.864229820014096 3.0
    vertex 9.49122690149339 9.864229820014096 18.0
  endloop
endfacet
facet normal -0.8317674181787149 -0.555124276226788 2.0051396332407202e-32
  outer loop
    vertex 9.49122690149339 9.864229820014096 3.0
    vertex 8.911560837615031 10.73276929127466 18.0
    vertex 8.911560837615031 10.73276929127466 3.0
  endloop
endfacet
facet normal -0.6597488955983537 -0.7514861241278861 -6.649214271872007e-33
  outer loop
    vertex 10.275935879802331 9.175313730703396 18.0
    vertex 9.49122690149339 9.864229820014096 3.0
    vertex 10.275935879802331 9.175313730703396 3.0
  endloop
endfacet
facet normal -0.6597488955983537 -0.7514861241278861 -6.649214271872007e-33
  outer loop
    vertex 9.49122690149339 9.864229820014096 3.0
    vertex 10.275935879802331 9.175313730703396 18.0
    vertex 9.49122690149339 9.864229820014096 18.0
  endloop
endfacet
facet normal -0.4427695760695672 -0.8966354345592059 -3.2896691911869034e-32
  outer loop
    vertex 11.212211152463007 8.712969516341419 18.0
    vertex 10.275935879802331 9.175313730703396 3.0
    vertex 11.212211152463007 8.712969516341419 3.0
  endloop
endfacet
facet normal -0.4427695760695672 -0.8966354345592059 -3.2896691911869034e-32
  outer loop
    vertex 10.275935879802331 9.175313730703396 3.0
    vertex 11.212211152463007 8.712969516341419 18.0
    vertex 10.275935879802331 9.175313730703396 18.0
  endloop
endfacet
facet normal -0.19561624164295882 -0.9806805218854322 -5.690231436242619e-32
  outer loop
    vertex 12.236247106911636 8.508705171076995 18.0
    vertex 11.212211152463007 8.712969516341419 3.0
    vertex 12.236247106911636 8.508705171076995 3.0
  endloop
endfacet
facet normal -0.19561624164295882 -0.9806805218854322 -5.690231436242619e-32
  outer loop
    vertex 11.212211152463007 8.712969516341419 3.0
    vertex 12.236247106911636 8.508705171076995 18.0
    vertex 11.212211152463007 8.712969516341419 18.0
  endloop
endfacet
facet normal 0.06486801638049161 -0.9978938522963555 -7.703013812470452e-32
  outer loop
    vertex 13.278257385151969 8.576440972477103 18.0
    vertex 12.236247106911636 8.508705171076995 3.0
    vertex 13.278257385151969 8.576440972477103 3.0
  endloop
endfacet
facet normal 0.06486801638049161 -0.9978938522963555 -7.703013812470452e-32
  outer loop
    vertex 12.236247106911636 8.508705171076995 3.0
    vertex 13.278257385151969 8.576440972477103 18.0
    vertex 12.236247106911636 8.508705171076995 18.0
  endloop
endfacet
facet normal 0.3209316262870785 -0.947102365770845 -9.190848527210643e-32
  outer loop
    vertex 14.267230708725338 8.911560837615031 18.0
    vertex 13.278257385151969 8.576440972477103 3.0
    vertex 14.267230708725338 8.911560837615031 3.0
  endloop
endfacet
facet normal 0.3209316262870785 -0.947102365770845 -9.190848527210643e-32
  outer loop
    vertex 13.278257385151969 8.576440972477103 3.0
    vertex 14.267230708725338 8.911560837615031 18.0
    vertex 13.278257385151969 8.576440972477103 18.0
  endloop
endfacet
facet normal 0.5551242762267897 -0.8317674181787135 -1.0052342103416756e-31
  outer loop
    vertex 15.135770179985904 9.491226901493391 18.0
    vertex 14.267230708725338 8.911560837615031 3.0
    vertex 15.135770179985904 9.491226901493391 3.0
  endloop
endfacet
facet normal 0.5551242762267897 -0.8317674181787135 -1.0052342103416756e-31
  outer loop
    vertex 14.267230708725338 8.911560837615031 3.0
    vertex 15.135770179985904 9.491226901493391 18.0
    vertex 14.267230708725338 8.911560837615031 18.0
  endloop
endfacet
facet normal 0.7514861241278861 -0.6597488955983537 -1.0228785177555795e-31
  outer loop
    vertex 15.824686269296603 10.275935879802335 3.0
    vertex 15.135770179985904 9.491226901493391 18.0
    vertex 15.135770179985904 9.491226901493391 3.0
  endloop
endfacet
facet normal 0.7514861241278861 -0.6597488955983537 -1.0228785177555795e-31
  outer loop
    vertex 15.135770179985904 9.491226901493391 18.0
    vertex 15.824686269296603 10.275935879802335 3.0
    vertex 15.824686269296603 10.275935879802335 18.0
  endloop
endfacet
facet normal 0.8966354345592054 -0.4427695760695683 -9.708153445711171e-32
  outer loop
    vertex 16.28703048365858 11.212211152463007 3.0
    vertex 15.824686269296603 10.275935879802335 18.0
    vertex 15.824686269296603 10.275935879802335 3.0
  endloop
endfacet
facet normal 0.8966354345592054 -0.4427695760695683 -9.708153445711171e-32
  outer loop
    vertex 15.824686269296603 10.275935879802335 18.0
    vertex 16.28703048365858 11.212211152463007 3.0
    vertex 16.28703048365858 11.212211152463007 18.0
  endloop
endfacet
facet normal 0.9806805218854322 -0.19561624164295857 -8.52592710002344e-32
  outer loop
    vertex 16.491294828923003 12.236247106911637 3.0
    vertex 16.28703048365858 11.212211152463007 18.0
    vertex 16.28703048365858 11.212211152463007 3.0
  endloop
endfacet
facet normal 0.9806805218854322 -0.19561624164295857 -8.52592710002344e-32
  outer loop
    vertex 16.28703048365858 11.212211152463007 18.0
    vertex 16.491294828923003 12.236247106911637 3.0
    vertex 16.491294828923003 12.236247106911637 18.0
  endloop
endfacet
facet normal 0.9978938522963555 0.06486801638049171 -6.762672912229847e-32
  outer loop
    vertex 16.423559027522895 13.278257385151969 3.0
    vertex 16.491294828923003 12.236247106911637 18.0
    vertex 16.491294828923003 12.236247106911637 3.0
  endloop
endfacet
facet normal 0.9978938522963555 0.06486801638049171 -6.762672912229847e-32
  outer loop
    vertex 16.491294828923003 12.236247106911637 18.0
    vertex 16.423559027522895 13.278257385151969 3.0
    vertex 16.423559027522895 13.278257385151969 18.0
  endloop
endfacet
facet normal 0.947102365770845 0.3209316262870785 -4.538553741313179e-32
  outer loop
    vertex 16.08843916238497 14.267230708725338 3.0
    vertex 16.423559027522895 13.278257385151969 18.0
    vertex 16.423559027522895 13.278257385151969 3.0
  endloop
endfacet
facet normal 0.947102365770845 0.3209316262870785 -4.538553741313179e-32
  outer loop
    vertex 16.423559027522895 13.278257385151969 18.0
    vertex 16.08843916238497 14.267230708725338 3.0
    vertex 16.08843916238497 14.267230708725338 18.0
  endloop
endfacet
facet normal 0.8317674181787135 0.5551242762267897 -2.0051396332406978e-32
  outer loop
    vertex 15.508773098506607 15.135770179985904 3.0
    vertex 16.08843916238497 14.267230708725338 18.0
    vertex 16.08843916238497 14.267230708725338 3.0
  endloop
endfacet
facet normal 0.8317674181787135 0.5551242762267897 -2.0051396332406978e-32
  outer loop
    vertex 16.08843916238497 14.267230708725338 18.0
    vertex 15.508773098506607 15.135770179985904 3.0
    vertex 15.508773098506607 15.135770179985904 18.0
  endloop
endfacet
facet normal 0.6597488955983551 0.7514861241278851 6.64921427187183e-33
  outer loop
    vertex 14.724064120197667 15.824686269296603 18.0
    vertex 15.508773098506607 15.135770179985904 3.0
    vertex 14.724064120197667 15.824686269296603 3.0
  endloop
endfacet
facet normal 0.6597488955983551 0.7514861241278851 6.64921427187183e-33
  outer loop
    vertex 15.508773098506607 15.135770179985904 3.0
    vertex 14.724064120197667 15.824686269296603 18.0
    vertex 15.508773098506607 15.135770179985904 18.0
  endloop
endfacet
facet normal 0.4427695760695672 0.8966354345592059 3.2896691911869034e-32
  outer loop
    vertex 13.78778884753699 16.28703048365858 18.0
    vertex 14.724064120197667 15.824686269296603 3.0
    vertex 13.78778884753699 16.28703048365858 3.0
  endloop
endfacet
facet normal 0.4427695760695672 0.8966354345592059 3.2896691911869034e-32
  outer loop
    vertex 14.724064120197667 15.824686269296603 3.0
    vertex 13.78778884753699 16.28703048365858 18.0
    vertex 14.724064120197667 15.824686269296603 18.0
  endloop
endfacet
facet normal 0.19561624164295882 0.9806805218854322 5.690231436242619e-32
  outer loop
    vertex 12.763752893088364 16.491294828923003 18.0
    vertex 13.78778884753699 16.28703048365858 3.0
    vertex 12.763752893088364 16.491294828923003 3.0
  endloop
endfacet
facet normal 0.19561624164295882 0.9806805218854322 5.690231436242619e-32
  outer loop
    vertex 13.78778884753699 16.28703048365858 3.0
    vertex 12.763752893088364 16.491294828923003 18.0
    vertex 13.78778884753699 16.28703048365858 18.0
  endloop
endfacet
facet normal -0.06486801638049161 0.9978938522963555 7.703013812470452e-32
  outer loop
    vertex 11.72174261484803 16.423559027522895 18.0
    vertex 12.763752893088364 16.491294828923003 3.0
    vertex 11.72174261484803 16.423559027522895 3.0
  endloop
endfacet
facet normal -0.06486801638049161 0.9978938522963555 7.703013812470452e-32
  outer loop
    vertex 12.763752893088364 16.491294828923003 3.0
    vertex 11.72174261484803 16.423559027522895 18.0
    vertex 12.763752893088364 16.491294828923003 18.0
  endloop
endfacet
facet normal -0.3209316262870785 0.947102365770845 9.190848527210643e-32
  outer loop
    vertex 10.73276929127466 16.08843916238497 18.0
    vertex 11.72174261484803 16.423559027522895 3.0
    vertex 10.73276929127466 16.08843916238497 3.0
  endloop
endfacet
facet normal -0.3209316262870785 0.947102365770845 9.190848527210643e-32
  outer loop
    vertex 11.72174261484803 16.423559027522895 3.0
    vertex 10.73276929127466 16.08843916238497 18.0
    vertex 11.72174261484803 16.423559027522895 18.0
  endloop
endfacet
facet normal -0.555124276226788 0.8317674181787149 1.0052342103416754e-31
  outer loop
    vertex 9.864229820014096 15.50877309850661 18.0
    vertex 10.73276929127466 16.08843916238497 3.0
    vertex 9.864229820014096 15.50877309850661 3.0
  endloop
endfacet
facet normal -0.555124276226788 0.8317674181787149 1.0052342103416754e-31
  outer loop
    vertex 10.73276929127466 16.08843916238497 3.0
    vertex 9.864229820014096 15.50877309850661 18.0
    vertex 10.73276929127466 16.08843916238497 18.0
  endloop
endfacet
facet normal -0.7514861241278861 0.6597488955983537 1.0228785177555795e-31
  outer loop
    vertex 9.864229820014096 15.50877309850661 18.0
    vertex 9.175313730703396 14.724064120197667 3.0
    vertex 9.175313730703396 14.724064120197667 18.0
  endloop
endfacet
facet normal -0.7514861241278861 0.6597488955983537 1.0228785177555795e-31
  outer loop
    vertex 9.175313730703396 14.724064120197667 3.0
    vertex 9.864229820014096 15.50877309850661 18.0
    vertex 9.864229820014096 15.50877309850661 3.0
  endloop
endfacet
endsolid colonnina
